<svg height="24" viewBox="0 0 40 24" width="40" xmlns="http://www.w3.org/2000/svg"><g fill="none" fill-rule="nonzero"><path d="m4.84848485 0h33.95151515c.6627417 0 1.2.5372583 1.2 1.2v21.6c0 .6627417-.5372583 1.2-1.2 1.2h-37.6c-.6627417 0-1.2-.5372583-1.2-1.2v-17.65714286c0-2.84485714 2.18585859-5.14285714 4.84848485-5.14285714z" fill="#538316"/><path d="m1.2 24c-.6627417 0-1.2-.5372583-1.2-1.2v-3.6h40v3.6c0 .6627417-.5372583 1.2-1.2 1.2z" fill="#68a51c"/><path d="m21.75 6c1.1045695 0 2 .8954305 2 2v9.25l-6.7877881.0013831c-.1742604.8551509-.9305914 1.4986169-1.8372119 1.4986169s-1.6629515-.643466-1.8372119-1.4986169l-.2877881-.0013831c-1.1045695 0-2-.8954305-2-2v-7.25c0-1.1045695.8954305-2 2-2zm0 1.5h-8.75c-.2761424 0-.5.22385763-.5.5v7.25c0 .2761424.2238576.5.5.5l.6251646-.0004018c.3420959-.455189.8865842-.7495982 1.4998354-.7495982s1.1577395.2944092 1.4998354.7495982l5.1251646.0004018c.2761424 0 .5-.2238576.5-.5v-7.25c0-.27614237-.2238576-.5-.5-.5zm4.3892044.75c.5195899 0 1.0021741.26889449 1.2755676.71074255l1.3607956 2.19926565c.1467134.2371127.2244324.5104256.2244324.7892575v3.8007343c0 .8284271-.6715729 1.5-1.5 1.5l-.7877881.0013831c-.1742604.8551509-.9305914 1.4986169-1.8372119 1.4986169s-1.6629515-.643466-1.8372119-1.4986169l-.7877881-.0013831v-9zm-.1115395 1.5h-2.2776649l-.0004018 5.6251646c.3134415-.235566.7031191-.3751646 1.1254018-.3751646.6132512 0 1.1577395.2944092 1.4998354.7495982l.7501646.0004018c.2071068 0 .375-.1678932.375-.375v-3.2434444c0-.0628836-.0158135-.1247575-.0459858-.1799297l-1.0973351-2.00655553c-.0657736-.12027182-.1919321-.19507037-.3290142-.19507037zm-10.9026649 7.5c.2071068 0 .375-.1678932.375-.375s-.1678932-.375-.375-.375-.375.1678932-.375.375.1678932.375.375.375zm9.75 0c.2071068 0 .375-.1678932.375-.375s-.1678932-.375-.375-.375-.375.1678932-.375.375.1678932.375.375.375z" fill="#fff"/></g></svg>