<svg height="17" viewBox="0 0 15 17" width="15" xmlns="http://www.w3.org/2000/svg"><path d="m13.7281987 14.8872196c-.5034442.6865993-.9156529 1.1618565-1.2333284 1.4257714-.492452.433199-1.0200792.6550557-1.5850799.6676732-.4056134 0-.8947677-.1104027-1.46416531-.3343624-.5712663-.2229082-1.09625531-.3333108-1.57628609-.3333108-.50344423 0-1.04338268.1104026-1.62091455.3333108-.57841126.2239597-1.04437198.3406711-1.40063022.3522371-.54180713.0220805-1.08185549-.206085-1.62091456-.6855479-.34405686-.2870469-.77440275-.7791273-1.28993844-1.4762412-.55312912-.7444294-1.00787777-1.607673-1.36413601-2.5918338-.38154038-1.0630198-.57280522-2.0923931-.57280522-3.08896107 0-1.14156344.25787777-2.12614482.77440276-2.95122066.40594313-.66273136.94599149-1.18551421 1.62190385-1.56929486.67591236-.38378066 1.40623626-.57935107 2.19273047-.59186337.43034589 0 .99468709.12733106 1.6959915.37757707.69932581.25108718 1.14835849.37841824 1.34522937.37841824.14718599 0 .64601348-.14888586 1.4916459-.44571128.79968489-.27527062 1.47460795-.38924822 2.02751725-.34435114 1.4982412.11565993 2.6238458.68060608 3.3724168 1.6984134-1.3399531.77660381-2.0027847 1.86433282-1.989594 3.25971722.0120914 1.08688785.4243001 1.99134845 1.2344277 2.70949145.3671405.3333108.7771508.590917 1.2333284.77387-.0989301.2744294-.2033563.5372929-.3143778.7896418-.2693097.5951229-.5880845 1.1429304-.9574235 1.6465768zm-2.7281987-14.54929199c0 .84477731-.3470207 1.63354268-1.03871743 2.36361646-.83472552.86791405-1.84436824 1.36943574-2.93924206 1.29029749-.01395118-.101347-.02204051-.2080116-.02204051-.32009804 0-.81098456.39696357-1.6788986 1.10190803-2.38853615.35194466-.35930224.7995545-.65805693 1.34236056-.89637879.54163369-.23476637 1.05395821-.36459897 1.53580121-.38682858.0140684.11293101.0199302.22587244.0199302.33791718z" fill="#3d3d3d"/></svg>