<svg height="32" viewBox="0 0 32 32" width="32" xmlns="http://www.w3.org/2000/svg"><path d="m11.1707057 22c.4118364-1.1651924 1.5230755-2 2.8292943-2s2.4174579.8348076 2.8292943 2h8.6707057c.2761424 0 .5.2238576.5.5v1c0 .2761424-.2238576.5-.5.5h-8.6707057c-.4118364 1.1651924-1.5230755 2-2.8292943 2s-2.4174579-.8348076-2.8292943-2h-4.6707057c-.27614237 0-.5-.2238576-.5-.5v-1c0-.2761424.22385763-.5.5-.5zm7-7c.4118364-1.1651924 1.5230755-2 2.8292943-2s2.4174579.8348076 2.8292943 2h1.6707057c.2761424 0 .5.2238576.5.5v1c0 .2761424-.2238576.5-.5.5h-1.6707057c-.4118364 1.1651924-1.5230755 2-2.8292943 2s-2.4174579-.8348076-2.8292943-2h-11.6707057c-.27614237 0-.5-.2238576-.5-.5v-1c0-.2761424.22385763-.5.5-.5zm-9.99999999-7c.41183641-1.16519237 1.52307546-2 2.82929429-2 1.3062188 0 2.4174579.83480763 2.8292943 2h11.6707057c.2761424 0 .5.22385763.5.5v1c0 .27614237-.2238576.5-.5.5h-11.6707057c-.4118364 1.1651924-1.5230755 2-2.8292943 2-1.30621883 0-2.41745788-.8348076-2.82929429-2h-1.67070571c-.27614237 0-.5-.22385763-.5-.5v-1c0-.27614237.22385763-.5.5-.5zm2.82929429 2c.5522847 0 1-.44771525 1-1s-.4477153-1-1-1-1 .44771525-1 1 .4477153 1 1 1zm10 7c.5522847 0 1-.4477153 1-1s-.4477153-1-1-1-1 .4477153-1 1 .4477153 1 1 1zm-7 7c.5522847 0 1-.4477153 1-1s-.4477153-1-1-1-1 .4477153-1 1 .4477153 1 1 1z" fill="#3d3d3d" fill-rule="evenodd"/></svg>