<svg height="32" viewBox="0 0 32 32" width="32" xmlns="http://www.w3.org/2000/svg"><path d="m22.9047005 13h-2.309401l3.4047005-5.89711432c.2761424-.47829262.8877328-.64216778 1.3660254-.3660254.4782926.27614237.6421678.88773278.3660254 1.3660254zm-15.9047005 3v4c0 2.209139 1.790861 4 4 4h10c2.209139 0 4-1.790861 4-4v-4zm-1.5-2h21c.2761424 0 .5.2238576.5.5v5.5c0 3.3137085-2.6862915 6-6 6h-10c-3.3137085 0-6-2.6862915-6-6v-5.5c0-.2761424.22385763-.5.5-.5zm2.25-4.66666667-.55-.73333333c-.33137085-.4418278-.2418278-1.06862915.2-1.4s1.06862915-.2418278 1.4.2l1 1.33333333c.2666667.35555556.2666667.84444445 0 1.2l-.55.73333337.55.7333333c.3313708.4418278.2418278 1.0686292-.2 1.4s-1.06862915.2418278-1.4-.2l-1-1.3333333c-.26666667-.3555556-.26666667-.8444445 0-1.2zm4-1-.55-.73333333c-.3313708-.4418278-.2418278-1.06862915.2-1.4s1.0686292-.2418278 1.4.2l1 1.33333333c.2666667.35555556.2666667.84444445 0 1.2l-.55.73333334.55.73333333c.3313708.4418278.2418278 1.0686292-.2 1.4s-1.0686292.2418278-1.4-.2l-1-1.3333333c-.2666667-.35555559-.2666667-.84444448 0-1.20000003z" fill="#3d3d3d"/></svg>