<svg height="32" viewBox="0 0 32 32" width="32" xmlns="http://www.w3.org/2000/svg"><path d="m13.0598069 15.7656777c.2802711.1495512.6003324.2343223.9401931.2343223 1.1045695 0 2-.8954305 2-2 0-.4415347-.1430789-.8496515-.3854013-1.1805152-.003831-.0052308-.0077651-.0104852-.0118023-.0157633l.0000415-.0000318c-.1677521-.2193124-.1259541-.5330902.0933583-.7008422.0872015-.0667004.1939337-.1028427.30372-.1028475h.0000838c2.209139 0 4 1.790861 4 4s-1.790861 4-4 4-4-1.790861-4-4c0-.0085407.0000574-.017198.0001721-.0259717l.0000703.0000009c.0036106-.2760799.2303445-.49696.5064244-.4933495.1172778.0015338.2302828.044253.3192469.1206848.0809105.0695128.1588749.1242839.2338932.1643132zm2.9401931 6.2343223c3.4748089 0 6.7351345-1.8376352 9.0187028-4.9697756.1272428-.1745261.2980522-.4273336.5124284-.7584224l.0000709.0000459c.1070716-.1653645.1070817-.3781825.0000259-.5435572-.2129801-.3290015-.3826907-.5802877-.5091318-.7538588-2.2837311-3.1349754-5.5455658-4.9744319-9.0220962-4.9744319-3.4643303 0-6.71546903 1.8265688-8.99801734 4.9414753-.13219686.180404-.3098107.4426204-.5328415.7866493l.00004617.0000299c-.10723587.1654132-.10725762.3783992-.00005553.5438343.21979937.3391961.3948752.5979037.52522749.7761229 2.28292963 3.1212483 5.53745181 4.9518883 9.00564071 4.9518883zm0-14c4.34499 0 8.2323242 2.3554134 10.8265523 6.0619665.1607385.2296582.3552374.535272.5834968.9168413.3772824.6306798.3782814 1.417471.0026033 2.0491078-.1425901.2397401-.2664518.4384476-.3715852.5961223-2.5917599 3.887017-6.5746131 6.3759621-11.0410672 6.3759621-4.4348301 0-8.39288313-2.4538248-10.98580671-6.2936085-.11915066-.1764467-.26069966-.4023075-.42464701-.6775822-.37659398-.632314-.37548663-1.4203675.00288116-2.0516216.24651202-.4112711.45607146-.7389231.62867832-.982956 2.5940518-3.6674904 6.46043064-5.9942317 10.77889424-5.9942317z" fill="#3d3d3d" fill-rule="evenodd"/></svg>