<svg height="32" viewBox="0 0 32 32" width="32" xmlns="http://www.w3.org/2000/svg"><path d="m6 6v19.5c0 .2761424.22385763.5.5.5h19c.2761424 0 .5-.2238576.5-.5v-19.5zm-1.5-2h23c.2761424 0 .5.22385763.5.5v21.5c0 1.1045695-.8954305 2-2 2h-20c-1.1045695 0-2-.8954305-2-2v-21.5c0-.27614237.22385763-.5.5-.5zm5 14h1c.2761424 0 .5.2238576.5.5v1c0 .2761424-.2238576.5-.5.5h-1c-.27614237 0-.5-.2238576-.5-.5v-1c0-.2761424.22385763-.5.5-.5zm0 4h1c.2761424 0 .5.2238576.5.5v1c0 .2761424-.2238576.5-.5.5h-1c-.27614237 0-.5-.2238576-.5-.5v-1c0-.2761424.22385763-.5.5-.5zm4-8h1c.2761424 0 .5.2238576.5.5v1c0 .2761424-.2238576.5-.5.5h-1c-.2761424 0-.5-.2238576-.5-.5v-1c0-.2761424.2238576-.5.5-.5zm0 4h1c.2761424 0 .5.2238576.5.5v1c0 .2761424-.2238576.5-.5.5h-1c-.2761424 0-.5-.2238576-.5-.5v-1c0-.2761424.2238576-.5.5-.5zm0 4h1c.2761424 0 .5.2238576.5.5v1c0 .2761424-.2238576.5-.5.5h-1c-.2761424 0-.5-.2238576-.5-.5v-1c0-.2761424.2238576-.5.5-.5zm4 0h1c.2761424 0 .5.2238576.5.5v1c0 .2761424-.2238576.5-.5.5h-1c-.2761424 0-.5-.2238576-.5-.5v-1c0-.2761424.2238576-.5.5-.5zm0-8h1c.2761424 0 .5.2238576.5.5v1c0 .2761424-.2238576.5-.5.5h-1c-.2761424 0-.5-.2238576-.5-.5v-1c0-.2761424.2238576-.5.5-.5zm0 4h1c.2761424 0 .5.2238576.5.5v1c0 .2761424-.2238576.5-.5.5h-1c-.2761424 0-.5-.2238576-.5-.5v-1c0-.2761424.2238576-.5.5-.5zm4-4h1c.2761424 0 .5.2238576.5.5v1c0 .2761424-.2238576.5-.5.5h-1c-.2761424 0-.5-.2238576-.5-.5v-1c0-.2761424.2238576-.5.5-.5zm0 4h1c.2761424 0 .5.2238576.5.5v1c0 .2761424-.2238576.5-.5.5h-1c-.2761424 0-.5-.2238576-.5-.5v-1c0-.2761424.2238576-.5.5-.5zm-15.5-8h20v2h-20z" fill="#3d3d3d"/></svg>