<svg height="30" viewBox="0 0 30 30" width="30" xmlns="http://www.w3.org/2000/svg" xmlns:xlink="http://www.w3.org/1999/xlink"><defs><path id="a" d="m9 7h5c1 0 2 0 2 1s-1 1-2 1h-5v5c0 1 0 2-1 2s-1-1-1-2v-5h-5c-1 0-2 0-2-1s1-1 2-1h5v-5c0-1 0-2 1-2s1 1 1 2z"/><mask id="b" fill="#fff"><use fill="#fff" fill-rule="evenodd" xlink:href="#a"/></mask></defs><g fill="none" fill-rule="evenodd" transform="translate(7 7)"><use fill="#000" xlink:href="#a"/><g fill="#3d3d3d" mask="url(#b)"><path d="m0 0h30v30h-30z" transform="translate(-7 -7)"/></g></g></svg>