<svg height="32" viewBox="0 0 32 32" width="32" xmlns="http://www.w3.org/2000/svg"><path d="m25 15.2772818v10.7227182c0 1.1045695-.8954305 2-2 2h-14c-1.1045695 0-2-.8954305-2-2v-10.6810877l-1.1438447 1.1438447c-.19526215.1952622-.51184463.1952622-.70710678 0l-.79549513-.7954951c-.19526215-.1952622-.19526215-.5118446 0-.7071068l10.25304831-10.25304832c.7810486-.78104858 2.0473786-.78104858 2.8284271 0l10.2530484 10.25304832c.1952621.1952622.1952621.5118446 0 .7071068l-.7954952.7954951c-.1952621.1952622-.5118446.1952622-.7071067 0zm-2-2-6.6256313-6.62563137c-.1952622-.19526215-.5118447-.19526215-.7071068 0l-6.6672619 6.66726187v12.1810877c0 .2761424.22385763.5.5.5h3.5v-5c0-1.1045695.8954305-2 2-2h2c1.1045695 0 2 .8954305 2 2v5h3.5c.2761424 0 .5-.2238576.5-.5zm-8 12.7227182h2v-4.5c0-.2761424-.2238576-.5-.5-.5h-1c-.2761424 0-.5.2238576-.5.5z" fill="#3d3d3d" fill-rule="evenodd"/></svg>