<svg height="20" viewBox="0 0 22 20" width="22" xmlns="http://www.w3.org/2000/svg"><path d="m19 12 8 8h-3.5s1.8123269 3.3495845 2.5 5c.1456602.3495845-.0748975.8005886-.3979492.9454346-.3230517.1448459-.8751221.1448459-1.1612549-.2463379 0 0-2.4407959-4.6990967-2.4407959-4.6990967l-3 3zm-13 8h10c.5522847 0 1 .4477153 1 1s-.4477153 1-1 1h-10c-.55228475 0-1-.4477153-1-1s.44771525-1 1-1zm0-7h10c.5522847 0 1 .4477153 1 1s-.4477153 1-1 1h-10c-.55228475 0-1-.4477153-1-1s.44771525-1 1-1zm0-7h18c.5522847 0 1 .44771525 1 1s-.4477153 1-1 1h-18c-.55228475 0-1-.44771525-1-1s.44771525-1 1-1z" fill="#3d3d3d" fill-rule="evenodd" transform="translate(-5 -6)"/></svg>