<svg height="32" viewBox="0 0 32 32" width="32" xmlns="http://www.w3.org/2000/svg"><path d="m6 11.6046911v9.8953089c0 .2761424.22385763.5.5.5h19c.2761424 0 .5-.2238576.5-.5v-9.8946368l-9.4094251 7.1540122c-.3516608.2573562-.829489.2573562-1.1811498 0l-9.38870532-7.1391129c-.00699255-.0051174-.01389924-.0103085-.02071978-.0155714zm18.8075871-1.6046911h-17.61441738c.00290744.0020811.00580743.0041801.00869984.0062968l8.79813044 6.706912zm-18.8075871-2h20c1.1045695 0 2 .8954305 2 2v12c0 1.1045695-.8954305 2-2 2h-20c-1.1045695 0-2-.8954305-2-2v-12c0-1.1045695.8954305-2 2-2z" fill="#3d3d3d"/></svg>