<svg height="32" viewBox="0 0 32 32" width="32" xmlns="http://www.w3.org/2000/svg"><path d="m7.49981691 21c.45610316-.6072234 1.18227417-1 2.00018309-1 .8179089 0 1.5440799.3927766 2.0001831 1h6.9998169c.2761424 0 .5-.2238576.5-.5v-10c0-.2761424-.2238576-.5-.5-.5h-12c-.27614237 0-.5.2238576-.5.5v10c0 .2761424.22385763.5.5.5zm4.45017399 2c-.2316351 1.1411202-1.2405119 2-2.4499909 2-1.20947896 0-2.21835578-.8588798-2.44999094-2h-1.05000906c-1.1045695 0-2-.8954305-2-2v-11c0-1.1045695.8954305-2 2-2h13c1.1045695 0 2 .8954305 2 2v13zm12.5501922-2h.9998169c.2761424 0 .5-.2238576.5-.5v-4.3245926c0-.0838447-.0210847-.1663432-.0613144-.2399062l-1.4631135-2.6754074c-.0876982-.1603624-.2559095-.2600938-.4386855-.2600938h-3.0368866v7.4998169c.4178303-.3138445.937197-.4998169 1.5-.4998169.8179089 0 1.5440799.3927766 2.0001831 1zm.4498078 2c-.2316351 1.1411202-1.2405119 2-2.4499909 2s-2.2183558-.8588798-2.4499909-2h-1.0500091v-12h5.1856058c.6927866 0 1.3362322.358526 1.7007568.9476567l1.8143942 2.9323543c.1956179.3161501.2992432.6805674.2992432 1.0523432v5.0676458c0 1.1045695-.8954305 2-2 2zm-15.4499909 0c.27614237 0 .5-.2238576.5-.5s-.22385763-.5-.5-.5-.5.2238576-.5.5.22385763.5.5.5zm13 0c.2761424 0 .5-.2238576.5-.5s-.2238576-.5-.5-.5-.5.2238576-.5.5.2238576.5.5.5z" fill="#3d3d3d"/></svg>