<svg height="32" viewBox="0 0 32 32" width="32" xmlns="http://www.w3.org/2000/svg"><path d="m17 19.5c0 .2761424-.2238576.5-.5.5h-1c-.2761424 0-.5-.2238576-.5-.5v-2.5h-2.5c-.2761424 0-.5-.2238576-.5-.5v-1c0-.2761424.2238576-.5.5-.5h2.5v-2.5c0-.2761424.2238576-.5.5-.5h1c.2761424 0 .5.2238576.5.5v2.5h2.5c.2761424 0 .5.2238576.5.5v1c0 .2761424-.2238576.5-.5.5h-2.5zm-7.61132495 4.5038491 3.00577365-2.0038491h13.1055513c.2761424 0 .5-.2238576.5-.5v-11c0-.2761424-.2238576-.5-.5-.5h-19c-.27614237 0-.5.2238576-.5.5v11c0 .2761424.22385763.5.5.5h2.5v1.7958365c0 .1380712.11192881.25.25.25.04935625 0 .09760817-.0146095.13867505-.0419874zm-2.38867505 3.0618924v-3.0657415h-1c-1.1045695 0-2-.8954305-2-2v-12c0-1.1045695.8954305-2 2-2h20c1.1045695 0 2 .8954305 2 2v12c0 1.1045695-.8954305 2-2 2h-13l-5.2226499 3.4817666c-.22976435.1531762-.54019902.0910893-.69337525-.138675-.05475584-.0821338-.08397485-.1786377-.08397485-.2773501z" fill="#3d3d3d"/></svg>