<svg height="32" viewBox="0 0 32 32" width="32" xmlns="http://www.w3.org/2000/svg"><path d="m15 25v-2.0708889c-3.3922941-.4852296-6-3.4026392-6-6.9291111v-2.5c.00000797-.2761459.22386203-.5.5-.5l1.0000868.0000868c.2760944 0 .4999132.2238188.4999132.4999132v2.5c0 2.7614237 2.2385763 5 5 5s5-2.2385763 5-5v-2.5c-.0000017-.2761416.2238567-.5.5-.5l1.0000868.0000868c.2760944 0 .4999132.2238188.4999132.4999132v2.5c0 3.5264719-2.6077059 6.4438815-6 6.9291111v2.0708889h3.5c.2761424 0 .5.2238576.5.5v1c0 .2761424-.2238576.5-.5.5h-9c-.2761424 0-.5-.2238576-.5-.5v-1c0-.2761424.2238576-.5.5-.5zm1-18c-1.1045695 0-2 .8954305-2 2v7c0 1.1045695.8954305 2 2 2s2-.8954305 2-2v-7c0-1.1045695-.8954305-2-2-2zm0-2c2.209139 0 4 1.790861 4 4v7c0 2.209139-1.790861 4-4 4s-4-1.790861-4-4v-7c0-2.209139 1.790861-4 4-4z" fill="#3d3d3d" fill-rule="evenodd"/></svg>