<svg height="32" viewBox="0 0 32 32" width="32" xmlns="http://www.w3.org/2000/svg"><path d="m5 16v-7.00001983h.00001983c0-1.10455855.89542162-1.99998017 1.99998017-1.99998017h3l.041438-.00045754c.5356949-.01177289.8509554-.12445451 2.5378376-.85473693 1.78755-.77386335 3.1589978-1.14480553 4.9207244-1.14480553h4.75c1.6279064 0 2.9105195 1.25522863 3.1922399 2.84239311.019481.1097525.0356221.26622563.0484235.4694194l.0000867-.00000547c.0068179.10821947.0486376.21128813.1191527.2936627.1339187.1564418.2324743.28265626.2956668.37864335.3825264.58104312.5944304 1.28269811.5944304 2.01588691 0 .0873491-.0074114.2079696-.0222341.3618616l.0000298.0000029c-.0092184.0957067.0093554.1920416.0534957.2774605.1034037.2001037.1767666.358029.2200888.4737758.1631432.4358809.2486198.9045633.2486198 1.3868992 0 .3998653-.0596095.7907802-.1739605 1.1616705-.0385367.1249911-.1064372.2949847-.2037015.5099807l-.0000598-.0000271c-.0460949.1018896-.0567063.2162898-.0301385.3249193.1052402.4303022.1578603.7647877.1578603 1.0034566 0 1.9910304-1.7346291 3.5-3.75 3.5h-2.5c-.2761424 0-.5.2238576-.5.5v3.5c0 1.7160666-1.0699445 3-3 3-1.5168384 0-2.5354224-1.018584-2.9701425-2.7574644-.4193241-1.4254213-.742381-2.394592-.9398234-2.8278524-.6451157-1.4156191-1.6111228-2.5147937-3.09006744-3.4146832l-2.99998677-.0000201c-1.10455839 0-1.99997989-.8954215-1.99997989-1.9999799z" fill="#3d3d3d"/></svg>