<svg height="32" viewBox="0 0 32 32" width="32" xmlns="http://www.w3.org/2000/svg"><path d="m18 17.7951288-2-1.1546935v-5.9737686c0-.4327405.1403557-.85380769.4-1.20000003l2.6-3.46666667v-1.5c0-.27614237.2238576-.5.5-.5h5c.2761424 0 .5.22385763.5.5v1.5l2.6 3.46666667c.2596443.34619234.4.76725953.4 1.20000003v15.3333333c0 1.1045695-.8954305 2-2 2h-4.697473c.8597039-.5565938 1.659036-1.2249198 2.3747332-2h1.8227398c.2761424 0 .5-.2238576.5-.5v-14.5126543c0-.1033972-.0320553-.2042516-.0917517-.2886751l-1.7588191-2.48734573c-.0937139-.1325316-.2459308-.21132487-.4082482-.21132487h-3.482362c-.1623174 0-.3145343.07879327-.4082482.21132487l-1.7588191 2.48734573c-.0596964.0844235-.0917517.1852779-.0917517.2886751zm-6.1812595 3.3594565c-.8671185-.5006311-1.4902845-1.2894955-1.7931277-2.1935929-.75562791-.4797099-1.26834384-1.2066221-1.49325752-2.0132036l-2.31878335-1.3387501c-.81510057 3.5499142.73543259 7.3528054 4.03818127 9.2596483 3.3027488 1.9068428 7.3714157 1.3481983 10.0381814-1.1326566l-4.4705276-2.5810603c-1.1967608.689613-2.7184598.7398976-4.0006665-.0003848zm3.7320508-2.4641016 7.3148991 4.223233c.2391571.1380774.3210983.4438863.1830209.6830434-.007677.013297-.0159624.0262333-.0248298.0387678-.1098004.1552079-.2024084.2807281-.2778239.3765605-3.1759674 4.0357799-8.9165881 5.2315951-13.49430436 2.5886494-4.58312695-2.6460696-6.41675358-8.2255464-4.498538-12.9976397.04389232-.1091943.10398056-.2465768.18026472-.4121473l-.00005292-.0000244c.11556705-.2508319.41259208-.3604857.66342398-.2449187.01390819.006408.02751469.0134515.04077648.0211082l4.7909292 2.7660442c-.1129677.6075022.159511 1.2467943.7251203 1.573349.2128917.1229131.4433895.1877084.6731216.1993087-.0693581.7532967.293835 1.5136645.9919419 1.9167167.9565853.5522848 2.1797661.2245345 2.7320508-.7320508zm-3.7990381 3.580127c.2391464.1380712.3210839.4438664.1830127.6830127l-.5.8660254c-.1380711.2391464-.4438663.3210839-.6830127.1830127-.2391463-.1380711-.3210838-.4438663-.1830127-.6830127l.5-.8660254c.1380712-.2391463.4438664-.3210838.6830127-.1830127zm-2.40898529-3.2919811c.07147091.2667331-.08682034.5409016-.35355339.6123725l-.96592582.258819c-.26673306.0714709-.54090153-.0868203-.61237244-.3535534-.07147091-.266733.08682034-.5409015.35355339-.6123724l.96592583-.2588191c.26673305-.0714709.54090153.0868204.61237243.3535534zm6.56948379 3.7928932c.266733-.0714709.5409015.0868204.6123724.3535534l.2588191.9659259c.0714709.266733-.0868204.5409015-.3535534.6123724-.2667331.0714709-.5409016-.0868203-.6123725-.3535534l-.258819-.9659258c-.0714709-.2667331.0868203-.5409015.3535534-.6123725z" fill="#3d3d3d"/></svg>