<svg height="32" viewBox="0 0 32 32" width="32" xmlns="http://www.w3.org/2000/svg"><path d="m6 10.5v11c0 .2761424.22385763.5.5.5h19c.2761424 0 .5-.2238576.5-.5v-11c0-.2761424-.2238576-.5-.5-.5h-19c-.27614237 0-.5.2238576-.5.5zm0-2.5h20c1.1045695 0 2 .8954305 2 2v12c0 1.1045695-.8954305 2-2 2h-20c-1.1045695 0-2-.8954305-2-2v-12c0-1.1045695.8954305-2 2-2zm3.5 5h1c.2761424 0 .5.2238576.5.5v5c0 .2761424-.2238576.5-.5.5h-1c-.27614237 0-.5-.2238576-.5-.5v-5c0-.2761424.22385763-.5.5-.5zm4 0h1c.2761424 0 .5.2238576.5.5v3c0 .2761424-.2238576.5-.5.5h-1c-.2761424 0-.5-.2238576-.5-.5v-3c0-.2761424.2238576-.5.5-.5zm4 0h1c.2761424 0 .5.2238576.5.5v5c0 .2761424-.2238576.5-.5.5h-1c-.2761424 0-.5-.2238576-.5-.5v-5c0-.2761424.2238576-.5.5-.5zm4 0h1c.2761424 0 .5.2238576.5.5v5c0 .2761424-.2238576.5-.5.5h-1c-.2761424 0-.5-.2238576-.5-.5v-5c0-.2761424.2238576-.5.5-.5z" fill="#3d3d3d"/></svg>