<svg height="21" viewBox="0 0 17 21" width="17" xmlns="http://www.w3.org/2000/svg"><g fill="none" fill-rule="evenodd"><path d="m9.35743011 2.47033897 8.80813219 15.09533433c.2672061.4579365.1125886 1.0457808-.345348 1.3129869-.146843.085683-.3138065.1308326-.4838195.1308326h-17.61626437c-.53019336 0-.96-.4298067-.96-.96 0-.1700131.0451496-.3369765.13083252-.4838195l8.8081322-15.09533433c.26720612-.45793655.8550504-.61255412 1.31298696-.345348.14296308.083419.261929.20238492.345348.345348z" fill="#00d4ff" transform="matrix(0 1 -1 0 19.030089 1.973407)"/><path d="m12.5419841 13.6752041-12.3421713-12.54034353c.17418398-.24299967.4589941-.40132332.78078268-.40132332.17001302 0 .33697649.04514959.48381948.13083252l15.09533434 8.80813219c.4579365.26720612.6125541.85505044.345348 1.31298694-.083419.1429631-.202385.261929-.345348.345348z" fill="#00f076"/><path d="m.23254661 19.9116932 12.35724709-12.55566152 3.9699556 2.31647028c.4579365.26720612.6125541.85505044.345348 1.31298694-.083419.1429631-.202385.261929-.345348.345348l-15.09533434 8.8081322c-.41600584.2427396-.93921871.1373669-1.23186835-.2272759z" fill="#fa3646"/><path d="m9.45864858 10.529475 3.13356082-3.18387492 3.9699555 2.31647028c.4579366.26720612.6125542.85505044.345348 1.31298694-.083419.1429631-.2023849.261929-.345348.345348l-4.0177652 2.3443672z" fill="#fc0"/></g></svg>