<svg height="757" viewBox="0 0 772 757" width="772" xmlns="http://www.w3.org/2000/svg" xmlns:xlink="http://www.w3.org/1999/xlink"><defs><rect id="a" height="433" rx="8" width="440"/><filter id="b" height="106.9%" width="106.8%" x="-3.4%" y="-3.5%"><feOffset dx="0" dy="0" in="SourceAlpha" result="shadowOffsetOuter1"/><feGaussianBlur in="shadowOffsetOuter1" result="shadowBlurOuter1" stdDeviation="5"/><feColorMatrix in="shadowBlurOuter1" type="matrix" values="0 0 0 0 0.239215686   0 0 0 0 0.239215686   0 0 0 0 0.239215686  0 0 0 0.2 0"/></filter><circle id="c" cx="20" cy="20" r="20"/><path id="d" d="m3.49981691 13c.45610316-.6072234 1.18227417-1 2.00018309-1s1.54407993.3927766 2.00018309 1h6.99981691c.2761424 0 .5-.2238576.5-.5v-10c0-.27614237-.2238576-.5-.5-.5h-12c-.27614237 0-.5.22385763-.5.5v10c0 .2761424.22385763.5.5.5zm4.45017403 2c-.23163516 1.1411202-1.24051198 2-2.44999094 2s-2.21835578-.8588798-2.44999094-2h-1.05000906c-1.1045695 0-2-.8954305-2-2v-11c0-1.1045695.8954305-2 2-2h13c1.1045695 0 2 .8954305 2 2v13zm12.55019216-2h.9998169c.2761424 0 .5-.2238576.5-.5v-4.3245926c0-.08384472-.0210847-.16634323-.0613144-.23990617l-1.4631135-2.6754074c-.0876982-.16036242-.2559095-.26009383-.4386855-.26009383h-3.0368866v7.4998169c.4178303-.3138445.937197-.4998169 1.5-.4998169.8179089 0 1.5440799.3927766 2.0001831 1zm.4498078 2c-.2316351 1.1411202-1.2405119 2-2.4499909 2s-2.2183558-.8588798-2.4499909-2h-1.0500091v-12h5.1856058c.6927866 0 1.3362322.35852598 1.7007568.94765674l1.8143942 2.93235423c.1956179.31615017.2992432.68056739.2992432 1.05234327v5.06764576c0 1.1045695-.8954305 2-2 2zm-15.4499909 0c.27614237 0 .5-.2238576.5-.5s-.22385763-.5-.5-.5-.5.2238576-.5.5.22385763.5.5.5zm13 0c.2761424 0 .5-.2238576.5-.5s-.2238576-.5-.5-.5-.5.2238576-.5.5.2238576.5.5.5z"/><ellipse id="e" cx="20.054496" cy="20" rx="20.054496" ry="20"/><path id="f" d="m17 15h2.5c.2761424 0 .5.2238576.5.5v1c0 .2761424-.2238576.5-.5.5h-3.5c-.5522847 0-1-.4477153-1-1v-5.5c0-.2761424.2238576-.5.5-.5h1c.2761424 0 .5.2238576.5.5zm-1 13c-6.627417 0-12-5.372583-12-12s5.372583-12 12-12 12 5.372583 12 12-5.372583 12-12 12zm0-2c5.5228475 0 10-4.4771525 10-10s-4.4771525-10-10-10-10 4.4771525-10 10 4.4771525 10 10 10z"/><path id="g" d="m4 0h384c2.209139 0 4 1.790861 4 4v77c0 2.209139-1.790861 4-4 4h-384c-2.209139 0-4-1.790861-4-4v-77c0-2.209139 1.790861-4 4-4z"/><rect id="h" height="40" rx="4" width="188"/><path id="i" d="m9.2807765 8.04333964 6.1871843 6.18718436c.3417088.3417087.3417088.8957281 0 1.2374368-.3417087.3417088-.8957281.3417088-1.2374368 0l-6.18718436-6.1871843-6.18718434 6.1871843c-.34170875.3417088-.89572811.3417088-1.23743687 0-.34170875-.3417087-.34170875-.8957281 0-1.2374368l6.18718434-6.18718436-6.18718434-6.18718434c-.34170875-.34170875-.34170875-.89572811 0-1.23743687.34170876-.34170875.89572812-.34170875 1.23743687 0l6.18718434 6.18718434 6.18718436-6.18718434c.3417087-.34170875.8957281-.34170875 1.2374368 0 .3417088.34170876.3417088.89572812 0 1.23743687z"/><mask id="j" fill="#fff"><use fill="#fff" fill-rule="evenodd" xlink:href="#c"/></mask><mask id="k" fill="#fff"><use fill="#fff" fill-rule="evenodd" xlink:href="#d"/></mask><mask id="l" fill="#fff"><use fill="#fff" fill-rule="evenodd" xlink:href="#e"/></mask><mask id="m" fill="#fff"><use fill="#fff" fill-rule="evenodd" xlink:href="#f"/></mask><mask id="n" fill="#fff"><use fill="#fff" fill-rule="evenodd" xlink:href="#g"/></mask><mask id="o" fill="#fff"><use fill="#fff" fill-rule="evenodd" xlink:href="#h"/></mask><mask id="p" fill="#fff"><rect fill="#fff" fill-rule="evenodd" height="40" rx="4" width="189"/></mask><mask id="q" fill="#fff"><use fill="#fff" fill-rule="evenodd" xlink:href="#i"/></mask></defs><g fill="none" fill-rule="evenodd"><path d="m.5.5h771v756h-771z" fill="#3d3d3d" fill-opacity=".5" stroke="#767676"/><g transform="translate(164 162)"><use fill="#000" filter="url(#b)" xlink:href="#a"/><use fill="#fff" fill-rule="evenodd" xlink:href="#a"/><text fill="#3d3d3d" font-family="SourceSansPro-Regular, Source Sans Pro" font-size="16" letter-spacing=".200000003"><tspan x="80" y="136">100 My Street</tspan> <tspan x="80" y="156">Sutton-under-Whitestonecliff</tspan> <tspan x="80" y="176">SW105LQ</tspan></text><g transform="translate(24 120)"><use fill="#eee" xlink:href="#c"/><g mask="url(#j)"><g fill="#3d3d3d" transform="translate(8 12)"><use fill-rule="nonzero" xlink:href="#d"/><g mask="url(#k)"><path d="m0 0h32v32h-32z" transform="translate(-4 -8)"/></g></g></g></g><text fill="#3d3d3d" font-family="SourceSansPro-Regular, Source Sans Pro" font-size="16" letter-spacing=".200000003"><tspan x="80" y="212">Thursday, 9 November 2017</tspan> <tspan x="80" y="232">9:30pm - 10:30pm</tspan></text><g transform="translate(24 196)"><use fill="#78be20" xlink:href="#e"/><g fill="#eee" mask="url(#l)"><path d="m0 0h40v40h-40z"/></g><g mask="url(#l)"><g transform="translate(4 4)"><use fill="#979797" fill-rule="nonzero" xlink:href="#f"/><g fill="none" fill-rule="evenodd" mask="url(#m)"><path d="m0 0h32v32h-32z" fill="#3d3d3d"/></g></g></g></g><g transform="translate(24 260)"><use fill="#f7cc00" fill-opacity=".2" fill-rule="evenodd" stroke="#f7cc00" stroke-width="2" xlink:href="#g"/><g fill="#3d3d3d" letter-spacing=".2"><text font-family="SourceSansPro-Semibold, Source Sans Pro" font-size="16" font-weight="500" mask="url(#n)"><tspan x="16" y="28">Your slot is reserved until midnight</tspan></text><text font-family="SourceSansPro-Regular, Source Sans Pro" font-size="14" mask="url(#n)"><tspan x="16" y="51">We have reserved your slot until midnight. Orders placed </tspan><tspan x="16" y="67">after midnight will require a new slot.</tspan></text></g></g><g transform="translate(228 369)"><use fill="#68a51c" xlink:href="#h"/><g fill="#68a51c" mask="url(#o)"><path d="m0 0h188v40h-188z"/></g><text style="font-family:SourceSansPro-Semibold, Source Sans Pro;font-size:18;font-weight:500;letter-spacing:.200000003;fill:#fff;mask:url(#o)"><tspan x="19.049" y="26">Continue shopping</tspan></text></g><g transform="translate(24 369)"><rect height="39" rx="4" stroke="#68a51c" width="188" x=".5" y=".5"/><text style="font-family:SourceSansPro-Semibold, Source Sans Pro;font-size:18;font-weight:500;letter-spacing:.200000003;fill:#68a51c;mask:url(#p)"><tspan x="48.301" y="26">Change slot</tspan></text></g><g fill="#3d3d3d"><text font-family="SourceSansPro-Semibold, Source Sans Pro" font-size="22" font-weight="500" letter-spacing=".3"><tspan x="24" y="46">Delivery slot reserved</tspan></text><text font-family="SourceSansPro-Regular, Source Sans Pro" font-size="16" letter-spacing=".200000003"><tspan x="24" y="92">The details for your reserved slot are:</tspan></text><g transform="translate(400.125 30.125)"><use xlink:href="#i"/><g mask="url(#q)"><path d="m0 0h28v28h-28z" transform="translate(-6.125 -6.125)"/></g></g></g></g><g fill-opacity=".2"><path d="m0 0h16v757h-16z" fill="#68a51c"/><g fill="#d43030"><path d="m94 0h16v757h-16z"/><path d="m188 0h16v757h-16z"/><path d="m282 0h16v757h-16z"/><path d="m376 0h16v757h-16z"/><path d="m470 0h16v757h-16z"/><path d="m564 0h16v757h-16z"/><path d="m658 0h16v757h-16z"/></g><path d="m752 0h16v757h-16z" fill="#68a51c"/></g></g></svg>