<svg height="640" viewBox="0 0 364 640" width="364" xmlns="http://www.w3.org/2000/svg" xmlns:xlink="http://www.w3.org/1999/xlink"><defs><rect id="a" height="289" rx="8" width="344"/><filter id="b" height="110.4%" width="108.7%" x="-4.4%" y="-5.2%"><feOffset dx="0" dy="0" in="SourceAlpha" result="shadowOffsetOuter1"/><feGaussianBlur in="shadowOffsetOuter1" result="shadowBlurOuter1" stdDeviation="5"/><feColorMatrix in="shadowBlurOuter1" type="matrix" values="0 0 0 0 0.239215686   0 0 0 0 0.239215686   0 0 0 0 0.239215686  0 0 0 0.2 0"/></filter><path id="c" d="m32 56c-13.254834 0-24-10.745166-24-24s10.745166-24 24-24 24 10.745166 24 24-10.745166 24-24 24zm0-4c11.045695 0 20-8.954305 20-20s-8.954305-20-20-20-20 8.954305-20 20 8.954305 20 20 20zm0-3c-4 0-8-1.6666667-12-5 2.737139-2.4898578 8.625-2.6980619 8.625-6.1918945 0 0-3.375-3.375-3.375-9.5581055 0-3.7177734 3.0322266-6.75 6.75-6.75s6.75 3.0322266 6.75 6.75c0 6.1831055-3.375 9.5581055-3.375 9.5581055 0 3.5094318 5.9058093 3.66942 8.625 6.1918945-4 3.3333333-8 5-12 5z"/><rect id="d" height="40" rx="4" width="148"/><mask id="e" fill="#fff"><use fill="#fff" fill-rule="evenodd" xlink:href="#c"/></mask><mask id="f" fill="#fff"><use fill="#fff" fill-rule="evenodd" xlink:href="#d"/></mask><mask id="g" fill="#fff"><rect fill="#fff" fill-rule="evenodd" height="40" rx="4" width="148"/></mask></defs><g fill="none" fill-rule="evenodd"><path d="m2.5.5h359v639h-359z" fill="#3d3d3d" fill-opacity=".5" stroke="#979797"/><g transform="translate(10 173)"><use fill="#000" filter="url(#b)" xlink:href="#a"/><use fill="#fff" fill-rule="evenodd" xlink:href="#a"/><g fill-rule="evenodd" transform="translate(140 32)"><use fill="#68a51c" xlink:href="#c"/><g fill="#3d3d3d" mask="url(#e)"><path d="m0 0h60v60h-60z" transform="translate(2 2)"/></g></g><g transform="translate(180 225)"><use fill="#68a51c" xlink:href="#d"/><g fill="#68a51c" mask="url(#f)"><path d="m0 0h148v40h-148z"/></g><text style="font-family:SourceSansPro-Semibold, Source Sans Pro;font-size:18;font-weight:500;letter-spacing:.200000003;fill:#fff;mask:url(#f)"><tspan x="37.821" y="26">Continue</tspan></text></g><g transform="translate(16 225)"><rect height="39" rx="4" stroke="#68a51c" width="147" x=".5" y=".5"/><text style="font-family:SourceSansPro-Semibold, Source Sans Pro;font-size:18;font-weight:500;letter-spacing:.200000003;fill:#68a51c;mask:url(#g)"><tspan x="31.294" y="26">Contact Us</tspan></text></g><g fill="#3d3d3d"><text font-family="SourceSansPro-Semibold, Source Sans Pro" font-size="22" font-weight="500" letter-spacing=".3"><tspan x="126.696" y="119">Brief title</tspan></text><text font-family="SourceSansPro-Regular, Source Sans Pro" font-size="16" letter-spacing=".200000003"><tspan x="33.284" y="157">Lorem ipsum dolor sit amet, consectetur </tspan><tspan x="38.92" y="177">adipiscing elit, sed do eiusmod tempor </tspan><tspan x="44.004" y="197">incididunt ut labore et dolore magna.</tspan></text></g></g><g fill-opacity=".2"><path d="m2 0h16v640h-16z" fill="#68a51c"/><g fill="#d43030"><path d="m84 0h16v640h-16z"/><path d="m174 0h16v640h-16z"/><path d="m264 0h16v640h-16z"/></g><path d="m346 0h16v640h-16z" fill="#68a51c"/></g></g></svg>