<svg height="912" viewBox="0 0 772 912" width="772" xmlns="http://www.w3.org/2000/svg" xmlns:xlink="http://www.w3.org/1999/xlink"><defs><rect id="a" height="504" rx="8" width="440"/><filter id="b" height="106%" width="106.8%" x="-3.4%" y="-3%"><feOffset dx="0" dy="0" in="SourceAlpha" result="shadowOffsetOuter1"/><feGaussianBlur in="shadowOffsetOuter1" result="shadowBlurOuter1" stdDeviation="5"/><feColorMatrix in="shadowBlurOuter1" type="matrix" values="0 0 0 0 0.239215686   0 0 0 0 0.239215686   0 0 0 0 0.239215686  0 0 0 0.2 0"/></filter><rect id="c" height="40" rx="4" width="392"/><path id="d" d="m9.2807765 8.04333964 6.1871843 6.18718436c.3417088.3417087.3417088.8957281 0 1.2374368-.3417087.3417088-.8957281.3417088-1.2374368 0l-6.18718436-6.1871843-6.18718434 6.1871843c-.34170875.3417088-.89572811.3417088-1.23743687 0-.34170875-.3417087-.34170875-.8957281 0-1.2374368l6.18718434-6.18718436-6.18718434-6.18718434c-.34170875-.34170875-.34170875-.89572811 0-1.23743687.34170876-.34170875.89572812-.34170875 1.23743687 0l6.18718434 6.18718434 6.18718436-6.18718434c.3417087-.34170875.8957281-.34170875 1.2374368 0 .3417088.34170876.3417088.89572812 0 1.23743687z"/><mask id="e" fill="#fff"><use fill="#fff" fill-rule="evenodd" xlink:href="#c"/></mask><mask id="f" fill="#fff"><use fill="#fff" fill-rule="evenodd" xlink:href="#d"/></mask></defs><g fill="none" fill-rule="evenodd"><path d="m.5.5v911h771v-911z" fill="#3d3d3d" fill-opacity=".5" stroke="#767676"/><g transform="translate(164 164)"><use fill="#000" filter="url(#b)" xlink:href="#a"/><use fill="#fff" fill-rule="evenodd" xlink:href="#a"/><text style="font-family:SourceSansPro-Semibold, Source Sans Pro;font-size:16;font-weight:500;letter-spacing:.2;fill:#0073b1;text-decoration:underline"><tspan x="149" y="412">terms and conditions.</tspan></text><g transform="translate(24 440)"><use fill="#68a51c" xlink:href="#c"/><g fill="#68a51c" mask="url(#e)"><path d="m0 0h392v40h-392z"/></g><text style="font-family:SourceSansPro-Semibold, Source Sans Pro;font-size:18;font-weight:500;letter-spacing:.200000003;fill:#fff;mask:url(#e)"><tspan x="159.821" y="26">Continue</tspan></text></g><g fill="#3d3d3d"><text font-family="SourceSansPro-Semibold, Source Sans Pro" font-size="22" font-weight="500" letter-spacing=".3"><tspan x="24" y="46">Brief Title</tspan></text><g transform="translate(400.125 30.125)"><use xlink:href="#d"/><g mask="url(#f)"><path d="m0 0h28v28h-28z" transform="translate(-6.125 -6.125)"/></g></g><text font-family="SourceSansPro-Semibold, Source Sans Pro" font-size="16" font-weight="500" letter-spacing=".200000003"><tspan x="24" y="92">Lorem ipsum dolor sit amet, consectetur adipiscing elit, </tspan><tspan x="24" y="112">sed do eiusmod tempor incididunt ut labore et dolore </tspan><tspan x="24" y="132">magna aliqua. Ut enim ad minim veniam, quis nostrud </tspan><tspan x="24" y="152">exercitation ullamco laboris nisi ut aliquip ex ea </tspan><tspan x="24" y="172">commodo consequat. </tspan><tspan x="179.368" y="172"/><tspan x="24" y="192"/><tspan font-family="SourceSansPro-Regular, Source Sans Pro" font-weight="normal" x="24" y="212">Duis aute irure dolor in reprehenderit in voluptate velit </tspan><tspan font-family="SourceSansPro-Regular, Source Sans Pro" font-weight="normal" x="24" y="232">esse cillum dolore eu fugiat nulla pariatur. Excepteur sint </tspan><tspan font-family="SourceSansPro-Regular, Source Sans Pro" font-weight="normal" x="24" y="252">occaecat cupidatat non proident, sunt in culpa qui officia </tspan><tspan font-family="SourceSansPro-Regular, Source Sans Pro" font-weight="normal" x="24" y="272">deserunt mollit anim id est laborum.</tspan> <tspan x="24" y="292"/><tspan font-family="SourceSansPro-Regular, Source Sans Pro" font-weight="normal" x="24" y="312">Sed ut perspiciatis unde omnis iste natus error sit </tspan><tspan font-family="SourceSansPro-Regular, Source Sans Pro" font-weight="normal" x="24" y="332">voluptatem accusantium doloremque laudantium, totam </tspan><tspan font-family="SourceSansPro-Regular, Source Sans Pro" font-weight="normal" x="24" y="352">rem aperiam, eaque ipsa quae ab illo inventore veritatis </tspan><tspan font-family="SourceSansPro-Regular, Source Sans Pro" font-weight="normal" x="24" y="372">et quasi architecto beatae vitae dicta sunt explicabo. </tspan><tspan x="24" y="392"/><tspan font-family="SourceSansPro-Regular, Source Sans Pro" font-weight="normal" x="24" y="412">Click here to view</tspan></text></g></g><g fill-opacity=".2"><path d="m0 0h16v912h-16z" fill="#68a51c"/><g fill="#d43030"><path d="m94 0h16v912h-16z"/><path d="m188 0h16v912h-16z"/><path d="m282 0h16v912h-16z"/><path d="m376 0h16v912h-16z"/><path d="m470 0h16v912h-16z"/><path d="m564 0h16v912h-16z"/><path d="m658 0h16v912h-16z"/></g><path d="m752 0h16v912h-16z" fill="#68a51c"/></g></g></svg>