<svg height="644" viewBox="0 0 765 644" width="765" xmlns="http://www.w3.org/2000/svg" xmlns:xlink="http://www.w3.org/1999/xlink"><defs><rect id="a" height="624" rx="8" width="344"/><filter id="b" height="104.8%" width="108.7%" x="-4.4%" y="-2.4%"><feOffset dx="0" dy="0" in="SourceAlpha" result="shadowOffsetOuter1"/><feGaussianBlur in="shadowOffsetOuter1" result="shadowBlurOuter1" stdDeviation="5"/><feColorMatrix in="shadowBlurOuter1" type="matrix" values="0 0 0 0 0.239215686   0 0 0 0 0.239215686   0 0 0 0 0.239215686  0 0 0 0.2 0"/></filter><rect id="c" height="40" rx="4" width="148"/><rect id="d" height="20" rx="2" width="20"/><path id="e" d="m8 0h328c4.418278 0 8 3.581722 8 8v68h-344v-68c0-4.418278 3.581722-8 8-8z"/><filter id="f" height="118.4%" width="104.1%" x="-2%" y="-6.6%"><feOffset dx="0" dy="2" in="SourceAlpha" result="shadowOffsetOuter1"/><feGaussianBlur in="shadowOffsetOuter1" result="shadowBlurOuter1" stdDeviation="2"/><feComposite in="shadowBlurOuter1" in2="SourceAlpha" operator="out" result="shadowBlurOuter1"/><feColorMatrix in="shadowBlurOuter1" type="matrix" values="0 0 0 0 0   0 0 0 0 0   0 0 0 0 0  0 0 0 0.1 0"/></filter><path id="g" d="m9.2807765 8.04333964 6.1871843 6.18718436c.3417088.3417087.3417088.8957281 0 1.2374368-.3417087.3417088-.8957281.3417088-1.2374368 0l-6.18718436-6.1871843-6.18718434 6.1871843c-.34170875.3417088-.89572811.3417088-1.23743687 0-.34170875-.3417087-.34170875-.8957281 0-1.2374368l6.18718434-6.18718436-6.18718434-6.18718434c-.34170875-.34170875-.34170875-.89572811 0-1.23743687.34170876-.34170875.89572812-.34170875 1.23743687 0l6.18718434 6.18718434 6.18718436-6.18718434c.3417087-.34170875.8957281-.34170875 1.2374368 0 .3417088.34170876.3417088.89572812 0 1.23743687z"/><path id="h" d="m8 0h328c4.418278 0 8 3.581722 8 8v80h-344v-80c0-4.418278 3.581722-8 8-8z"/><filter id="i" height="115.9%" width="104.1%" x="-2%" y="-5.7%"><feOffset dx="0" dy="2" in="SourceAlpha" result="shadowOffsetOuter1"/><feGaussianBlur in="shadowOffsetOuter1" result="shadowBlurOuter1" stdDeviation="2"/><feComposite in="shadowBlurOuter1" in2="SourceAlpha" operator="out" result="shadowBlurOuter1"/><feColorMatrix in="shadowBlurOuter1" type="matrix" values="0 0 0 0 0   0 0 0 0 0   0 0 0 0 0  0 0 0 0.1 0"/></filter><rect id="j" height="40" rx="4" width="296"/><mask id="k" fill="#fff"><rect fill="#fff" fill-rule="evenodd" height="624" rx="8" width="344"/></mask><mask id="l" fill="#fff"><use fill="#fff" fill-rule="evenodd" xlink:href="#c"/></mask><mask id="m" fill="#fff"><use fill="#fff" fill-rule="evenodd" xlink:href="#d"/></mask><mask id="n" fill="#fff"><path d="m3.27665043 1.50888348-2.20970869 2.20970869c-.24407768.24407768-.6398058.24407768-.88388348 0s-.24407768-.6398058 0-.88388348l2.65165043-2.65165043c.24407768-.24407768.6398058-.24407768.88388348 0l6.18718433 6.18718434c.2440777.24407768.2440777.63980579 0 .88388347-.24407768.24407769-.63980579.24407769-.88388347 0z" fill="#fff" fill-rule="evenodd"/></mask><mask id="o" fill="#fff"><use fill="#fff" fill-rule="evenodd" xlink:href="#g"/></mask><mask id="p" fill="#fff"><use fill="#fff" fill-rule="evenodd" xlink:href="#j"/></mask></defs><g fill="none" fill-rule="evenodd" transform="translate(2 2)"><path d="m.5.5h359v639h-359z" fill="#3d3d3d" fill-opacity=".5" stroke="#979797"/><g transform="translate(8 8)"><use fill="#000" filter="url(#b)" xlink:href="#a"/><g fill-rule="evenodd"><use fill="#fff" xlink:href="#a"/><g mask="url(#k)"><g transform="translate(0 5)"><g transform="translate(16 334)"><text fill="#3d3d3d" font-family="SourceSansPro-Semibold, Source Sans Pro" font-size="16" font-weight="500" letter-spacing=".2"><tspan x="0" y="16">Billing address</tspan></text><text fill="#d43030" font-family="SourceSansPro-Regular, Source Sans Pro" font-size="12" letter-spacing=".100000001"><tspan x="0" y="112">Sorry, we can't find any addresses related to that </tspan><tspan x="0" y="128">postcode. Please enter manually.</tspan></text><g transform="translate(0 36)"><rect fill="#fff" fill-rule="evenodd" height="39" rx="4" stroke="#ccc" transform="translate(0 20)" width="147" x=".5" y=".5"/><g fill="#3d3d3d" font-family="SourceSansPro-Regular, Source Sans Pro"><text font-size="16" letter-spacing=".200000003"><tspan x="12" y="46">NW16XE</tspan></text><text font-size="14" letter-spacing=".2"><tspan x="0" y="14">Postcode</tspan></text></g></g><g transform="translate(0 300)"><rect fill="#fff" fill-rule="evenodd" height="39" rx="4" stroke="#ccc" transform="translate(0 20)" width="311" x=".5" y=".5"/><text/><text fill="#3d3d3d" font-family="SourceSansPro-Regular, Source Sans Pro" font-size="14" letter-spacing=".2"><tspan x="0" y="14">City or town</tspan></text></g><g transform="translate(0 148)"><rect fill="#fff" fill-rule="evenodd" height="39" rx="4" stroke="#ccc" transform="translate(0 20)" width="311" x=".5" y=".5"/><text/><text fill="#3d3d3d" font-family="SourceSansPro-Regular, Source Sans Pro" font-size="14" letter-spacing=".2"><tspan x="0" y="14">Address line 1</tspan></text></g><g transform="translate(0 224)"><rect fill="#fff" fill-rule="evenodd" height="39" rx="4" stroke="#ccc" transform="translate(0 20)" width="311" x=".5" y=".5"/><text/><text fill="#3d3d3d" font-family="SourceSansPro-Regular, Source Sans Pro" font-size="14" letter-spacing=".2"><tspan x="0" y="14">Address line 2</tspan></text></g><g transform="translate(164 56)"><use fill="#68a51c" xlink:href="#c"/><g fill="#68a51c" mask="url(#l)"><path d="m0 0h148v40h-148z"/></g><text style="font-family:SourceSansPro-Semibold, Source Sans Pro;font-size:18;font-weight:500;letter-spacing:.200000003;fill:#fff;mask:url(#l)"><tspan x="56.536" y="26">Find</tspan></text></g></g><text fill="#3d3d3d" font-family="SourceSansPro-Semibold, Source Sans Pro" font-size="16" font-weight="500" letter-spacing=".2"><tspan x="16" y="16">Card Details</tspan></text><g transform="translate(16 36)"><rect fill="#fff" fill-rule="evenodd" height="39" rx="4" stroke="#ccc" transform="translate(0 20)" width="311" x=".5" y=".5"/><g fill="#3d3d3d" font-family="SourceSansPro-Regular, Source Sans Pro"><text font-size="16" letter-spacing=".200000003"><tspan x="12" y="46">Jane Doe</tspan></text><text font-size="14" letter-spacing=".2"><tspan x="0" y="14">Name on card</tspan></text></g></g><g transform="translate(16 188)"><rect fill="#fff" fill-rule="evenodd" height="39" rx="4" stroke="#ccc" transform="translate(0 20)" width="147" x=".5" y=".5"/><g fill="#3d3d3d" font-family="SourceSansPro-Regular, Source Sans Pro"><text font-size="16" letter-spacing=".200000003"><tspan x="12" y="46">12 / 30</tspan></text><text font-size="14" letter-spacing=".2"><tspan x="0" y="14">Expiry date</tspan></text></g></g><g transform="translate(16 264)"><text fill="#3d3d3d" font-family="SourceSansPro-Regular, Source Sans Pro" font-size="14" letter-spacing=".2"><tspan x="28" y="16">Save this card for future shops</tspan></text><g fill-rule="evenodd"><use fill="#d8d8d8" xlink:href="#d"/><g fill="#68a51c" mask="url(#m)"><path d="m0 0h20v20h-20z"/></g><g mask="url(#m)"><g transform="translate(5 6.25)"><path d="m.71338835 3.36503878 2.56326208-2.56326208 6.09879599 6.09879598c.04881553.04881554.12796116.04881554.17677669 0 .04881554-.04881553.04881554-.12796116 0-.17677669l-6.18718433-6.18718434c-.04881554-.04881553-.12796116-.04881553-.1767767 0l-2.65165043 2.65165043c-.04881553.04881554-.04881553.12796116 0 .1767767.04881554.04881553.12796116.04881553.1767767 0z" stroke="#3d3d3d"/><g fill="#fff" mask="url(#n)"><path d="m0 0h20v20h-20z" transform="matrix(-1 0 0 -1 15 13.75)"/></g></g></g></g></g><path d="m0 308h344v1h-344z" fill="#ccc"/><g transform="translate(180 188)"><rect fill="#fff" fill-rule="evenodd" height="39" rx="4" stroke="#ccc" transform="translate(0 20)" width="147" x=".5" y=".5"/><g fill="#3d3d3d" font-family="SourceSansPro-Regular, Source Sans Pro"><text font-size="16" letter-spacing=".200000003"><tspan x="12" y="46">•••</tspan></text><text font-size="14" letter-spacing=".2"><tspan x="0" y="14">CVV number</tspan></text></g></g><g transform="translate(16 112)"><rect fill="#fff" height="39" rx="4" stroke="#ccc" transform="translate(0 20)" width="311" x=".5" y=".5"/><text fill="#3d3d3d" font-family="SourceSansPro-Regular, Source Sans Pro" font-size="16" letter-spacing=".200000003"><tspan x="56" y="46">1234 1234 1234 1234</tspan></text><g transform="translate(12 24)"><rect fill="#007ecd" height="22" rx="2" width="32" y="5"/><path d="m10.7208319 19h-1.25228269l-.49780183-1.3628922h-2.27899899l-.47057829 1.3628922h-1.2211701l2.22066283-6h1.21728103zm-2.11954681-2.3738063-.78559351-2.2264666-.7700372 2.2264666zm2.71457561 2.3738063v-6h1.722861l1.0344944 4.0927694 1.0228272-4.0927694h1.7267501v6h-1.0694961v-4.7230559l-1.1317214 4.7230559h-1.1083869l-1.1278322-4.7230559v4.7230559zm6.6503212 0v-6h4.2274265v1.0150068h-3.0762597v1.3301501h2.8623605v1.010914h-2.8623605v1.633015h3.1851538v1.0109141zm4.7330065 0 1.9484274-3.1309686-1.7656408-2.8690314h1.3456205l1.1433886 1.9276944 1.1200541-1.9276944h1.3339533l-1.773419 2.9140518 1.9484275 3.0859482h-1.3884004l-1.26395-2.0750341-1.267839 2.0750341z" fill="#fff"/></g><text fill="#3d3d3d" font-family="SourceSansPro-Regular, Source Sans Pro" font-size="14" letter-spacing=".2"><tspan x="0" y="14">Card number</tspan></text></g></g></g><g><use fill="#000" filter="url(#f)" xlink:href="#e"/><use fill="#fff" fill-opacity=".5" fill-rule="evenodd" xlink:href="#e"/><g fill="#3d3d3d"><text font-family="SourceSansPro-Semibold, Source Sans Pro" font-size="22" font-weight="500" letter-spacing=".3"><tspan x="24" y="46">Brief Title</tspan></text><g transform="translate(304.125 30.125)"><use xlink:href="#g"/><g mask="url(#o)"><path d="m0 0h28v28h-28z" transform="translate(-6.125 -6.125)"/></g></g></g></g><g transform="translate(0 536)"><g transform="matrix(-1 0 0 -1 344 88)"><use fill="#000" filter="url(#i)" xlink:href="#h"/><use fill="#fff" fill-opacity=".5" fill-rule="evenodd" xlink:href="#h"/></g><g transform="translate(24 24)"><use fill="#68a51c" xlink:href="#j"/><g fill="#68a51c" mask="url(#p)"><path d="m0 0h296v40h-296z"/></g><text style="font-family:SourceSansPro-Semibold, Source Sans Pro;font-size:18;font-weight:500;letter-spacing:.200000003;fill:#fff;mask:url(#p)"><tspan x="111.821" y="26">Continue</tspan></text></g></g><rect fill="#ccc" height="163.209302" rx="4" stroke="#fff" stroke-width="6" width="10" x="331" y="241.27907"/></g></g><g fill-opacity=".2"><path d="m0 0h16v640h-16z" fill="#68a51c"/><g fill="#d43030"><path d="m82 0h16v640h-16z"/><path d="m172 0h16v640h-16z"/><path d="m262 0h16v640h-16z"/></g><path d="m344 0h16v640h-16z" fill="#68a51c"/></g><text fill="#3d3d3d" font-family="SourceSansPro-Regular, Source Sans Pro" font-size="18" letter-spacing=".200000003"><tspan x="397" y="89">Use shadow under the header to differentiate </tspan><tspan x="397" y="113">between content and the modal structure.</tspan></text><text fill="#3d3d3d" font-family="SourceSansPro-Regular, Source Sans Pro" font-size="18" letter-spacing=".200000003"><tspan x="397" y="326">Use white border around the scroller to trim the </tspan><tspan x="397" y="350">divider line when the scroller overlaps.</tspan></text><g fill="#767676" fill-rule="nonzero"><path d="m340.5 84h41 6.091247l-6.336378-3.5642122.490262-.8715756 8 4.5.774733.4357878-.774733.4357878-8 4.5-.490262-.8715756 6.336378-3.5642122h-6.091247-41v3.5h-1v-8h1z"/><path d="m387.591247 321-6.336378-3.564212.490262-.871576 8 4.5.774733.435788-.774733.435788-8 4.5-.490262-.871576 6.336378-3.564212h-6.091247-38v-1h38z"/></g></g></svg>