<svg height="667" viewBox="0 0 389 667" width="389" xmlns="http://www.w3.org/2000/svg" xmlns:xlink="http://www.w3.org/1999/xlink"><defs><rect id="a" height="204" rx="8" width="344"/><filter id="b" height="114.7%" width="108.7%" x="-4.4%" y="-7.4%"><feOffset dx="0" dy="0" in="SourceAlpha" result="shadowOffsetOuter1"/><feGaussianBlur in="shadowOffsetOuter1" result="shadowBlurOuter1" stdDeviation="5"/><feColorMatrix in="shadowBlurOuter1" type="matrix" values="0 0 0 0 0.239215686   0 0 0 0 0.239215686   0 0 0 0 0.239215686  0 0 0 0.2 0"/></filter><rect id="c" height="40" rx="4" width="312"/><path id="d" d="m9.2807765 8.04333964 6.1871843 6.18718436c.3417088.3417087.3417088.8957281 0 1.2374368-.3417087.3417088-.8957281.3417088-1.2374368 0l-6.18718436-6.1871843-6.18718434 6.1871843c-.34170875.3417088-.89572811.3417088-1.23743687 0-.34170875-.3417087-.34170875-.8957281 0-1.2374368l6.18718434-6.18718436-6.18718434-6.18718434c-.34170875-.34170875-.34170875-.89572811 0-1.23743687.34170876-.34170875.89572812-.34170875 1.23743687 0l6.18718434 6.18718434 6.18718436-6.18718434c.3417087-.34170875.8957281-.34170875 1.2374368 0 .3417088.34170876.3417088.89572812 0 1.23743687z"/><mask id="e" fill="#fff"><use fill="#fff" fill-rule="evenodd" xlink:href="#c"/></mask><mask id="f" fill="#fff"><use fill="#fff" fill-rule="evenodd" xlink:href="#d"/></mask></defs><g fill="none" fill-rule="evenodd"><path d="m2.5.5h359v639h-359z" fill="#3d3d3d" fill-opacity=".5" stroke="#979797"/><g transform="translate(10 218)"><use fill="#000" filter="url(#b)" xlink:href="#a"/><use fill="#fff" fill-rule="evenodd" xlink:href="#a"/><g transform="translate(16 140)"><use fill="#68a51c" xlink:href="#c"/><g fill="#68a51c" mask="url(#e)"><path d="m0 0h312v40h-312z"/></g><text style="font-family:SourceSansPro-Semibold, Source Sans Pro;font-size:18;font-weight:500;letter-spacing:.200000003;fill:#fff;mask:url(#e)"><tspan x="119.821" y="26">Continue</tspan></text></g><g fill="#3d3d3d"><text font-family="SourceSansPro-Semibold, Source Sans Pro" font-size="22" font-weight="500" letter-spacing=".3"><tspan x="16" y="46">Brief Title</tspan></text><g transform="translate(312.125 30.125)"><use xlink:href="#d"/><g mask="url(#f)"><path d="m0 0h28v28h-28z" transform="translate(-6.125 -6.125)"/></g></g><text font-family="SourceSansPro-Regular, Source Sans Pro" font-size="16" letter-spacing=".2"><tspan x="16" y="92">Lorem ipsum dolor sit amet, consectetur </tspan><tspan x="16" y="112">adipiscing elit.</tspan></text></g></g><g transform="translate(2)"><path d="m0 0h16v640h-16z" fill="#68a51c" fill-opacity=".2"/><path d="m82 0h16v640h-16z" fill="#d43030" fill-opacity=".2"/><path d="m8 0h16v640h-16z" fill="#0073b1" fill-opacity=".2"/><text fill="#767676" font-family="SourceSansPro-Semibold, Source Sans Pro" font-size="18" font-weight="500"><tspan x="368.266" y="416">24</tspan></text><text fill="#767676" font-family="SourceSansPro-Semibold, Source Sans Pro" font-size="18" font-weight="500"><tspan x="368.266" y="236">24</tspan></text><text fill="#767676" font-family="SourceSansPro-Semibold, Source Sans Pro" font-size="18" font-weight="500"><tspan x="368.266" y="288">24</tspan></text><text fill="#767676" font-family="SourceSansPro-Semibold, Source Sans Pro" font-size="18" font-weight="500"><tspan x="368.266" y="352">24</tspan></text><text fill="#767676" font-family="SourceSansPro-Semibold, Source Sans Pro" font-size="18" font-weight="500"><tspan x="6.266" y="666">16</tspan></text><text fill="#767676" font-family="SourceSansPro-Semibold, Source Sans Pro" font-size="18" font-weight="500"><tspan x="334.266" y="666">16</tspan></text><g fill-opacity=".2"><path d="m0 218h360v24h-360z" fill="#0073b1"/><path d="m0 270h360v24h-360z" fill="#0073b1"/><path d="m0 334h360v24h-360z" fill="#0073b1"/><path d="m0 398h360v24h-360z" fill="#0073b1"/><path d="m336 0h16v640h-16z" fill="#0073b1"/><path d="m172 0h16v640h-16z" fill="#d43030"/><path d="m262 0h16v640h-16z" fill="#d43030"/><path d="m344 0h16v640h-16z" fill="#68a51c"/></g></g></g></svg>