<svg height="32" viewBox="0 0 110 32" width="110" xmlns="http://www.w3.org/2000/svg"><path d="m99.7323958.92218863h-11.3440813l-6.4683706 18.51393547c.2892127-1.5376743.3402893-2.7667848.3402893-3.3010522 0-7.75568843-4.4948477-15.21288327-15.0537651-15.21288327h-12.1263708l.0357094 18.41618897c-1.0486172-5.2321207-5.8826485-6.6347231-11.8946468-8.4410087-2.2470369-.6851013-3.4806131-1.77213459-3.0303213-2.7858306.3847325-.88376866 1.7620307-1.1614651 3.4339588-.93346286 2.551064.36176065 4.5878246 1.20579584 6.5492971 2.25999152l2.6799715-6.56663976c-.6048482-.29444361-4.9467978-2.8714272-10.3884412-2.8714272-7.5885171 0-12.4352623 3.66095202-12.4352623 9.06295237 0 4.81464553 2.9983708 7.61361113 8.5122068 9.18248113 5.9293029 1.7006581 7.4330764 2.3846649 7.2550823 4.0715312-.1544458 1.4531723-3.8295257 3.223665-12.8218743-2.2469659l-2.6714587 5.4667998-8.2477585-24.61460997h-11.3395486l-10.7170115 30.59860167h8.93795535l1.73171395-4.9407688h10.4840822l1.7812812 4.9407688h9.3832721l-1.0642055-2.9932546c3.1729377 1.8136194 7.106496 3.4724643 11.8116198 3.4724643 7.2105285 0 11.1069402-3.892238 12.0364893-7.6237908v7.1445811h12.0924303c7.2071012 0 10.9779221-3.3990176 12.9479073-7.0353415l-2.4737858 7.0353415h8.9317642l1.7877901-4.9407688h10.647191l1.5696145 4.9407688h9.39488zm-87.0657585 18.74668737 3.3324863-10.51244599 3.1576599 10.51244599zm51.4219273 3.960935v-14.82130639h2.1316395c3.0387235 0 6.3554747 1.21617269 6.3554747 7.41065319 0 5.4869403-2.9298076 7.4106532-6.3293837 7.4106532zm26.4598267-3.960935 3.1790818-10.3876632 3.3110644 10.3876632z" fill="#78be20" fill-rule="evenodd"/></svg>