<svg height="531" viewBox="0 0 768 531" width="768" xmlns="http://www.w3.org/2000/svg"><g fill="none" fill-rule="evenodd"><g><path d="m.5.5h767v79h-767z" stroke="#ccc"/><path d="m.5 79.5h767v451h-767z" fill="#f6f6f6" stroke="#ccc"/><text fill="#3d3d3d" font-family="SourceSansPro-Semibold, Source Sans Pro" font-size="22" font-weight="500" letter-spacing=".300000012"><tspan x="16" y="125">Subheader</tspan></text><g fill="#fff" stroke="#ccc"><rect height="171" rx="4" width="171" x="16.5" y="155.5"/><rect height="171" rx="4" width="359" x="16.5" y="343.5"/><rect height="171" rx="4" width="359" x="392.5" y="343.5"/><rect height="171" rx="4" width="171" x="204.5" y="155.5"/><rect height="171" rx="4" width="171" x="392.5" y="155.5"/><rect height="171" rx="4" width="171" x="580.5" y="155.5"/></g><path d="m100.697948.95274541h-11.3613044l-6.4781914 17.64890689c.2896518-1.4658293.3408059-2.637512.3408059-3.1468167 0-7.39331863-4.501672-14.50209019-15.0766208-14.50209019h-12.1447819l.0357636 17.55572739c-1.0502093-4.9876597-5.8915801-6.3247281-11.9127062-8.0466185-2.2504485-.65309127-3.4858977-1.68933496-3.0349222-2.65566794.3853167-.84247625 1.7647059-1.10719785 3.4391725-.88984858 2.5549372.34485806 4.5947902 1.14945731 6.5592407 2.1543977l2.6840405-6.25982597c-.6057665-.28068629-4.9543084-2.73726521-10.4042137-2.73726521-7.6000386 0-12.4541425 3.48990098-12.4541425 8.63950311 0 4.58969039 3.0029232 7.25787959 8.5251307 8.75344709 5.9383052 1.6211981 7.4443618 2.2732459 7.2660975 3.8812967-.1546802 1.3852755-3.83534 3.0730453-12.8413414-2.1419808l-2.6755147 5.211374-8.2602809-23.46453899h-11.3567651l-10.73328296 29.16893999h8.95152563l1.73434313-4.7099207h10.5l1.7839856 4.7099207h9.3975186l-1.0658213-2.8534004c3.1777551 1.7288814 7.1172856 3.31022 11.8295531 3.31022 7.2214761 0 11.1238036-3.7103806 12.054764-7.2675837v6.8107641h12.1107899c7.2180437 0 10.9945896-3.2402049 12.9675659-6.7066284l-2.4775418 6.7066284h8.9453252l1.7905044-4.7099207h10.6633564l1.571997 4.7099207h9.409145zm-87.197948 17.87078399 3.3375459-10.02127192 3.1624541 10.02127192zm51.5 3.7758678v-14.12880896h2.1348759c3.0433371 0 6.3651241 1.1593493 6.3651241 7.06440446 0 5.2305734-2.9342559 7.0644045-6.3389935 7.0644045zm26.5-3.7758678 3.1839085-9.90231937 3.3160915 9.90231937z" fill="#78be20" transform="translate(17 24.941176)"/></g><g fill-opacity=".2"><path d="m0 0h16v531h-16z" fill="#68a51c"/><path d="m16 0h78v531h-78z" fill="#0073b1"/><path d="m110 0h78v531h-78z" fill="#0073b1"/><path d="m94 0h16v531h-16z" fill="#d43030"/><path d="m188 0h16v531h-16z" fill="#d43030"/><path d="m204 0h78v531h-78z" fill="#0073b1"/><path d="m282 0h16v531h-16z" fill="#d43030"/><path d="m298 0h78v531h-78z" fill="#0073b1"/><path d="m376 0h16v531h-16z" fill="#d43030"/><path d="m392 0h78v531h-78z" fill="#0073b1"/><path d="m470 0h16v531h-16z" fill="#d43030"/><path d="m486 0h78v531h-78z" fill="#0073b1"/><path d="m564 0h16v531h-16z" fill="#d43030"/><path d="m580 0h78v531h-78z" fill="#0073b1"/><path d="m658 0h16v531h-16z" fill="#d43030"/><path d="m674 0h78v531h-78z" fill="#0073b1"/><path d="m752 0h16v531h-16z" fill="#68a51c"/></g></g></svg>