<?xml version="1.0" encoding="UTF-8"?>
<svg width="30px" height="30px" viewBox="0 0 30 30" version="1.1" xmlns="http://www.w3.org/2000/svg" xmlns:xlink="http://www.w3.org/1999/xlink">
    <!-- Generator: Sketch 48.2 (47327) - http://www.bohemiancoding.com/sketch -->
    <title>Icons / Alert</title>
    <desc>Created with Sketch.</desc>
    <defs>
        <path d="M19.7626843,15.9921875 C20.0849499,16.6367188 20.0654187,17.3984375 19.6943249,18.0039063 C19.3036999,18.6289063 18.6298718,19 17.9169812,19 L2.07713744,19 C1.36424682,19 0.690418694,18.6289063 0.299793694,18.0039063 C-0.0713000563,17.3984375 -0.0908313063,16.6367188 0.202137444,15.9921875 L8.11977959,1.16210938 C8.49087334,0.439453125 9.20376397,0 9.99477959,0 C10.7857952,0 11.4986858,0.439453125 11.8502483,1.16210938 L19.7626843,15.9921875 Z M9.99764745,13.5 C9.15109366,13.5 8.49764745,14.1428571 8.49764745,15 C8.49764745,15.8571429 9.15109366,16.5 9.99764745,16.5 C10.8442012,16.5 11.4976475,15.8571429 11.4976475,15 C11.4976475,14.1428571 10.8442012,13.5 9.99764745,13.5 Z M10.9976475,12 L10.9976475,5 L8.99764745,5 L8.99764745,12 L10.9976475,12 Z" id="path-1"></path>
    </defs>
    <g id="Symbols" stroke="none" stroke-width="1" fill="none" fill-rule="evenodd">
        <g id="Icons-/-Alert">
            <g id="Group" transform="translate(5.000000, 5.000000)">
                <mask id="mask-2" fill="white">
                    <use xlink:href="#path-1"></use>
                </mask>
                <use id="Mask" fill="#DB6751" xlink:href="#path-1"></use>
                <g id="UI/Color/Flat/ASDA-Red-New" mask="url(#mask-2)" fill="#E44F4F">
                    <g transform="translate(-5.000000, -5.000000)" id="Base">
                        <rect x="0" y="0" width="30" height="30"></rect>
                    </g>
                </g>
            </g>
        </g>
    </g>
</svg>