<?xml version="1.0" encoding="UTF-8"?>
<svg width="30px" height="30px" viewBox="0 0 30 30" version="1.1" xmlns="http://www.w3.org/2000/svg" xmlns:xlink="http://www.w3.org/1999/xlink">
    <!-- Generator: Sketch 48.2 (47327) - http://www.bohemiancoding.com/sketch -->
    <title>Icons / Browse</title>
    <desc>Created with Sketch.</desc>
    <defs>
        <path d="M14,10 L22,18 L18.5,18 C18.5,18 20.3123269,21.3495845 21,23 C21.1456602,23.3495845 20.5,24 20.5,24 L19.5,24 L17,19 L14,22 L14,10 Z M0,0 L20,0 L20,2 L0,2 L0,0 Z M0,5 L20,5 L20,7 L0,7 L0,5 Z M0,10 L10,10 L10,12 L0,12 L0,10 Z M0,15 L10,15 L10,17 L0,17 L0,15 Z" id="path-1"></path>
    </defs>
    <g id="Symbols" stroke="none" stroke-width="1" fill="none" fill-rule="evenodd">
        <g id="Icons-/-Browse">
            <g id="Group" transform="translate(5.000000, 5.000000)">
                <mask id="mask-2" fill="white">
                    <use xlink:href="#path-1"></use>
                </mask>
                <use id="Mask" fill="#68A51C" xlink:href="#path-1"></use>
                <g id="UI/Color/Flat/ASDA-Green-New" mask="url(#mask-2)" fill="#68A51C">
                    <g transform="translate(-10.000000, -10.000000)" id="Base">
                        <rect x="0" y="0" width="30" height="30"></rect>
                    </g>
                </g>
            </g>
        </g>
    </g>
</svg>