<?xml version="1.0" encoding="UTF-8"?>
<svg width="30px" height="30px" viewBox="0 0 30 30" version="1.1" xmlns="http://www.w3.org/2000/svg" xmlns:xlink="http://www.w3.org/1999/xlink">
    <!-- Generator: Sketch 48.2 (47327) - http://www.bohemiancoding.com/sketch -->
    <title>Icons / Calendar</title>
    <desc>Created with Sketch.</desc>
    <defs>
        <path d="M17,4 C17,5.5 16,6.5 15,6.5 C14,6.5 13,5.5 13,4 L7,4 C7,5.5 6,6.5 5,6.5 C4,6.5 3,5.5 3,4 L2,4 C1,4 0,5 0,6 L0,21 C0,22 1,23 2,23 L18,23 C19,23 20,22 20,21 L20,6 C20,4.94117647 19,4 18,4 L17,4 Z M5.5,19 L4.5,19 C4.225,19 4,18.776 4,18.5 L4,17.5 C4,17.224 4.225,17 4.5,17 L5.5,17 C5.777,17 6,17.224 6,17.5 L6,18.5 C6,18.776 5.777,19 5.5,19 Z M5.5,15 L4.5,15 C4.225,15 4,14.776 4,14.5 L4,13.5 C4,13.224 4.225,13 4.5,13 L5.5,13 C5.777,13 6,13.224 6,13.5 L6,14.5 C6,14.776 5.777,15 5.5,15 Z M5.5,11 L4.5,11 C4.225,11 4,10.776 4,10.5 L4,9.5 C4,9.224 4.225,9 4.5,9 L5.5,9 C5.777,9 6,9.224 6,9.5 L6,10.5 C6,10.776 5.777,11 5.5,11 Z M10.5,19 L9.5,19 C9.225,19 9,18.776 9,18.5 L9,17.5 C9,17.224 9.225,17 9.5,17 L10.5,17 C10.777,17 11,17.224 11,17.5 L11,18.5 C11,18.776 10.777,19 10.5,19 Z M10.5,15 L9.5,15 C9.225,15 9,14.776 9,14.5 L9,13.5 C9,13.224 9.225,13 9.5,13 L10.5,13 C10.777,13 11,13.224 11,13.5 L11,14.5 C11,14.776 10.777,15 10.5,15 Z M10.5,11 L9.5,11 C9.225,11 9,10.776 9,10.5 L9,9.5 C9,9.224 9.225,9 9.5,9 L10.5,9 C10.777,9 11,9.224 11,9.5 L11,10.5 C11,10.776 10.777,11 10.5,11 Z M15.5,19 L14.5,19 C14.225,19 14,18.776 14,18.5 L14,17.5 C14,17.224 14.225,17 14.5,17 L15.5,17 C15.777,17 16,17.224 16,17.5 L16,18.5 C16,18.776 15.777,19 15.5,19 Z M15.5,15 L14.5,15 C14.225,15 14,14.776 14,14.5 L14,13.5 C14,13.224 14.225,13 14.5,13 L15.5,13 C15.777,13 16,13.224 16,13.5 L16,14.5 C16,14.776 15.777,15 15.5,15 Z M15.5,11 L14.5,11 C14.225,11 14,10.776 14,10.5 L14,9.5 C14,9.224 14.225,9 14.5,9 L15.5,9 C15.777,9 16,9.224 16,9.5 L16,10.5 C16,10.776 15.777,11 15.5,11 Z M6,3.75 C6,4.375 5.5,5 5,5 C4.5,5 4,4.375 4,3.75 L4,1.25 C4,0.625 4.5,2.38295982e-13 5,0 C5.5,-2.3814311e-13 6,0.625 6,1.25 L6,3.75 Z M16,3.75 C16,4.375 15.5,5 15,5 C14.5,5 14,4.375 14,3.75 L14,1.25 C14,0.625 14.5,2.57835908e-13 15,1.95399252e-14 C15.5,-2.18603185e-13 16,0.625 16,1.25 L16,3.75 Z" id="path-1"></path>
    </defs>
    <g id="Symbols" stroke="none" stroke-width="1" fill="none" fill-rule="evenodd">
        <g id="Icons-/-Calendar">
            <g id="Group" transform="translate(5.000000, 3.000000)">
                <mask id="mask-2" fill="white">
                    <use xlink:href="#path-1"></use>
                </mask>
                <use id="Mask" fill="#68A51C" xlink:href="#path-1"></use>
                <g id="UI/Color/Flat/ASDA-Green-New" mask="url(#mask-2)" fill="#68A51C">
                    <g transform="translate(-5.000000, -3.000000)" id="Base">
                        <rect x="0" y="0" width="30" height="30"></rect>
                    </g>
                </g>
            </g>
        </g>
    </g>
</svg>