<?xml version="1.0" encoding="UTF-8"?>
<svg width="30px" height="30px" viewBox="0 0 30 30" version="1.1" xmlns="http://www.w3.org/2000/svg" xmlns:xlink="http://www.w3.org/1999/xlink">
    <!-- Generator: Sketch 48.2 (47327) - http://www.bohemiancoding.com/sketch -->
    <title>Icons / Click &amp; Collect</title>
    <desc>Created with Sketch.</desc>
    <defs>
        <path d="M10,11 L19,20.1428571 L15.0625,20.1428571 C15.0625,20.1428571 17.1013678,23.9709537 17.875,25.8571429 C18.0388678,26.256668 17.3125,27 17.3125,27 L16.1875,27 L13.375,21.2857143 L10,24.7142857 L10,11 Z M11.0150894,6.93096719 C10.9566962,7.28473887 10.5234871,7.55755636 9.99965473,7.55755636 C9.47563281,7.55755636 9.04223407,7.28473887 8.98478883,6.93096719 L8.46626497,1.05752325 C8.46626497,0.477004034 9.14518049,0 9.99927555,0 C10.8546977,0 11.5349404,0.477004034 11.5349404,1.05752325 L11.0150894,6.93096719 Z M6.78878815,8.19874381 C7.06653493,8.42587054 7.08682088,8.93775881 6.8249995,9.3895476 C6.56279896,9.84418022 6.10778716,10.0826822 5.7731639,9.95812276 L0.428291994,7.46920823 C-0.0729793356,7.17913821 -0.149193812,6.35253345 0.279086042,5.6127601 C0.706607543,4.87203881 1.45984165,4.52243808 1.96111298,4.81307687 L6.78878815,8.19874381 Z M14.225956,9.95812276 C13.8913327,10.0826822 13.437648,9.84418022 13.176585,9.39258102 C12.9138157,8.93775881 12.9341016,8.42587054 13.2105213,8.19874381 L18.0381965,4.81307687 C18.5387094,4.52243808 19.2927019,4.87203881 19.7217401,5.6127601 C20.1471761,6.35253345 20.0751326,7.17913821 19.5715862,7.46920823 L14.225956,9.95812276 Z M6.78878815,14.2551404 L1.96111298,17.6381531 C1.45984165,17.9280336 0.706607543,17.5769161 0.279086042,16.8386595 C-0.149193812,16.0983174 -0.0729793356,15.2713334 0.428291994,14.9801259 L5.7731639,12.4934864 C6.10778716,12.3674102 6.56279896,12.6040164 6.82537868,13.0601657 C7.08682088,13.5138504 7.06653493,14.025549 6.78878815,14.2551404 Z" id="path-1"></path>
    </defs>
    <g id="Symbols" stroke="none" stroke-width="1" fill="none" fill-rule="evenodd">
        <g id="Icons-/-Click-&amp;-Collect">
            <g id="Group" transform="translate(5.000000, 2.000000)">
                <mask id="mask-2" fill="white">
                    <use xlink:href="#path-1"></use>
                </mask>
                <use id="Mask" fill="#68A51C" xlink:href="#path-1"></use>
                <g id="UI/Color/Flat/ASDA-Green-New" mask="url(#mask-2)" fill="#68A51C">
                    <g transform="translate(-5.000000, -2.000000)" id="Base">
                        <rect x="0" y="0" width="30" height="30"></rect>
                    </g>
                </g>
            </g>
        </g>
    </g>
</svg>