<?xml version="1.0" encoding="UTF-8"?>
<svg width="30px" height="30px" viewBox="0 0 30 30" version="1.1" xmlns="http://www.w3.org/2000/svg" xmlns:xlink="http://www.w3.org/1999/xlink">
    <!-- Generator: Sketch 48.2 (47327) - http://www.bohemiancoding.com/sketch -->
    <title>Icons / Facebook</title>
    <desc>Created with Sketch.</desc>
    <defs>
        <path d="M10,0 C15.5175781,0 20,4.48242188 20,10 C20,14.6582031 16.8164062,18.5742188 12.5,19.6875 L12.5,12.0800781 L14.6386719,12.0800781 L15,9.58007812 L12.5,9.58007812 L12.5,7.3828125 C12.5,6.66015625 12.8613281,6.25 13.59375,6.25 L15.1855469,6.25 L15.1855469,3.92578125 C15.1855469,3.92578125 14.4433594,3.75976562 13.3886719,3.75976562 C10.9863281,3.75976562 9.77539062,5.09765625 9.77539062,7.08007812 L9.77539062,9.58007812 L7.5,9.58007812 L7.5,12.0800781 L9.77539062,12.0800781 L9.77539062,20 C4.35546875,19.8828125 0,15.4492188 0,10 C0,4.48242188 4.48242188,0 10,0 Z" id="path-1"></path>
    </defs>
    <g id="Symbols" stroke="none" stroke-width="1" fill="none" fill-rule="evenodd">
        <g id="Icons-/-Facebook">
            <g id="Group" transform="translate(5.000000, 5.000000)">
                <mask id="mask-2" fill="white">
                    <use xlink:href="#path-1"></use>
                </mask>
                <use id="Mask" fill="#68A51C" xlink:href="#path-1"></use>
                <g id="UI/Color/Flat/ASDA-Green-New" mask="url(#mask-2)" fill="#68A51C">
                    <g transform="translate(-5.000000, -5.000000)" id="Base">
                        <rect x="0" y="0" width="30" height="30"></rect>
                    </g>
                </g>
            </g>
        </g>
    </g>
</svg>