<?xml version="1.0" encoding="UTF-8"?>
<svg width="30px" height="30px" viewBox="0 0 30 30" version="1.1" xmlns="http://www.w3.org/2000/svg" xmlns:xlink="http://www.w3.org/1999/xlink">
    <!-- Generator: Sketch 48.2 (47327) - http://www.bohemiancoding.com/sketch -->
    <title>Icons / Feedback</title>
    <desc>Created with Sketch.</desc>
    <defs>
        <path d="M18,16 L9,16 L3,22 L3,16 L2,16 C1,16 0,15 0,14 L0,2 C-2.83419122e-14,1 1,0 2,0 L18,0 C19,0 20,1 20,2 L20,14 C20,15 19,16 18,16 Z M11,12 L11,9 L14,9 L14,7 L11,7 L11,4 L9,4 L9,7 L6,7 L6,9 L9,9 L9,12 L11,12 Z" id="path-1"></path>
    </defs>
    <g id="Symbols" stroke="none" stroke-width="1" fill="none" fill-rule="evenodd">
        <g id="Icons-/-Feedback">
            <g id="Group" transform="translate(5.000000, 6.000000)">
                <g id="UI/Color/Flat/ASDA-Green-New">
                    <mask id="mask-2" fill="white">
                        <use xlink:href="#path-1"></use>
                    </mask>
                    <use id="Mask" fill="#D8D8D8" xlink:href="#path-1"></use>
                    <g mask="url(#mask-2)" fill="#68A51C" id="Base">
                        <g transform="translate(-5.000000, -4.000000)">
                            <rect x="0" y="0" width="30" height="30"></rect>
                        </g>
                    </g>
                </g>
            </g>
        </g>
    </g>
</svg>