<?xml version="1.0" encoding="UTF-8"?>
<svg width="30px" height="30px" viewBox="0 0 30 30" version="1.1" xmlns="http://www.w3.org/2000/svg" xmlns:xlink="http://www.w3.org/1999/xlink">
    <!-- Generator: Sketch 48.2 (47327) - http://www.bohemiancoding.com/sketch -->
    <title>Icons / Google+</title>
    <desc>Created with Sketch.</desc>
    <defs>
        <path d="M10,20 C4.4771525,20 0,15.5228475 0,10 C0,4.4771525 4.4771525,0 10,0 C15.5228475,0 20,4.4771525 20,10 C20,15.5228475 15.5228475,20 10,20 Z M17,7 L15,7 L15,5 L14,5 L14,7 L12,7 L12,8 L14,8 L14,10 L15,10 L15,8 L17,8 L17,7 Z M9.81228465,10.904473 C9.46598232,10.6759135 8.82878604,10.1010516 8.82878604,9.75474928 C8.82878604,9.35996463 8.93960278,9.16603533 9.53524278,8.68813812 C10.158587,8.21024091 10.5810758,7.5384144 10.5810758,6.75577114 C10.5810758,5.81382882 10.1724391,4.91344277 9.38286976,4.61562277 L10.5672237,4.61562277 L11.4052753,4.01305672 L7.69291441,4.01305672 C6.01681116,4.01305672 4.45845069,5.27359719 4.45845069,6.734993 C4.45845069,8.23101905 5.59432232,9.4292251 7.28427767,9.4292251 C7.39509441,9.4292251 7.5128372,9.4292251 7.63057999,9.415373 C7.5128372,9.6231544 7.45050278,9.87249207 7.45050278,10.1149037 C7.45050278,10.5304665 7.65828418,10.8559907 7.94225209,11.1330325 L7.29812976,11.1330325 C5.24801999,11.1330325 3.6550293,12.4489814 3.6550293,13.8134125 C3.6550293,15.1570656 5.39346697,15.9951172 7.45050278,15.9951172 C9.81228465,15.9951172 11.1074553,14.6653163 11.1074553,13.3216632 C11.1074553,12.2550521 10.7819312,11.6109297 9.81228465,10.904473 Z M7.70609492,8.70441499 C6.9565059,8.68252918 6.2288027,7.86181128 6.09748784,6.86600689 C5.96617297,5.88114541 6.47501807,5.11514204 7.22460708,5.1424993 C7.99061046,5.16438512 8.70737075,5.95774575 8.83321417,6.95355014 C8.96452903,7.94388307 8.46115539,8.73177225 7.70609492,8.70441499 Z M7.42008401,15.0304925 C6.28711403,15.0304925 5.48254114,14.3134922 5.48254114,13.4596597 C5.48254114,12.6167738 6.48415229,11.9271399 7.61164898,11.9271399 C7.87436666,11.9435598 8.12066448,11.9818728 8.33959588,12.0475522 C8.94713051,12.4744684 9.39046658,12.7207662 9.52182542,13.196942 C9.53277199,13.3009344 9.54371856,13.3939803 9.54371856,13.4979727 C9.54371856,14.3518052 9.00186335,15.0304925 7.42008401,15.0304925 Z" id="path-1"></path>
    </defs>
    <g id="Symbols" stroke="none" stroke-width="1" fill="none" fill-rule="evenodd">
        <g id="Icons-/-Google+">
            <g id="Group" transform="translate(5.000000, 5.000000)">
                <mask id="mask-2" fill="white">
                    <use xlink:href="#path-1"></use>
                </mask>
                <use id="Mask" fill="#68A51C" xlink:href="#path-1"></use>
                <g id="UI/Color/Flat/ASDA-Green-New" mask="url(#mask-2)" fill="#68A51C">
                    <g transform="translate(-5.000000, -5.000000)" id="Base">
                        <rect x="0" y="0" width="30" height="30"></rect>
                    </g>
                </g>
            </g>
        </g>
    </g>
</svg>