<?xml version="1.0" encoding="UTF-8"?>
<svg width="30px" height="30px" viewBox="0 0 30 30" version="1.1" xmlns="http://www.w3.org/2000/svg" xmlns:xlink="http://www.w3.org/1999/xlink">
    <!-- Generator: Sketch 48.2 (47327) - http://www.bohemiancoding.com/sketch -->
    <title>Icons / Heart Outline</title>
    <desc>Created with Sketch.</desc>
    <defs>
        <path d="M11,20 C9,18 3.89953323e-16,11.5 0,6 C0,3 2,0 5.5,0 C7.7,0 10.5,1 11,2 C11.5,1 14.3,1.38777878e-16 16.5,0 C20,0 22,3 22,6 C22,11.5 13,18 11,20 Z" id="path-1"></path>
    </defs>
    <g id="Symbols" stroke="none" stroke-width="1" fill="none" fill-rule="evenodd">
        <g id="Icons-/-Heart-Outline">
            <g id="Group" transform="translate(4.000000, 6.000000)">
                <mask id="mask-2" fill="white">
                    <use xlink:href="#path-1"></use>
                </mask>
                <use id="Combined-Shape" fill="#FFFFFF" xlink:href="#path-1"></use>
                <g id="UI/Color/Flat/CCCCCC" mask="url(#mask-2)" fill="#CCCCCC">
                    <g transform="translate(-4.000000, -6.000000)" id="Base">
                        <rect x="0" y="0" width="30" height="30"></rect>
                    </g>
                </g>
                <path d="M11,18 C9.3,16.3 1.5,10.675 1.5,6 C1.5,3.45 3.35,1.5 6.325,1.5 C8.195,1.5 10.575,4.65 11,5.5 C11.425,4.65 13.805,1.5 15.675,1.5 C18.65,1.5 20.5,3.45 20.5,6 C20.5,10.675 12.7,16.3 11,18 Z" id="Mask-Copy" fill="#FFFFFF"></path>
            </g>
        </g>
    </g>
</svg>