<?xml version="1.0" encoding="UTF-8"?>
<svg width="30px" height="30px" viewBox="0 0 30 30" version="1.1" xmlns="http://www.w3.org/2000/svg" xmlns:xlink="http://www.w3.org/1999/xlink">
    <!-- Generator: Sketch 48.2 (47327) - http://www.bohemiancoding.com/sketch -->
    <title>Icons / Help</title>
    <desc>Created with Sketch.</desc>
    <defs>
        <path d="M10,20 C4.4771525,20 0,15.5228475 0,10 C0,4.4771525 4.4771525,0 10,0 C15.5228475,0 20,4.4771525 20,10 C20,15.5228475 15.5228475,20 10,20 Z M9.75,16.5 C10.5965538,16.5 11.25,15.8571429 11.25,15 C11.25,14.1428571 10.5965538,13.5 9.75,13.5 C8.90344621,13.5 8.25,14.1428571 8.25,15 C8.25,15.8571429 8.90344621,16.5 9.75,16.5 Z M8.57894737,12.0069978 L11.2210526,12.0069978 C10.9686753,11.6100547 11.117814,11.1401075 11.2210526,10.9167709 C11.3473691,10.64351 11.5192972,10.3847881 11.7368421,10.1405976 C11.9543871,9.89640699 12.1929812,9.66094104 12.4526316,9.43419266 C12.712282,9.20744427 12.9578936,8.97197832 13.1894737,8.72778775 C13.4210538,8.48359718 13.6140343,8.21906136 13.7684211,7.93417236 C13.9228078,7.64928336 14,7.32660781 14,6.96613601 C14,6.45449863 13.8982466,6.00972961 13.6947368,5.63181564 C13.4912271,5.25390166 13.2105281,4.94285405 12.8526316,4.69866348 C12.4947351,4.45447291 12.0736866,4.27423971 11.5894737,4.15795849 C11.1052607,4.04167726 10.5824589,3.98353752 10.0210526,3.98353752 C9.19297832,3.98353752 8.43859989,4.12888687 7.75789474,4.41958993 C7.07718958,4.71029299 6.49123053,5.09401528 6,5.5707683 L7.70526316,6.86148343 C7.98596632,6.62892098 8.27719147,6.43705984 8.57894737,6.28589425 C8.88070326,6.13472866 9.22806821,6.059147 9.62105263,6.059147 C10.0421074,6.059147 10.3824548,6.15217058 10.6421053,6.33822054 C10.9017557,6.5242705 11.0315789,6.79752728 11.0315789,7.15799907 C11.0315789,7.3789334 10.9578955,7.59114345 10.8105263,7.79463559 C10.6631572,7.99812773 10.4771941,8.2074308 10.2526316,8.42255106 C10.0280691,8.63767133 9.79298368,8.86150933 9.54736842,9.09407178 C9.30175316,9.32663422 9.08070274,9.58244908 8.88421053,9.86152402 C8.68771832,10.140599 8.53684263,10.4429256 8.43157895,10.768513 C8.34614051,11.0327797 8.35439461,11.5862582 8.57894737,12.0069978 Z" id="path-1"></path>
    </defs>
    <g id="Symbols" stroke="none" stroke-width="1" fill="none" fill-rule="evenodd">
        <g id="Icons-/-Help">
            <g id="Group" transform="translate(5.000000, 5.000000)">
                <mask id="mask-2" fill="white">
                    <use xlink:href="#path-1"></use>
                </mask>
                <use id="Mask" fill="#68A51C" xlink:href="#path-1"></use>
                <g id="UI/Color/Flat/ASDA-Green-New" mask="url(#mask-2)" fill="#68A51C">
                    <g transform="translate(-5.000000, -5.000000)" id="Base">
                        <rect x="0" y="0" width="30" height="30"></rect>
                    </g>
                </g>
            </g>
        </g>
    </g>
</svg>