<?xml version="1.0" encoding="UTF-8"?>
<svg width="30px" height="30px" viewBox="0 0 30 30" version="1.1" xmlns="http://www.w3.org/2000/svg" xmlns:xlink="http://www.w3.org/1999/xlink">
    <!-- Generator: Sketch 48.2 (47327) - http://www.bohemiancoding.com/sketch -->
    <title>Icons / Home</title>
    <desc>Created with Sketch.</desc>
    <defs>
        <path d="M19.5,10.9963379 C19.168411,10.9959331 18.668411,10.9959331 18,10.9963379 L18,20.0036621 C18,20.5036621 17.5,21.0036621 17,21.0036621 L13,21 C12.5,21 12,20.5 12,20 L12,13.9963379 C12,13.6526082 11.5,12.9963379 11,12.9963379 L9,12.9963379 C8.83479796,12.9963379 8,13.4963379 8,13.9963379 L8,20 C8,20.5 7.5,21 7,21 L3,21 C2.5,21 2,20.5 2,20 L2,10.9963379 C1.22014703,10.9963379 0.720147027,10.9963379 0.5,10.9963379 C0.16977946,10.9963379 -0.289642991,10.0093098 0.607655278,9.0222817 L9.5,0.996337891 L10.5,0.996337891 L19.003521,9.00584639 C19.9082899,10.0010921 19.9973835,10.996945 19.5,10.9963379 Z" id="path-1"></path>
    </defs>
    <g id="Symbols" stroke="none" stroke-width="1" fill="none" fill-rule="evenodd">
        <g id="Icons-/-Home">
            <g id="Group" transform="translate(5.000000, 4.000000)">
                <mask id="mask-2" fill="white">
                    <use xlink:href="#path-1"></use>
                </mask>
                <use id="Mask" fill="#68A51C" xlink:href="#path-1"></use>
                <g id="UI/Color/Flat/ASDA-Green-New" mask="url(#mask-2)" fill="#68A51C">
                    <g transform="translate(-5.000000, -4.000000)" id="Base">
                        <rect x="0" y="0" width="30" height="30"></rect>
                    </g>
                </g>
            </g>
        </g>
    </g>
</svg>