<?xml version="1.0" encoding="UTF-8"?>
<svg width="30px" height="30px" viewBox="0 0 30 30" version="1.1" xmlns="http://www.w3.org/2000/svg" xmlns:xlink="http://www.w3.org/1999/xlink">
    <!-- Generator: Sketch 48.2 (47327) - http://www.bohemiancoding.com/sketch -->
    <title>Icons / Home</title>
    <desc>Created with Sketch.</desc>
    <defs>
        <path d="M18.9176714,10.9972981 L18,10.9963379 L18,20.0036621 C18,20.5036621 17.5,21.0036621 17,21.0036621 L13,21 C12.5,21 12,20.5 12,20 L12,13.9963379 C12,13.6526082 11.5,12.9963379 11,12.9963379 L9,12.9963379 C8.83479796,12.9963379 8,13.4963379 8,13.9963379 L8,20 C8,20.5 7.5,21 7,21 L3,21 C2.5,21 2,20.5 2,20 L2,10.9963379 L1.08233112,10.9972981 C0.530046674,10.9978759 0.0818632172,10.5506294 0.0812853526,9.99834493 C0.0809909638,9.71698771 0.199237284,9.44852348 0.407015679,9.2588129 L9.32573789,1.11563703 C9.7076322,0.766951143 10.2923825,0.766951332 10.6742766,1.11563746 L19.5929873,9.25881334 C20.0008414,9.63120216 20.0295918,10.2637141 19.6572029,10.6715682 C19.4674924,10.8793463 19.1990283,10.9975925 18.9176714,10.9972981 Z" id="path-1"></path>
    </defs>
    <g id="Symbols" stroke="none" stroke-width="1" fill="none" fill-rule="evenodd">
        <g id="Icons-/-Home">
            <g id="Group" transform="translate(5.000000, 4.000000)">
                <mask id="mask-2" fill="white">
                    <use xlink:href="#path-1"></use>
                </mask>
                <use id="Mask" fill="#68A51C" xlink:href="#path-1"></use>
                <g id="UI/Color/Flat/ASDA-Green-New" mask="url(#mask-2)" fill="#68A51C">
                    <g transform="translate(-5.000000, -4.000000)" id="Base">
                        <rect x="0" y="0" width="30" height="30"></rect>
                    </g>
                </g>
            </g>
        </g>
    </g>
</svg>