<?xml version="1.0" encoding="UTF-8"?>
<svg width="30px" height="30px" viewBox="0 0 30 30" version="1.1" xmlns="http://www.w3.org/2000/svg" xmlns:xlink="http://www.w3.org/1999/xlink">
    <!-- Generator: Sketch 48.2 (47327) - http://www.bohemiancoding.com/sketch -->
    <title>Icons / Info</title>
    <desc>Created with Sketch.</desc>
    <defs>
        <path d="M10,20 C4.4771525,20 0,15.5228475 0,10 C0,4.4771525 4.4771525,0 10,0 C15.5228475,0 20,4.4771525 20,10 C20,15.5228475 15.5228475,20 10,20 Z M10,7.5 C10.8465538,7.5 11.5,6.85714286 11.5,6 C11.5,5.14285714 10.8465538,4.5 10,4.5 C9.15344621,4.5 8.5,5.14285714 8.5,6 C8.5,6.85714286 9.15344621,7.5 10,7.5 Z M9,9 L9,16 L11,16 L11,9 L9,9 Z" id="path-1"></path>
    </defs>
    <g id="Symbols" stroke="none" stroke-width="1" fill="none" fill-rule="evenodd">
        <g id="Icons-/-Info">
            <g id="Group" transform="translate(5.000000, 5.000000)">
                <mask id="mask-2" fill="white">
                    <use xlink:href="#path-1"></use>
                </mask>
                <use id="Mask" fill="#68A51C" xlink:href="#path-1"></use>
                <g id="UI/Color/Flat/ASDA-Green-New" mask="url(#mask-2)" fill="#68A51C">
                    <g transform="translate(-5.000000, -5.000000)" id="Base">
                        <rect x="0" y="0" width="30" height="30"></rect>
                    </g>
                </g>
            </g>
        </g>
    </g>
</svg>