<?xml version="1.0" encoding="UTF-8"?>
<svg width="30px" height="30px" viewBox="0 0 30 30" version="1.1" xmlns="http://www.w3.org/2000/svg" xmlns:xlink="http://www.w3.org/1999/xlink">
    <!-- Generator: Sketch 48.2 (47327) - http://www.bohemiancoding.com/sketch -->
    <title>Icons / List</title>
    <desc>Created with Sketch.</desc>
    <defs>
        <path d="M7.02012946,2 C6.99976038,2.34427165 6.99999124,2.68457263 6.99998919,3 L13.0000578,3 C13.0000468,2.68457263 13.0002721,2.34427165 12.9798999,2 L18,2 C19,2 20,2.78431373 20,3.66666667 L20,21.3333333 C20,22.1666667 19,23 18,23 L2,23 C1,23 0,22.1666667 0,21.3333333 L0,3.66666667 C0,2.83333333 1,2 2,2 L7.02012946,2 Z M12,2 L8,2 C8,1 9,6.123234e-17 10,0 C11,0 12,1 12,2 Z M7,17 L7,19 L17,19 L17,17 L7,17 Z M3,12 L3,14 L5,14 L5,12 L3,12 Z M3,7 L3,9 L5,9 L5,7 L3,7 Z M3,17 L3,19 L5,19 L5,17 L3,17 Z M7,12 L7,14 L17,14 L17,12 L7,12 Z M7,7 L7,9 L17,9 L17,7 L7,7 Z" id="path-1"></path>
    </defs>
    <g id="Symbols" stroke="none" stroke-width="1" fill="none" fill-rule="evenodd">
        <g id="Icons-/-List">
            <g id="Group" transform="translate(5.000000, 3.000000)">
                <mask id="mask-2" fill="white">
                    <use xlink:href="#path-1"></use>
                </mask>
                <use id="Mask" fill="#68A51C" xlink:href="#path-1"></use>
                <g id="UI/Color/Flat/ASDA-Green-New" mask="url(#mask-2)" fill="#68A51C">
                    <g transform="translate(-5.000000, -4.000000)" id="Base">
                        <rect x="0" y="0" width="30" height="30"></rect>
                    </g>
                </g>
            </g>
        </g>
    </g>
</svg>