<?xml version="1.0" encoding="UTF-8"?>
<svg width="30px" height="30px" viewBox="0 0 30 30" version="1.1" xmlns="http://www.w3.org/2000/svg" xmlns:xlink="http://www.w3.org/1999/xlink">
    <!-- Generator: Sketch 48.2 (47327) - http://www.bohemiancoding.com/sketch -->
    <title>Icons / Lock</title>
    <desc>Created with Sketch.</desc>
    <defs>
        <path d="M17,8 C17,3.684375 14.3402857,0 10,0 C5.65971429,0 3,3.684375 3,8 L2,8 C0.983285714,8 0,9.05 0,10 L0,22 C0,22.95 0.983285714,24 2,24 L18,24 C19.012,24 20,22.95 20,22 L20,10 C20,9.05 19.012,8 18,8 L17,8 Z M11,20 L9,20 L9,16 C8,16 7.5,14.5 7.5,13.5 C7.5,12.5 8.5,11 10,11 C11.5,11 12.5,12.5 12.5,13.5 C12.5,14.5 12,16 11,16 L11,20 Z M6,8 C6,5.5 7.5,3 10,3 C12.5,3 14,5.5 14,8 L6,8 Z" id="path-1"></path>
    </defs>
    <g id="Symbols" stroke="none" stroke-width="1" fill="none" fill-rule="evenodd">
        <g id="Icons-/-Lock">
            <g id="Group" transform="translate(5.000000, 3.000000)">
                <mask id="mask-2" fill="white">
                    <use xlink:href="#path-1"></use>
                </mask>
                <use id="Mask" fill="#68A51C" xlink:href="#path-1"></use>
                <g id="UI/Color/Flat/ASDA-Green-New" mask="url(#mask-2)" fill="#68A51C">
                    <g transform="translate(-5.000000, -2.000000)" id="Base">
                        <rect x="0" y="0" width="30" height="30"></rect>
                    </g>
                </g>
            </g>
        </g>
    </g>
</svg>