<?xml version="1.0" encoding="UTF-8"?>
<svg width="30px" height="30px" viewBox="0 0 30 30" version="1.1" xmlns="http://www.w3.org/2000/svg" xmlns:xlink="http://www.w3.org/1999/xlink">
    <!-- Generator: Sketch 48.2 (47327) - http://www.bohemiancoding.com/sketch -->
    <title>Icons / Mail</title>
    <desc>Created with Sketch.</desc>
    <defs>
        <path d="M14.273059,8.0088587 L20,4 L20,13.5 L14.273059,8.0088587 Z M10,11 L12.75,9 L18.7335867,14.8284927 C18.4994395,14.9376401 18.2497197,15 18,15 L2,15 C1.76982235,15 1.5396447,14.9470183 1.32166227,14.85325 L7.25,9 L10,11 Z M0,4 L5.7386278,8.01703946 L0,13.5 L0,4 Z M10,9 L0,2 C0,1 1,0 2,0 L18,0 C19,0 20,1 20,2 L10,9 Z" id="path-1"></path>
    </defs>
    <g id="Symbols" stroke="none" stroke-width="1" fill="none" fill-rule="evenodd">
        <g id="Icons-/-Mail">
            <g id="Group" transform="translate(5.000000, 8.000000)">
                <mask id="mask-2" fill="white">
                    <use xlink:href="#path-1"></use>
                </mask>
                <use id="Mask" fill="#68A51C" xlink:href="#path-1"></use>
                <g id="UI/Color/Flat/ASDA-Green-New" mask="url(#mask-2)" fill="#68A51C">
                    <g transform="translate(-10.000000, -16.000000)" id="Base">
                        <rect x="0" y="0" width="30" height="30"></rect>
                    </g>
                </g>
            </g>
        </g>
    </g>
</svg>