<?xml version="1.0" encoding="UTF-8"?>
<svg width="30px" height="30px" viewBox="0 0 30 30" version="1.1" xmlns="http://www.w3.org/2000/svg" xmlns:xlink="http://www.w3.org/1999/xlink">
    <!-- Generator: Sketch 48.2 (47327) - http://www.bohemiancoding.com/sketch -->
    <title>Icons / Orders</title>
    <desc>Created with Sketch.</desc>
    <defs>
        <path d="M4,4 L4,2 C4,0.8954305 4.8954305,-4.95400652e-13 6,-4.95603558e-13 L18,-4.95825603e-13 C19.1045695,-4.96028509e-13 20,0.8954305 20,2 L20,17 C20,18.1045695 19.1045695,19 18,19 L16,19 L16,21 C16,22.1045695 15.1045695,23 14,23 L2,23 C0.8954305,23 1.3527075e-16,22.1045695 0,21 L0,6 C-1.3527075e-16,4.8954305 0.8954305,4 2,4 L4,4 Z M6,4 L14,4 C15.1045695,4 16,4.8954305 16,6 L16,17 L17,17 C17.5522847,17 18,16.5522847 18,16 L18,3 C18,2.44771525 17.5522847,2 17,2 L7,2 C6.44771525,2 6,2.44771525 6,3 L6,4 Z M2,19 L2,20 L14,20 L14,19 L2,19 Z M2,16 L2,17 L14,17 L14,16 L2,16 Z M8,13 L8,14 L14,14 L14,13 L8,13 Z M8,10 L8,11 L14,11 L14,10 L8,10 Z M8,7 L8,8 L14,8 L14,7 L8,7 Z M4,14.55 L4.97,14.55 L4.97,13.51 C5.4900026,13.3966661 5.8799987,13.168335 6.14,12.825 C6.4000013,12.4816649 6.53,12.0700024 6.53,11.59 C6.53,11.2699984 6.46500065,11.0016677 6.335,10.785 C6.20499935,10.5683322 6.04166765,10.3833341 5.845,10.23 C5.64833235,10.0766659 5.4366678,9.9466672 5.21,9.84 C4.9833322,9.7333328 4.77166765,9.6300005 4.575,9.53 C4.37833235,9.4299995 4.21500065,9.32500055 4.085,9.215 C3.95499935,9.10499945 3.89,8.9700008 3.89,8.81 C3.89,8.5833322 3.9533327,8.4200005 4.08,8.32 C4.2066673,8.2199995 4.3899988,8.17 4.63,8.17 C4.8433344,8.17 5.0333325,8.21166625 5.2,8.295 C5.3666675,8.37833375 5.5399991,8.5033325 5.72,8.67 L6.46,7.83 C6.2666657,7.6233323 6.0500012,7.4466674 5.81,7.3 C5.5699988,7.1533326 5.2900016,7.0566669 4.97,7.01 L4.97,6 L4,6 L4,7.03 C3.5266643,7.1233338 3.15500135,7.33166505 2.885,7.655 C2.61499865,7.97833495 2.48,8.3866642 2.48,8.88 C2.48,9.1800015 2.54499935,9.4333323 2.675,9.64 C2.80500065,9.8466677 2.96833235,10.0266659 3.165,10.18 C3.36166765,10.3333341 3.5733322,10.4649994 3.8,10.575 C4.0266678,10.6850005 4.23833235,10.7949995 4.435,10.905 C4.63166765,11.0150006 4.79499935,11.1299994 4.925,11.25 C5.05500065,11.3700006 5.12,11.5166658 5.12,11.69 C5.12,11.9233345 5.05500065,12.0966661 4.925,12.21 C4.79499935,12.3233339 4.5900014,12.38 4.31,12.38 C4.0699988,12.38 3.83500115,12.3316672 3.605,12.235 C3.37499885,12.1383329 3.1333346,11.9933343 2.88,11.8 L2.24,12.79 C2.4733345,13.0033344 2.75166505,13.1749994 3.075,13.305 C3.39833495,13.4350007 3.7066652,13.5166665 4,13.55 L4,14.55 Z" id="path-1"></path>
    </defs>
    <g id="Symbols" stroke="none" stroke-width="1" fill="none" fill-rule="evenodd">
        <g id="Icons-/-Orders">
            <g id="Group" transform="translate(5.000000, 3.000000)">
                <mask id="mask-2" fill="white">
                    <use xlink:href="#path-1"></use>
                </mask>
                <use id="Mask" fill="#68A51C" xlink:href="#path-1"></use>
                <g id="UI/Color/Flat/ASDA-Green-New" mask="url(#mask-2)" fill="#68A51C">
                    <g transform="translate(-5.000000, -3.000000)" id="Base">
                        <rect x="0" y="0" width="30" height="30"></rect>
                    </g>
                </g>
            </g>
        </g>
    </g>
</svg>