<?xml version="1.0" encoding="UTF-8"?>
<svg width="30px" height="30px" viewBox="0 0 30 30" version="1.1" xmlns="http://www.w3.org/2000/svg" xmlns:xlink="http://www.w3.org/1999/xlink">
    <!-- Generator: Sketch 48.2 (47327) - http://www.bohemiancoding.com/sketch -->
    <title>Icons / Printer</title>
    <desc>Created with Sketch.</desc>
    <defs>
        <path d="M19,5 L20,5 C21,5 22,6 22,7 L22,15 C22,16 21,17 20,17 L19,17 L19,21 C19,22 18,23 17,23 L5,23 C4,23 3,22 3,21 L3,17 L2,17 C1,17 0,16 0,15 L0,7 C0,6 1,5 2,5 L3,5 L3,2 C3,1 4,1.98951966e-13 5,1.98951966e-13 L17,4.4408921e-16 C18.1045695,2.41183085e-16 19,0.8954305 19,2 L19,5 Z M6,14 C5.44771525,14 5,14.4477153 5,15 L5,20.5 C5,20.7761424 5.22385763,21 5.5,21 L16.5,21 C16.7761424,21 17,20.7761424 17,20.5 L17,15 C17,14.4477153 16.5522847,14 16,14 L6,14 Z M12,18 L12,19 L6,19 L6,18 L12,18 Z M16,16 L16,17 L6,17 L6,16 L16,16 Z M6,2 C5.44771525,2 5,2.44771525 5,3 L5,5 C5,5.55228475 5.44771525,6 6,6 L16,6 C16.5522847,6 17,5.55228475 17,5 L17,3 C17,2.44771525 16.5522847,2 16,2 L6,2 Z M17,8 L17,10 L19,10 L19,8 L17,8 Z" id="path-1"></path>
    </defs>
    <g id="Symbols" stroke="none" stroke-width="1" fill="none" fill-rule="evenodd">
        <g id="Icons-/-Printer">
            <g id="Group" transform="translate(4.000000, 4.000000)">
                <mask id="mask-2" fill="white">
                    <use xlink:href="#path-1"></use>
                </mask>
                <use id="Mask" fill="#68A51C" xlink:href="#path-1"></use>
                <g id="UI/Color/Flat/ASDA-Green-New" mask="url(#mask-2)" fill="#68A51C">
                    <g transform="translate(-4.000000, -4.000000)" id="Base">
                        <rect x="0" y="0" width="30" height="30"></rect>
                    </g>
                </g>
            </g>
        </g>
    </g>
</svg>