<?xml version="1.0" encoding="UTF-8"?>
<svg width="30px" height="30px" viewBox="0 0 30 30" version="1.1" xmlns="http://www.w3.org/2000/svg" xmlns:xlink="http://www.w3.org/1999/xlink">
    <!-- Generator: Sketch 49.2 (51160) - http://www.bohemiancoding.com/sketch -->
    <title>Rollback</title>
    <desc>Created with Sketch.</desc>
    <defs>
        <path d="M7.02535619,8.96542313 C8.85130169,6.55620651 11.7439151,5 15,5 C20.5228475,5 25,9.4771525 25,15 C25,20.5228475 20.5228475,25 15,25 C11.4992514,25 8.4186493,23.2011389 6.63211489,20.4773378 L8.08465922,19.0247934 C9.47139117,21.4023195 12.0491164,23 15,23 C19.418278,23 23,19.418278 23,15 C23,10.581722 19.418278,7 15,7 C12.2954859,7 9.90442123,8.34203639 8.45642409,10.396491 L10.0599331,12 L5,12 L5,6.94006694 L7.02535619,8.96542313 Z M12,19 L12,17.7341577 C12.4008929,17.5486853 12.7371924,17.2727994 13.0089087,16.9064915 C13.280625,16.5401836 13.4164811,16.1066486 13.4164811,15.6058733 C13.4164811,15.5409579 13.4142539,15.478362 13.4097996,15.4180835 C13.4053452,15.357805 13.3986637,15.295209 13.389755,15.2302937 L12.0534521,15.2302937 L12.0534521,14.0340031 L12.9621381,13.9644513 L13.0423163,13.9644513 C12.9799551,13.778979 12.9287307,13.5935094 12.8886414,13.4080371 C12.8485521,13.2225648 12.8285078,13.0370952 12.8285078,12.8516229 C12.8285078,12.4157629 12.8997766,12.0216401 13.0423163,11.6692427 C13.1848559,11.3168452 13.3830722,11.0177756 13.636971,10.7720247 C13.8908699,10.5262739 14.191535,10.3361676 14.5389755,10.2017002 C14.886416,10.0672327 15.2694857,10 15.688196,10 C16.1870849,10 16.621379,10.0973715 16.9910913,10.2921175 C17.3608036,10.4868634 17.6971032,10.7650677 18,11.1267388 L16.9309577,12.2395672 C16.7795093,12.0448213 16.6191545,11.898764 16.4498886,11.801391 C16.2806228,11.7040181 16.0890879,11.6553323 15.8752784,11.6553323 C15.5189292,11.6553323 15.2360812,11.7619773 15.0267261,11.9752705 C14.8173709,12.1885637 14.7126949,12.5177721 14.7126949,12.9629057 C14.7126949,13.1298308 14.7260578,13.2967534 14.752784,13.4636785 C14.7795102,13.6306036 14.8151445,13.7975262 14.8596882,13.9644513 L16.8374165,13.9644513 L16.8374165,15.2302937 L15.1135857,15.2302937 C15.1224945,15.295209 15.1291759,15.357805 15.1336303,15.4180835 C15.1380847,15.478362 15.1403118,15.5455947 15.1403118,15.6197836 C15.1403118,15.9536338 15.0935417,16.2411116 15,16.4822257 C14.9064583,16.7233397 14.752785,16.9690868 14.5389755,17.2194745 L14.5389755,17.2751159 L18,17.2751159 L18,19 L12,19 Z" id="path-1"></path>
    </defs>
    <g id="Rollback" stroke="none" stroke-width="1" fill="none" fill-rule="evenodd">
        <mask id="mask-2" fill="white">
            <use xlink:href="#path-1"></use>
        </mask>
        <use id="Combined-Shape" fill="#68A51C" xlink:href="#path-1"></use>
        <g id="UI/Color/Flat/ASDA-Green" mask="url(#mask-2)" fill="#68A51C">
            <rect id="Base" x="0" y="0" width="30" height="30"></rect>
        </g>
    </g>
</svg>