<?xml version="1.0" encoding="UTF-8"?>
<svg width="30px" height="30px" viewBox="0 0 30 30" version="1.1" xmlns="http://www.w3.org/2000/svg" xmlns:xlink="http://www.w3.org/1999/xlink">
    <!-- Generator: Sketch 48.2 (47327) - http://www.bohemiancoding.com/sketch -->
    <title>Icons / Settings</title>
    <desc>Created with Sketch.</desc>
    <defs>
        <path d="M17.4411307,11.297296 L19.239305,12.5091589 C19.6559145,12.7899291 19.7995383,13.3362121 19.574889,13.7855762 L18.3553697,16.2249701 C18.1329969,16.6697806 17.6175561,16.883598 17.1456225,16.7268027 L15.3553308,16.1319958 C15.101158,16.0475494 14.8237328,16.0685929 14.5852058,16.1904122 L13.3643992,16.813896 C13.130863,16.9331663 12.9535208,17.1393971 12.8705746,17.388163 L12.2276715,19.3163107 C12.0915319,19.7246104 11.7094141,20 11.2790158,20 L8.72075922,20 C8.29032881,20 7.90818997,19.7245699 7.77207592,19.3162278 L7.12940758,17.3882227 C7.04647362,17.1394209 6.86911847,16.9331569 6.63555538,16.8138728 L5.41479423,16.1904122 C5.17626724,16.0685929 4.89884203,16.0475494 4.64466916,16.1319958 L2.85437747,16.7268027 C2.38244388,16.883598 1.86700312,16.6697806 1.64463027,16.2249701 L0.425111008,13.7855762 C0.20046172,13.3362121 0.344085484,12.7899291 0.760694988,12.5091589 L2.55886927,11.297296 C2.83465945,11.1114297 3,10.8006157 3,10.4680402 L3,9.53518376 C3,9.20083057 2.83289886,8.88859924 2.5547002,8.70313346 L0.73926802,7.49284535 C0.317616381,7.21174425 0.172894326,6.65967171 0.402420195,6.20786887 L1.64218762,3.76748844 C1.86631774,3.32630669 2.37942073,3.11539763 2.84902959,3.27142057 L4.64466916,3.86800418 C4.89884203,3.95245062 5.17626724,3.93140707 5.41479423,3.80958784 L6.63560082,3.18610401 C6.86913695,3.06683368 7.04647924,2.86060288 7.12942537,2.61183698 L7.77232852,0.683689315 C7.90846808,0.275389594 8.29058594,7.90628734e-17 8.72098418,0 L11.2792408,-2.22044605e-16 C11.7096712,4.63484611e-16 12.09181,0.275430095 12.2279241,0.683772234 L12.8705924,2.61177726 C12.9535264,2.86057913 13.1308815,3.06684312 13.3644446,3.18612721 L14.5852058,3.80958784 C14.8237328,3.93140707 15.101158,3.95245062 15.3553308,3.86800418 L17.1456225,3.27319735 C17.6175561,3.11640204 18.1329969,3.33021942 18.3553697,3.77502993 L19.574889,6.21442382 C19.7995383,6.66378786 19.6559145,7.21007094 19.239305,7.49084107 L17.4411307,8.70270402 C17.1653405,8.88857027 17,9.19938426 17,9.53195979 L17,10.4680402 C17,10.8006157 17.1653405,11.1114297 17.4411307,11.297296 Z M10,13.5 C11.9790931,13.5 13.5,11.939683 13.5,10 C13.5,8.06031701 12,6.5 10,6.5 C8,6.5 6.5,8 6.5,10 C6.5,12 8.02090692,13.5 10,13.5 Z" id="path-1"></path>
    </defs>
    <g id="Symbols" stroke="none" stroke-width="1" fill="none" fill-rule="evenodd">
        <g id="Icons-/-Settings">
            <g id="Group" transform="translate(5.000000, 5.000000)">
                <mask id="mask-2" fill="white">
                    <use xlink:href="#path-1"></use>
                </mask>
                <use id="Mask" fill="#68A51C" xlink:href="#path-1"></use>
                <g id="UI/Color/Flat/ASDA-Green-New" mask="url(#mask-2)" fill="#68A51C">
                    <g transform="translate(-5.000000, -5.000000)" id="Base">
                        <rect x="0" y="0" width="30" height="30"></rect>
                    </g>
                </g>
            </g>
        </g>
    </g>
</svg>