<?xml version="1.0" encoding="UTF-8"?>
<svg width="30px" height="30px" viewBox="0 0 30 30" version="1.1" xmlns="http://www.w3.org/2000/svg" xmlns:xlink="http://www.w3.org/1999/xlink">
    <!-- Generator: Sketch 48.2 (47327) - http://www.bohemiancoding.com/sketch -->
    <title>Icons / Star</title>
    <desc>Created with Sketch.</desc>
    <defs>
        <path d="M19.9023438,8.71289062 L15.0390625,13.5566406 L16.2695313,20.0117188 C16.2890625,20.1777344 16.2207031,20.3339844 16.0839844,20.4316406 C16.015625,20.4804688 15.9179688,20.5 15.8496094,20.5 C15.78125,20.5 15.6933594,20.4804688 15.625,20.4316406 L10.0195312,16.8183594 L4.4140625,20.4316406 C4.27734375,20.5195312 4.09179687,20.5195312 3.95507812,20.4316406 C3.81835937,20.3339844 3.75,20.1777344 3.76953125,20.0117188 L5,13.5566406 L0.13671875,8.71289062 C0.01953125,8.60546875 -9.14893161e-15,8.41992188 0.0390625,8.25390625 C0.107421875,8.08789062 0.2734375,8 0.439453125,8 L6.82617187,8 L9.62890625,0.7734375 C9.69726562,0.6171875 9.85351562,0.5 10.0195312,0.5 C10.1855469,0.5 10.3417969,0.6171875 10.4101562,0.7734375 L13.2128906,8 L19.5996094,8 C19.765625,8 19.9316406,8.08789062 20,8.25390625 C20.0390625,8.41992188 20.0195312,8.60546875 19.9023438,8.71289062 Z" id="path-1"></path>
    </defs>
    <g id="Symbols" stroke="none" stroke-width="1" fill="none" fill-rule="evenodd">
        <g id="Icons-/-Star">
            <g id="Group" transform="translate(5.000000, 4.000000)">
                <mask id="mask-2" fill="white">
                    <use xlink:href="#path-1"></use>
                </mask>
                <use id="Mask" fill="#68A51C" xlink:href="#path-1"></use>
                <g id="UI/Color/Flat/ASDA-Green-New" mask="url(#mask-2)" fill="#68A51C">
                    <g transform="translate(-5.000000, -4.000000)" id="Base">
                        <rect x="0" y="0" width="30" height="30"></rect>
                    </g>
                </g>
            </g>
        </g>
    </g>
</svg>