<?xml version="1.0" encoding="UTF-8"?>
<svg width="30px" height="30px" viewBox="0 0 30 30" version="1.1" xmlns="http://www.w3.org/2000/svg" xmlns:xlink="http://www.w3.org/1999/xlink">
    <!-- Generator: Sketch 48.2 (47327) - http://www.bohemiancoding.com/sketch -->
    <title>Icons / Trash</title>
    <desc>Created with Sketch.</desc>
    <defs>
        <path d="M17,1 C17.5,1 18,1.5 18,2 C18,2.5 17.5,3 17,3 L1,3 C0.5,3 2.27373675e-13,2.5 2.27373675e-13,2 C2.27623476e-13,1.5 0.5,1 1,1 L5,1 C5,0.5 5.5,-1.13686838e-13 6,-1.13686838e-13 L12,-1.13686838e-13 C12.5,-1.13686838e-13 13,0.5 13,1 L17,1 Z M1,4 L17,4 L15,18 C15,19 14,20 13,20 L5,20 C4,20 3,19 3,18 L1,4 Z" id="path-1"></path>
    </defs>
    <g id="Symbols" stroke="none" stroke-width="1" fill="none" fill-rule="evenodd">
        <g id="Icons-/-Trash">
            <g id="Group" transform="translate(6.000000, 5.000000)">
                <mask id="mask-2" fill="white">
                    <use xlink:href="#path-1"></use>
                </mask>
                <use id="Mask" fill="#68A51C" xlink:href="#path-1"></use>
                <g id="UI/Color/Flat/ASDA-Green-New" mask="url(#mask-2)" fill="#68A51C">
                    <g transform="translate(-6.000000, -5.000000)" id="Base">
                        <rect x="0" y="0" width="30" height="30"></rect>
                    </g>
                </g>
            </g>
        </g>
    </g>
</svg>