<?xml version="1.0" encoding="UTF-8"?>
<svg width="30px" height="30px" viewBox="0 0 30 30" version="1.1" xmlns="http://www.w3.org/2000/svg" xmlns:xlink="http://www.w3.org/1999/xlink">
    <!-- Generator: Sketch 48.2 (47327) - http://www.bohemiancoding.com/sketch -->
    <title>Icons / Trolley</title>
    <desc>Created with Sketch.</desc>
    <defs>
        <path d="M26,9 L23,20 C22.8290986,20.7031372 22.2202274,21 21.5,21 L9.5,21 C8.77977265,21 8.14648692,20.7031372 8,20 L4,6 L2.56252714,6 C1.69581287,6 1,5.45481238 1,4.5789748 C1,3.70313721 1.69581287,3 2.56252714,3 L5,3 C5.72022735,3 6.82909859,3.29686279 7,4 L8,8 L25,8 C25.625,8 26,8.36842105 26,9 Z M9.5,25 C9.5,23.8367783 10.3387978,23 11.5,23 C12.6514442,23 13.5,23.8367783 13.5,25 C13.5,26.1534467 12.6514442,27 11.5,27 C10.3387978,27 9.5,26.1534467 9.5,25 Z M17.5,25 C17.5,23.8367783 18.3485558,23 19.5,23 C20.6612022,23 21.5,23.8367783 21.5,25 C21.5,26.1534467 20.6612022,27 19.5,27 C18.3485558,27 17.5,26.1534467 17.5,25 Z" id="path-1"></path>
    </defs>
    <g id="Symbols" stroke="none" stroke-width="1" fill="none" fill-rule="evenodd">
        <g id="Icons-/-Trolley">
            <g id="Group">
                <mask id="mask-2" fill="white">
                    <use xlink:href="#path-1"></use>
                </mask>
                <use id="Mask" fill="#68A51C" xlink:href="#path-1"></use>
                <g id="UI/Color/Flat/ASDA-Green-New" mask="url(#mask-2)" fill="#68A51C">
                    <rect id="Base" x="0" y="0" width="30" height="30"></rect>
                </g>
            </g>
        </g>
    </g>
</svg>