<?xml version="1.0" encoding="UTF-8"?>
<svg width="30px" height="30px" viewBox="0 0 30 30" version="1.1" xmlns="http://www.w3.org/2000/svg" xmlns:xlink="http://www.w3.org/1999/xlink">
    <!-- Generator: Sketch 48.2 (47327) - http://www.bohemiancoding.com/sketch -->
    <title>Icons / Truck</title>
    <desc>Created with Sketch.</desc>
    <defs>
        <path d="M16.0500091,16 L8.94999094,16 C8.98278487,16.161555 9,16.3287671 9,16.5 C9,17.8807119 7.88071187,19 6.5,19 C5.11928813,19 4,17.8807119 4,16.5 C4,16.3287671 4.01721513,16.161555 4.05000906,16 L2,16 C1,16 0,15 0,14 L0,2 C0,1 1,0 2,0 L16,0 C17,0 18,1 18,2 L18,4 L21,4 C22,4 23,5 23.5,6 L26,12 L26,14 C26,15 25,16 24,16 L20.9499909,16 C20.9827849,16.161555 21,16.3287671 21,16.5 C21,17.8807119 19.8807119,19 18.5,19 C17.1192881,19 16,17.8807119 16,16.5 C16,16.3287671 16.0172151,16.161555 16.0500091,16 Z M18,10 L18,6 L21.5,6 L23,10 L18,10 Z" id="path-1"></path>
    </defs>
    <g id="Symbols" stroke="none" stroke-width="1" fill="none" fill-rule="evenodd">
        <g id="Icons-/-Truck">
            <g id="Group" transform="translate(3.000000, 6.000000)">
                <mask id="mask-2" fill="white">
                    <use xlink:href="#path-1"></use>
                </mask>
                <use id="Mask" fill="#68A51C" xlink:href="#path-1"></use>
                <g id="UI/Color/Flat/ASDA-Green-New" mask="url(#mask-2)" fill="#68A51C">
                    <rect id="Base" x="0" y="0" width="26" height="19"></rect>
                </g>
            </g>
        </g>
    </g>
</svg>