<?xml version="1.0" encoding="UTF-8"?>
<svg width="30px" height="30px" viewBox="0 0 30 30" version="1.1" xmlns="http://www.w3.org/2000/svg" xmlns:xlink="http://www.w3.org/1999/xlink">
    <!-- Generator: Sketch 48.2 (47327) - http://www.bohemiancoding.com/sketch -->
    <title>Icons / Twitter</title>
    <desc>Created with Sketch.</desc>
    <defs>
        <path d="M10,20 C4.4771525,20 0,15.5228475 0,10 C0,4.4771525 4.4771525,0 10,0 C15.5228475,0 20,4.4771525 20,10 C20,15.5228475 15.5228475,20 10,20 Z M16.80311,6.29785156 C16.3292518,6.50984075 15.8304537,6.65324519 15.2942458,6.71559495 C15.8429237,6.3913762 16.2544321,5.8738732 16.4477163,5.26284555 C15.9489183,5.5621244 15.3815355,5.78034856 14.7954477,5.8988131 C14.3028846,5.40001502 13.6232722,5.07579627 12.8688401,5.07579627 C11.4223257,5.07579627 10.2563852,6.24173678 10.2563852,7.6882512 C10.2563852,7.89400541 10.2688552,8.10599459 10.3125,8.29304387 C8.14272837,8.17457933 6.22235577,7.18945312 4.91924579,5.60576923 C4.70102163,5.99233774 4.56385216,6.3913762 4.56385216,6.87770433 C4.56385216,7.77554087 5.02524038,8.57361779 5.73602764,9.04747596 C5.3058143,9.03500601 4.90677584,8.91654147 4.55138221,8.72325721 L4.55138221,8.75443209 C4.55138221,10.0263672 5.45545373,11.0863131 6.65256911,11.3232422 C6.42810998,11.3855919 6.19118089,11.4167668 5.9542518,11.4167668 C5.79214243,11.4167668 5.63003305,11.3980619 5.46792368,11.366887 C5.79214243,12.401893 6.77103365,13.17503 7.90579928,13.1875 C7.02043269,13.8982873 5.87943209,14.4282602 4.6573768,14.4282602 C4.44538762,14.4282602 4.23963341,14.4157903 4.03387921,14.3846154 C5.18734976,15.1265775 6.5777494,15.4507963 8.0554387,15.4507963 C12.8688401,15.4507963 15.5,11.4604117 15.5,8 L15.5,7.65707632 C16.0050331,7.28921274 16.4477163,6.8340595 16.80311,6.29785156 Z" id="path-1"></path>
    </defs>
    <g id="Symbols" stroke="none" stroke-width="1" fill="none" fill-rule="evenodd">
        <g id="Icons-/-Twitter">
            <g id="Group" transform="translate(5.000000, 5.000000)">
                <mask id="mask-2" fill="white">
                    <use xlink:href="#path-1"></use>
                </mask>
                <use id="Mask" fill="#68A51C" xlink:href="#path-1"></use>
                <g id="UI/Color/Flat/ASDA-Green-New" mask="url(#mask-2)" fill="#68A51C">
                    <g transform="translate(-5.000000, -5.000000)" id="Base">
                        <rect x="0" y="0" width="30" height="30"></rect>
                    </g>
                </g>
            </g>
        </g>
    </g>
</svg>