<?xml version="1.0" encoding="UTF-8"?>
<svg width="30px" height="30px" viewBox="0 0 30 30" version="1.1" xmlns="http://www.w3.org/2000/svg" xmlns:xlink="http://www.w3.org/1999/xlink">
    <!-- Generator: Sketch 48.2 (47327) - http://www.bohemiancoding.com/sketch -->
    <title>Icons / Upload</title>
    <desc>Created with Sketch.</desc>
    <defs>
        <path d="M14,18 L14,13 L16.7442555,12.9853514 C16.8465533,12.9853514 16.9552447,12.9278089 17,12.8191175 C17.0319681,12.7104261 17.0127872,12.5889475 16.9360639,12.5186177 L12.198202,8.07672334 C12.1342658,8.03196806 12.0767233,8 12,8 C11.9232767,8 11.8657342,8.03196806 11.801798,8.07672334 L7.06393612,12.5186177 C6.98721278,12.5889475 6.96803194,12.7104261 7,12.8191175 C7.04475528,12.9278089 7.15344668,12.9853514 7.25574447,12.9853514 L10,13 L10,18 L5.9080884,18 C2.74964414,18 0,15.1613849 0,12.0029407 C0,9.12581534 2.18235285,6.54705855 5.45588213,6.54705855 C5.45588213,2.18235285 8.72941141,2.57432953e-16 12.0029407,0 C15.27647,0 18.5499992,2.18235285 18.5499992,5.45588213 C20.7323521,5.45588213 24.0058814,8.72941141 24.0058814,11.4573525 C24.0058814,15.0633496 21.2442321,18 17.638235,18 L14,18 Z" id="path-1"></path>
    </defs>
    <g id="Symbols" stroke="none" stroke-width="1" fill="none" fill-rule="evenodd">
        <g id="Icons-/-Upload">
            <g id="Group" transform="translate(3.000000, 6.000000)">
                <mask id="mask-2" fill="white">
                    <use xlink:href="#path-1"></use>
                </mask>
                <use id="Mask" fill="#68A51C" xlink:href="#path-1"></use>
                <g id="UI/Color/Flat/ASDA-Green-New" mask="url(#mask-2)" fill="#68A51C">
                    <g transform="translate(-3.000000, -6.000000)" id="Base">
                        <rect x="0" y="0" width="30" height="30"></rect>
                    </g>
                </g>
            </g>
        </g>
    </g>
</svg>