<?xml version="1.0" encoding="UTF-8"?>
<svg width="30px" height="30px" viewBox="0 0 30 30" version="1.1" xmlns="http://www.w3.org/2000/svg" xmlns:xlink="http://www.w3.org/1999/xlink">
    <!-- Generator: Sketch 48.2 (47327) - http://www.bohemiancoding.com/sketch -->
    <title>Icons / User</title>
    <desc>Created with Sketch.</desc>
    <defs>
        <path d="M10,20 C4.4771525,20 0,15.5228475 0,10 C0,4.4771525 4.4771525,0 10,0 C15.5228475,0 20,4.4771525 20,10 C20,15.5228475 15.5228475,20 10,20 Z M10,18.5 C12,18.5 14,17.6666667 16,16 C14.6404047,14.7387627 11.6875,14.6587686 11.6875,12.9040527 C11.6875,12.9040527 13.375,11.2165527 13.375,8.125 C13.375,6.26611328 11.8588867,4.75 10,4.75 C8.14111328,4.75 6.625,6.26611328 6.625,8.125 C6.625,11.2165527 8.3125,12.9040527 8.3125,12.9040527 C8.3125,14.6509691 5.36856952,14.7550711 4,16 C6,17.6666667 8,18.5 10,18.5 Z" id="path-1"></path>
    </defs>
    <g id="Symbols" stroke="none" stroke-width="1" fill="none" fill-rule="evenodd">
        <g id="Icons-/-User">
            <g id="Group" transform="translate(5.000000, 5.000000)">
                <mask id="mask-2" fill="white">
                    <use xlink:href="#path-1"></use>
                </mask>
                <use id="Mask" fill="#68A51C" xlink:href="#path-1"></use>
                <g id="UI/Color/Flat/ASDA-Green-New" mask="url(#mask-2)" fill="#68A51C">
                    <g transform="translate(-5.000000, -5.000000)" id="Base">
                        <rect x="0" y="0" width="30" height="30"></rect>
                    </g>
                </g>
            </g>
        </g>
    </g>
</svg>