<?xml version="1.0" encoding="UTF-8"?>
<svg width="60px" height="40px" viewBox="0 0 60 40" version="1.1" xmlns="http://www.w3.org/2000/svg" xmlns:xlink="http://www.w3.org/1999/xlink">
    <!-- Generator: Sketch 51.2 (57519) - http://www.bohemiancoding.com/sketch -->
    <title>Icons / Credit Cards / Large / Diners</title>
    <desc>Created with Sketch.</desc>
    <defs></defs>
    <g id="ASDA-Pattern-Library" stroke="none" stroke-width="1" fill="none" fill-rule="evenodd">
        <g id="12---Credit-Cards" transform="translate(-800.000000, -286.000000)">
            <g id="Content" transform="translate(600.000000, 227.000000)">
                <g id="Diners" transform="translate(200.000000, 0.000000)">
                    <g id="Atoms-/-Icons-/-Credit-Cards-/-Large-/-Diners" transform="translate(0.000000, 59.000000)">
                        <g id="Diners">
                            <rect id="dc-bg" fill="#2183CB" x="0" y="0" width="60" height="40" rx="2"></rect>
                            <path d="M32.1364295,32 L27.2782552,32 C19.9317478,31.8956586 14.007145,26.5742477 14.007145,20.1050815 C13.7701609,13.6359152 19.4577795,8.21016292 26.6857949,8.00148014 L32.1364295,8.00148014 C39.7199211,7.89713875 45.8815079,13.3228911 46,20.0007401 L46,20.1050815 C45.7630159,26.6785891 39.7199211,32 32.1364295,32 Z M26,10 C20.5263158,10 16,14.5263158 16,20 C16,25.4736842 20.5263158,30 26,30 C31.4736842,30 36,25.4736842 36,20 C36,14.5263158 31.4736842,10 26,10 Z M28,13 C31.4987025,13.992126 33.697887,17.8503937 32.7982206,21.7086614 C32.198443,24.3543307 30.3991103,26.3385827 28,27 L28,13 Z M19.2121454,18.1811024 C19.8233609,15.6456693 21.6570073,13.6614173 24,13 L24,27 C20.4345763,26.007874 18.2953221,22.0393701 19.2121454,18.1811024 Z" id="dc-logo" fill="#FFFFFF"></path>
                        </g>
                    </g>
                </g>
            </g>
        </g>
    </g>
</svg>