<?xml version="1.0" encoding="UTF-8"?>
<svg width="60px" height="40px" viewBox="0 0 60 40" version="1.1" xmlns="http://www.w3.org/2000/svg" xmlns:xlink="http://www.w3.org/1999/xlink">
    <!-- Generator: Sketch 51.2 (57519) - http://www.bohemiancoding.com/sketch -->
    <title>Icons / Credit Cards / Large / Visa</title>
    <desc>Created with Sketch.</desc>
    <defs></defs>
    <g id="ASDA-Pattern-Library" stroke="none" stroke-width="1" fill="none" fill-rule="evenodd">
        <g id="12---Credit-Cards" transform="translate(-1000.000000, -606.000000)">
            <g id="Content" transform="translate(600.000000, 227.000000)">
                <g id="Visa" transform="translate(400.000000, 309.000000)">
                    <g id="Atoms-/-Icons-/-Credit-Cards-/-Large-/-Visa" transform="translate(0.000000, 70.000000)">
                        <g id="Visa">
                            <rect id="visa-bg" fill="#224DBA" x="0" y="0" width="60" height="40" rx="2"></rect>
                            <path d="M18.5004431,26.8909655 L14.8656061,26.8909655 L12.1399215,16.0301637 C12.010549,15.5305668 11.7358538,15.0888942 11.3317862,14.8807289 C10.3233892,14.3576002 9.21220305,13.9412695 8,13.731294 L8,13.3131531 L13.8554369,13.3131531 C14.6635723,13.3131531 15.2696738,13.9412695 15.3706907,14.6707533 L16.7849276,22.5050117 L20.4179923,13.3131531 L23.9518123,13.3131531 L18.5004431,26.8909655 Z M25.9721507,26.8909655 L22.5393477,26.8909655 L25.3660492,13.3131531 L28.7988523,13.3131531 L25.9721507,26.8909655 Z M33.2400523,17.0746108 C33.3410692,16.3433168 33.9471708,15.925176 34.6542892,15.925176 C35.7654753,15.8201882 36.9759062,16.0301637 37.9860754,16.5514822 L38.5921769,13.6281164 C37.5820077,13.2099755 36.4708216,13 35.4624246,13 C32.1306384,13 29.7062323,14.8807289 29.7062323,17.4909416 C29.7062323,19.4766582 31.42352,20.5192951 32.635723,21.1474115 C33.9471708,21.7737177 34.4522554,22.1918586 34.3512384,22.8181649 C34.3512384,23.7576242 33.3410692,24.1757651 32.3326723,24.1757651 C31.1204692,24.1757651 29.9082662,23.862612 28.7988523,23.3394833 L28.1927507,26.2646593 C29.4049538,26.7859778 30.7164015,26.9959533 31.9286046,26.9959533 C35.6644584,27.0991309 37.9860754,25.2202122 37.9860754,22.400024 C37.9860754,18.8485418 33.2400523,18.6403764 33.2400523,17.0746108 L33.2400523,17.0746108 Z M50,26.8909655 L47.2743154,13.3131531 L44.3465969,13.3131531 C43.7404954,13.3131531 43.1343939,13.731294 42.93236,14.3576002 L37.8850584,26.8909655 L41.4188784,26.8909655 L42.1242247,24.9070591 L46.46618,24.9070591 L46.8702477,26.8909655 L50,26.8909655 Z M44.8516815,16.9696231 L45.8600785,22.0868709 L43.0333769,22.0868709 L44.8516815,16.9696231 Z" id="visa-logo" fill="#FFFFFF"></path>
                        </g>
                    </g>
                </g>
            </g>
        </g>
    </g>
</svg>