<svg height="33" viewBox="0 0 111 33" width="111" xmlns="http://www.w3.org/2000/svg"><path d="m100.697948 1.012292h-11.3613044l-6.4781914 18.7519636c.2896518-1.5574437.3408059-2.8023565.3408059-3.3434928 0-7.85540102-4.501672-15.4084708-15.0766208-15.4084708h-12.1447819l.0357636 18.6529604c-1.0502093-5.2993885-5.8915801-6.7200237-11.9127062-8.5495322-2.2504485-.6939095-3.4858977-1.7949184-3.0349222-2.82164719.3853167-.89513101 1.7647059-1.17639772 3.4391725-.94546412 2.5549372.36641169 4.5947902 1.22129839 6.5592407 2.28904756l2.6840405-6.65106509c-.6057665-.29822918-4.9543084-2.90834429-10.4042137-2.90834429-7.6000386 0-12.4541425 3.70801979-12.4541425 9.17947205 0 4.87654598 3.0029232 7.71149708 8.5251307 9.30053758 5.9383052 1.722523 7.4443618 2.4153238 7.2660975 4.1238777-.1546802 1.4718552-3.83534 3.2651106-12.8413414-2.2758546l-2.6755147 5.5370849-8.2602809-24.9310727h-11.3567651l-10.73328296 30.9919988h8.95152563l1.73434313-5.0042908h10.5l1.7839856 5.0042908h9.3975186l-1.0658213-3.031738c3.1777551 1.8369365 7.1172856 3.5171087 11.8295531 3.5171087 7.2214761 0 11.1238036-3.9422793 12.054764-7.7218076v7.2364369h12.1107899c7.2180437 0 10.9945896-3.4427178 12.9675659-7.1257928l-2.4775418 7.1257928h8.9453252l1.7905044-5.0042908h10.6633564l1.571997 5.0042908h9.409145zm-87.197948 18.987708 3.3375459-10.64760143 3.1624541 10.64760143zm51.5 4.0118596v-15.0118596h2.1348759c3.0433371 0 6.3651241 1.2318086 6.3651241 7.5059298 0 5.5574842-2.9342559 7.5059298-6.3389935 7.5059298zm26.5-4.0118596 3.1839085-10.52121434 3.3160915 10.52121434z" fill="#78be20" fill-rule="evenodd"/></svg>