<svg height="32" viewBox="0 0 32 32" width="32" xmlns="http://www.w3.org/2000/svg"><path d="m26 24c0 1.1045695-.8954305 2-2 2h-16c-1.1045695 0-2-.8954305-2-2v-17.5c0-.27614237.22385763-.5.5-.5h19c.2761424 0 .5.22385763.5.5zm-2-12h-16v11.5c0 .2761424.22385763.5.5.5h15c.2761424 0 .5-.2238576.5-.5zm-11.5 7c.2761424 0 .5.2238576.5.5v1c0 .2761424-.2238576.5-.5.5h-1c-.2761424 0-.5-.2238576-.5-.5v-1c0-.2761424.2238576-.5.5-.5zm4 0c.2761424 0 .5.2238576.5.5v1c0 .2761424-.2238576.5-.5.5h-1c-.2761424 0-.5-.2238576-.5-.5v-1c0-.2761424.2238576-.5.5-.5zm-4-4c.2761424 0 .5.2238576.5.5v1c0 .2761424-.2238576.5-.5.5h-1c-.2761424 0-.5-.2238576-.5-.5v-1c0-.2761424.2238576-.5.5-.5zm4 0c.2761424 0 .5.2238576.5.5v1c0 .2761424-.2238576.5-.5.5h-1c-.2761424 0-.5-.2238576-.5-.5v-1c0-.2761424.2238576-.5.5-.5zm4 0c.2761424 0 .5.2238576.5.5v1c0 .2761424-.2238576.5-.5.5h-1c-.2761424 0-.5-.2238576-.5-.5v-1c0-.2761424.2238576-.5.5-.5zm3.5-7h-16v2h16z" fill="#3d3d3d"/></svg>