<svg height="32" viewBox="0 0 32 32" width="32" xmlns="http://www.w3.org/2000/svg"><path d="m16 4c1.1045695 0 2 .8954305 2 2v10.9955339h2c1.1045695 0 2 .8954305 2 2v4c0 .5522848.4477153 1 1 1s1-.4477152 1-1v-9c-1.1045695 0-2-.8954305-2-2 0-.5831471.2495756-1.1080028.6477401-1.4735803l-3.2950037-3.29643518c-.1937956-.19551646-.1931283-.51091293.0015296-.70557087l.7063942-.70639416c.1952621-.19526215.5118446-.19526215.7071068 0l4.6464466 4.64644661c.3750727.3750728.5857864.8837806.5857864 1.4142136v11.1213203c0 1.6568543-1.3431458 3-3 3s-3-1.3431457-3-3v-3.5c0-.2761424-.2238576-.5-.5-.5h-1.5v7.0044661c0 1.1045695-.8954305 2-2 2h-8c-1.1045695 0-2-.8954305-2-2v-20c0-1.1045695.8954305-2 2-2zm-.5 2h-7c-.27614237 0-.5.22385763-.5.5v19c0 .2761424.22385763.5.5.5h7c.2761424 0 .5-.2238576.5-.5v-19c0-.27614237-.2238576-.5-.5-.5zm-2 2c.2761424 0 .5.22385763.5.5v3c0 .2761424-.2238576.5-.5.5h-3c-.2761424 0-.5-.2238576-.5-.5v-3c0-.27614237.2238576-.5.5-.5z" fill="#3d3d3d"/></svg>