<svg height="32" viewBox="0 0 32 32" width="32" xmlns="http://www.w3.org/2000/svg"><path d="m20.2236068 4.1118034 7.5 3.75c.169392.08469601.2763932.25782757.2763932.44721359v18.88196601c0 .2761424-.2238576.5-.5.5-.0776225 0-.1541791-.0180725-.2236068-.0527864l-7.0527864-3.5263932c-.1407637-.0703819-.3064499-.0703819-.4472136 0l-7.5527864 3.7763932c-.1407637.0703819-.3064499.0703819-.4472136 0l-7.5-3.75c-.16939201-.084696-.2763932-.2578276-.2763932-.4472136v-18.88196601c0-.27614237.22385763-.5.5-.5.07762255 0 .15417908.01807255.2236068.05278641l7.0527864 3.5263932c.1407637.07038187.3064499.07038187.4472136 0l7.5527864-3.7763932c.1407637-.07038187.3064499-.07038187.4472136 0zm-.2236068 2.12426458-8 4.00000002-6-3.00000002v15.52786402l6 3 8-4 6 3v-6.558915l-.0366132.0173842c-.4669413.2120529-1.0114111.0353309-1.2696517-.3936147l-.0543475-.1034026c-.2283647-.5028599-.0058425-1.0956345.4970173-1.3239992.2809096-.1275701.56864-.2671466.8631413-.4187456l.0004538-6.74657112zm2.492084 11.05370902c.5421849-.1051376 1.0669436.2491592 1.1720812.7913442.1051377.5421849-.2491592 1.0669436-.7913441 1.1720812-.5642755.1094214-1.1014723.1634723-1.6441674.1633928-.2174109-.0009664-.4368023-.0117074-.6581091-.0321669-.5499397-.0508414-.9545388-.5378706-.9036974-1.0878103.0508413-.5499396.5378706-.9545387 1.0878102-.9036973.1634461.0151104.3243859.0229897.47857.0236842.4073013.0000528.8172607-.0411959 1.2588566-.1268279zm-12.3101035-3.52201 1.0606602 1.0606601 1.0606602-1.0606601c.1952621-.1952622.5118446-.1952622.7071067 0l.7071068.7071067c.1952622.1952622.1952622.5118447 0 .7071068l-1.059953 1.0599531 1.059953 1.0613673c.1952622.1952621.1952622.5118446 0 .7071067l-.7071068.7071068c-.1952621.1952622-.5118446.1952622-.7071067 0l-1.0606602-1.0606602-1.0606602 1.0606602c-.19526213.1952622-.51184462.1952622-.70710677 0l-.70710678-.7071068c-.19526214-.1952621-.19526214-.5118446 0-.7071067l1.06066017-1.0606602-1.06066017-1.0606602c-.19526214-.1952621-.19526214-.5118446 0-.7071068l.70710678-.7071067c.19526215-.1952622.51184464-.1952622.70710677 0zm4.9753232 2.2771771c.2973442-.4654083.9156773-.6016512 1.3810856-.304307.5621596.3591575 1.1062267.660197 1.631709.9035092.501168.232054.719328.8264479.487274 1.3276159s-.8264479.719328-1.3276159.487274c-.6098835-.2823921-1.2324346-.6268579-1.8681457-1.0330066-.4654083-.2973442-.6016511-.9156773-.304307-1.3810855z" fill="#3d3d3d"/></svg>