<svg height="32" viewBox="0 0 32 32" width="32" xmlns="http://www.w3.org/2000/svg"><path d="m5 16v7c0 1.1045695.8954305 2 2 2l3.041438.0004575.1418294.0061009c.4625213.0312637.8624789.184743 2.3960082.8486361 1.78755.7738633 3.1589978 1.1448055 4.9207244 1.1448055h4.75c1.6279064 0 2.9105195-1.2552286 3.1922399-2.8423931.0146107-.0823144.0273428-.1909091.0381962-.3257842l.010314-.1436297c.0068179-.1082195.0486376-.2112882.1191527-.2936627l.1743557-.2119922c.0492778-.0631073.0897149-.1186576.1213111-.1666512.3825264-.5810431.5944304-1.2826981.5944304-2.0158869l-.0055585-.1559772-.0166458-.2058873c-.0092184-.0957067.0093554-.1920416.0534957-.2774605.1034037-.2001037.1767666-.358029.2200888-.4737758.1631432-.4358809.2486198-.9045633.2486198-1.3868992 0-.3998653-.0596095-.7907802-.1739605-1.1616705-.0308294-.0999929-.0804515-.2287873-.1488666-.3863834l-.0548947-.1235702c-.0460949-.1018896-.0567063-.2162898-.0301385-.3249193.1052402-.4303022.1578603-.7647877.1578603-1.0034566 0-1.9910304-1.7346291-3.5-3.75-3.5h-2.5c-.2761424 0-.5-.2238576-.5-.5v-3.5c0-1.71606658-1.0699445-3-3-3-1.5168384 0-2.5354224 1.01858401-2.9701425 2.75746437l-.2398076.79986545c-.3037147.99178776-.5420619 1.68137868-.7000158 2.02798698-.6451157 1.4156191-1.6111228 2.5147937-3.09006744 3.4146832h-2.99996666c-1.1045695 0-2 .8954305-2 2zm17.25 9h-4.75c-1.3278036 0-2.3917218-.2601372-3.7736946-.8309812l-1.2585242-.5372114c-1.1725791-.4923424-1.5825402-.6031084-2.265813-.6275433l-.2019682-.0042641h-2.5c-.27614237 0-.5-.2238576-.5-.5v-6c0-.2761424.22385763-.5.5-.5h3.0405001l.2315037-.1331484c1.9699842-1.1330286 3.288073-2.587202 4.1379621-4.4521685.2495544-.5476132.5931642-1.57844258 1.0495407-3.13299704.2425825-.96693674.5573318-1.28168606 1.0404934-1.28168606.7366112 0 1 .31606658 1 1v4c0 1.1045695.8954305 2 2 2h3c.9679581 0 1.75.6803054 1.75 1.5 0 .2583636-.0710203.5219903-.2200314.8291553l-.1328709.273894c-.0816123.1682319-.0625371.3679422.0494462.517683l.182317.243789c.2393267.3200207.3711391.7139008.3711391 1.1354787 0 .4390441-.1386933.8439663-.390047 1.1661954l-.1538433.1972232c-.0968413.1241481-.1295474.2866599-.0882707.4386047l.0655727.2413815c.0442914.1630426.0665883.3146973.0665883.4565952 0 .5470312-.2477071 1.0341203-.6359183 1.2950201l-.2599889.1747272c-.1590117.1068648-.2429786.2951944-.2161921.4848976l.0437967.3101703c.0149587.1059382.0314086.1715232.0661231.2914531-.0256674.8124565-.5893765 1.4437317-1.2478205 1.4437317z" fill="#3d3d3d"/></svg>