<svg height="32" viewBox="0 0 32 32" width="32" xmlns="http://www.w3.org/2000/svg"><path d="m16 23.5-6.7444722 3.5457789c-.2444223.1285004-.54673587.0345271-.67523628-.2098952-.05116953-.0973302-.06882687-.2088143-.05023845-.3171931l1.28807957-7.5100801-5.45639263-5.3186683c-.19774179-.1927507-.20178794-.5093073-.00903733-.7070491.0767543-.0787418.17732551-.1299854.28614402-.1457976l7.5405492-1.095706 3.3722361-6.83289662c.1222111-.24762683.422024-.34929633.6696509-.22708519.0986063.04866512.17842.12847888.2270851.22708519l3.3722361 6.83289662 7.5405492 1.095706c.2732724.0397088.4626132.2934302.4229043.5667026-.0158122.1088185-.0670558.2093898-.1457976.2861441l-5.4563926 5.3186683 1.2880795 7.5100801c.0466805.2721683-.1361134.5306462-.4082816.5773267-.1083788.0185884-.2198629.0009311-.3171931-.0502384z" fill="#3d3d3d"/></svg>