<svg height="32" viewBox="0 0 32 32" width="32" xmlns="http://www.w3.org/2000/svg"><g fill="none" fill-rule="nonzero"><path d="m16 20c1.1045695 0 2 .8954305 2 2s-.8954305 2-2 2-2-.8954305-2-2 .8954305-2 2-2z" fill="#d43030"/><path d="m22.8960279 4.80924371c.2288783 1.17781474.0774269 2.6572205-.4282641 4.46073604-.0615316.21944873-.124631.43020354-.1896483.63249421l5.3571022-1.27596526.1885456.92424639c.2477276 1.21269591-.0109843 2.47129001-.7275777 3.54112661-.4353907.6537395-1.0117473 1.1894949-1.6817548 1.5763238-.4284597.2473714-.8930211.4322128-1.3850575.5495436l-.7096115.1685022.0432788.0917715c.4220184.9120914.6369594 1.8826842.6369594 2.885187 0 .9865477-.214941 2.0954168-.621232 3.1989676-.4010485 1.0955733-.9803407 2.1618958-1.6749672 3.0899421-.7522936 1.0025027-1.5989515 1.8029094-2.5190039 2.3772877-1.0301442.6435163-2.1022281.9705928-3.1847969.9705928s-2.1520315-.3270765-3.1847969-.9705928c-.9200524-.5743783-1.7667103-1.374785-2.5190039-2.3772877-.69462646-.9280463-1.27391873-1.997028-1.67496722-3.0899421-.40629096-1.1062099-.62123198-2.2124199-.62123198-3.1989676 0-.9998436.21494102-1.9704365.63695937-2.885187l.04367116-.0905141-.71000386-.1697596c-.39362909-.0938647-.7696742-.2309361-1.12371846-.4086642l-.26133902-.1408794c-.67000748-.3868289-1.24636409-.9225843-1.6817548-1.5763238-.66882049-.9985142-.93877531-2.161457-.77038509-3.29804498l.04280737-.24308163.18854567-.92424639 5.66573896 1.34990628.236659.06463702c-.0811306-.24413825-.1592243-.5010225-.2349441-.77107225-.50569099-1.80351554-.65714244-3.2829213-.42826408-4.46073604.10535179-.54214338.63025038-.89623293 1.17239368-.79088114.5421434.10535179.896233.63025034.7908812 1.17239372-.0678472.34914377-.0849649.76412182-.049355 1.24320971.2322679-.06213173.4293054-.17384279.6027-.33439334.4330578-.40097947.7887046-.7961426 1.0678737-1.18387739.3227025-.44819804.947641-.5499322 1.395839-.22722961.4481981.32270259.5499322.94764103.2272296 1.39583907-.3608309.5011541-.8051841.99487985-1.3321263 1.48278928-.4466633.41357717-.9705994.690343-1.556351.82890053l-.0523106.01145903.0872218.32256668c.0771871.27528305.1539364.52850471.2315972.76136617.2799062-.02642969.4952436-.11376885.6702502-.2596077.3506951-.29224593.6368861-.57843695.8593156-.85647377.3450095-.43126193.9743019-.50118331 1.4055638-.15617376.431262.34500955.5011834.97430192.1561738 1.40556386-.3109039.38862985-.6913795.76910545-1.1406844 1.14352625-.2957161.2464301-.627031.4302573-.9885463.5520309l.1242248.1170057.2706908-.0850448c.7837677-.2317929 1.6101641-.3522131 2.4560675-.3522131 1.0709014 0 2.1105384.1923248 3.0713268.5596372l.1400721-.1115596.1343418-.1278254c-.3615153-.1217736-.6928302-.3056008-.9885463-.5520309-.4493049-.3744208-.8297805-.7548964-1.1406844-1.14352625-.3450096-.43126194-.2750882-1.06055431.1561738-1.40556386.4312619-.34500955 1.0605543-.27508817 1.4055638.15617376.2224295.27803682.5086205.56422784.8593156.85647377.1750066.14583885.390344.23317801.6702502.2596077.0517739-.15524097.1031426-.31953093.154506-.49337391l.0770912-.26799226.0872218-.32256668-.0523106-.01145903c-.5857516-.13855753-1.1096877-.41532336-1.556351-.82890053-.5269422-.48790943-.9712954-.98163518-1.3321263-1.48278928-.3227026-.44819804-.2209685-1.07313648.2272296-1.39583907.448198-.32270259 1.0731365-.22096843 1.395839.22722961.2791691.38773479.6348159.78289792 1.0678737 1.18387739.1733946.16055055.3704321.27226161.6027.33439334.0356099-.47908789.0184922-.89406594-.049355-1.24320971-.1053518-.54214338.2487378-1.06704193.7908812-1.17239372.5421433-.10535179 1.0670419.24873776 1.1723937.79088114zm-6.8934067 8.19075629c-1.6310371 0-3.1527255.5770367-4.2917905 1.6144211-.5437272.4968261-.9645059 1.0679245-1.257821 1.701433-.3016812.6539125-.4530097 1.338839-.4530097 2.0473557 0 .7394521.1700017 1.6147344.4988106 2.5099838.3343661.9111953.8207116 1.8084628 1.3970695 2.5785006.6108515.8140177 1.2779454 1.4438553 1.977001 1.8802686.7263657.4525986 1.4326563.6680372 2.1271189.6680372.6952374 0 1.4031958-.2158143 2.125667-.6671317.7005075-.4373188 1.3676014-1.0671564 1.9769683-1.8791932.5797394-.7745531 1.0649519-1.6691579 1.3992919-2.5824886.3277639-.890259.4980728-1.7676645.4980728-2.5079767 0-.7108098-.1511613-1.39498-.451869-2.0448876-.2944558-.6359766-.7152345-1.207075-1.26051-1.7053173-1.1326878-1.0371666-2.6515678-1.6130049-4.2849998-1.6130049zm2.9973788 4c.5522847 0 1 .4477153 1 1s-.4477153 1-1 1-1-.4477153-1-1 .4477153-1 1-1zm-6 0c.5522847 0 1 .4477153 1 1s-.4477153 1-1 1-1-.4477153-1-1 .4477153-1 1-1zm-6.82970362-5.8873303.05346797.178184c.07985382.2363438.19392116.4673343.34173157.6880076.26422075.396715.61113077.7211904 1.02007327.9572934.1961825.1132661.4050216.205028.62514097.2743435l.22382849.0617984 1.44734865.3440935.2238563-.2336806.2559864-.2447461c.1384305-.1260737.2809673-.2469793.4273289-.3626066l.1603554-.1234282c-.2739442-.2495138-.5981743-.4552804-.96090953-.5978238l-.22216753-.0777834-.19935623-.0543653zm19.65940722 0-3.3966846.8092864-.1993562.0543653c-.4527529.1396324-.8535536.3757249-1.182679.6758426l.0952918.0708195c.169198.1313265.3333409.2697059.4919944.4149799l.2404558.2292494.2393869.2491773 1.4473486-.3440935c.3033156-.0723286.5873928-.1851205.8489695-.3361419.4089425-.236103.7558525-.5605784 1.0200733-.9572934.1478104-.2206733.2618777-.4516638.3417315-.6880076z" fill="#3d3d3d"/></g></svg>