<svg height="32" viewBox="0 0 32 32" width="32" xmlns="http://www.w3.org/2000/svg"><path d="m25.5 6c.2761424 0 .5.22385763.5.5v19c0 .2761424-.2238576.5-.5.5h-8.5v-6h-2v6h-8.5c-.27614237 0-.5-.2238576-.5-.5v-19c0-.27614237.22385763-.5.5-.5zm-6.2426422 7.2640373c-.1419278-.0682822-.307731-.0657088-.4474713.0069452-.1617415.0841588-.2903388.1475844-.3857651.1903286-.7967088.356869-1.6062583.5386889-2.4241214.5386889-.8128355 0-1.6174593-.1795914-2.4094272-.5321275-.0987324-.0439496-.2321218-.1095569-.4001682-.1968219-.139946-.0726726-.3059721-.0750767-.4479635-.0064864l-.1036513.0497709c-.0979701.0466022-.1788228.0838508-.242558.1117459-.8669441.3794366-1.663198.573919-2.3962318.573919-.6196773 0-1.28453381-.1389836-1.99908236-.4111946l-.00091764 10.4111946h5v-5.5c0-.2761424.2238576-.5.5-.5h5c.2761424 0 .5.2238576.5.5v5.5h5.0000855v-10.4115768c-.7149294.2724631-1.3801182.4115768-2.0000855.4115768-.7130713 0-1.4859663-.1840341-2.3255612-.5433315-.1006764-.0430835-.2397033-.107294-.417081-.1926312zm4.7426422-5.2640373h-16l.00079936 3.403198c.80198553.4029713 1.47238667.596802 1.99920064.596802.6337745 0 1.475361-.2805288 2.5038611-.8682431l.2683018-.1533154c.1644332-.0939618.3678409-.086956.5254196.0180964l.2571177.1714118c.842956.5619707 1.6531948.8320503 2.4452998.8320503s1.6023438-.2700796 2.4452998-.8320503l.2571177-.1714118c.1575787-.1050524.3609864-.1120582.5254196-.0180964l.2683018.1533154c1.0285001.5877143 1.8700866.8682431 2.5038611.8682431.5270359 0 1.1977799-.193994 2.0002142-.5973113z" fill="#3d3d3d"/></svg>