<svg height="32" viewBox="0 0 32 32" width="32" xmlns="http://www.w3.org/2000/svg"><path d="m17.4350288 4.70710678 10.2530484 10.25304832c.1952621.1952622.1952621.5118446 0 .7071068l-.7954952.7954951c-.1952621.1952622-.5118446.1952622-.7071067 0l-1.1863685-1.1864367.0008932 10.7236797c0 1.1045695-.8954305 2-2 2h-5.446994c-.2761423 0-.5-.2238576-.5-.5v-6.0031663c0-.2761424-.2238576-.5-.5-.5h-1.0336746c-.2755622 0-.4991788.2229529-.4999978.4985139l-.0178519 6.0061385c-.000819.275561-.2244356.4985139-.4999978.4985139h-5.5014839c-1.1045695 0-2-.8954305-2-2l-.00089322-10.6806797-1.14295148 1.1434367c-.19526215.1952622-.51184463.1952622-.70710678 0l-.79549513-.7954951c-.19526215-.1952622-.19526215-.5118446 0-.7071068l10.25304831-10.25304832c.7810486-.78104858 2.0473786-.78104858 2.8284271 0zm-1.7677669 1.94454365-6.66815512 6.66766987.00089322 12.1806797c0 .2761424.22385763.5.5.5h3c.2761424 0 .5-.2238576.5-.5v-4.5c0-1.1045695.8954305-2 2-2h2c1.1045695 0 2 .8954305 2 2v4.5c0 .2761424.2238576.5.5.5h3c.2761424 0 .5-.2238576.5-.5l-.0008932-12.2236797-6.6247381-6.62466987c-.1952622-.19526215-.5118447-.19526215-.7071068 0z" fill="#3d3d3d" fill-rule="evenodd"/></svg>