<svg height="32" viewBox="0 0 32 32" width="32" xmlns="http://www.w3.org/2000/svg"><path d="m12 14c0 1.3058822-.8343774 2.4168852-1.9990993 2.8289758l-.0009007 10.6710242c0 .2761424-.22385763.5-.5.5h-1c-.27614237 0-.5-.2238576-.5-.5l-.00090072-10.6710242c-1.16472185-.4120906-1.99909928-1.5230936-1.99909928-2.8289758s.83437743-2.4168852 1.99909928-2.8289758l.00090072-6.6710242c0-.27614237.22385763-.5.5-.5h1c.27614237 0 .5.22385763.5.5l.0009007 6.6710242c1.1647219.4120906 1.9990993 1.5230936 1.9990993 2.8289758zm-2 0c0-.5522847-.44771525-1-1-1-.51283584 0-.93550716.3860402-.99327227.8833789l-.00672773.1166211c0 .5522847.44771525 1 1 1 .51283584 0 .93550716-.3860402.99327227-.8833789zm9 7c0 1.3062521-.8348501 2.4175144-2.0000889 2.8293257l.0000889 3.6706743c0 .2761424-.2238576.5-.5.5h-1c-.2761424 0-.5-.2238576-.5-.5l-.0009007-3.6710242c-1.1647219-.4120906-1.9990993-1.5230936-1.9990993-2.8289758s.8343774-2.4168852 1.9990993-2.8289758l.0009007-13.6710242c0-.27614237.2238576-.5.5-.5h1c.2761424 0 .5.22385763.5.5l-.0000889 13.6706743c1.1652388.4118113 2.0000889 1.5230736 2.0000889 2.8293257zm-2 0c0-.5522847-.4477153-1-1-1-.5128358 0-.9355072.3860402-.9932723.8833789l-.0067277.1166211c0 .5522847.4477153 1 1 1 .5128358 0 .9355072-.3860402.9932723-.8833789zm9-10c0 1.3062521-.8348501 2.4175144-2.0000889 2.8293257l.0000889 13.6706743c0 .2761424-.2238576.5-.5.5h-1c-.2761424 0-.5-.2238576-.5-.5l-.0009007-13.6710242c-1.1647219-.4120906-1.9990993-1.5230936-1.9990993-2.8289758 0-1.30588222.8343774-2.41688515 1.9990993-2.82897577l.0009007-3.67102423c0-.27614237.2238576-.5.5-.5h1c.2761424 0 .5.22385763.5.5l-.0000889 3.67067428c1.1652388.4118113 2.0000889 1.52307366 2.0000889 2.82932572zm-2 0c0-.5522847-.4477153-1-1-1-.5128358 0-.9355072.3860402-.9932723.8833789l-.0067277.1166211c0 .5522847.4477153 1 1 1 .5128358 0 .9355072-.3860402.9932723-.8833789z" fill="#3d3d3d" fill-rule="evenodd"/></svg>