<svg height="32" viewBox="0 0 32 32" width="32" xmlns="http://www.w3.org/2000/svg"><path d="m16 4c4.418278 0 8 3.581722 8 8 0 2.7888556-2.3905467 7.7182797-7.1716402 14.7882722-.0714659.1056794-.1624938.1967074-.2681733.2681733-.4574789.309371-1.0791336.1893058-1.3885046-.2681732-4.7811308-7.0699836-7.1716819-11.9994141-7.1716819-14.7882723 0-4.418278 3.581722-8 8-8zm0 2c-3.3137085 0-6 2.6862915-6 6 0 2.7364392 2 6.8789346 6 12.4274862l.5996055-.8425311c3.600263-5.1272008 5.4003945-8.9888525 5.4003945-11.5849551 0-3.3137085-2.6862915-6-6-6zm0 3c1.1045695 0 2 .8954305 2 2s-.8954305 2-2 2-2-.8954305-2-2 .8954305-2 2-2z" fill="#3d3d3d"/></svg>