<svg height="32" viewBox="0 0 32 32" width="32" xmlns="http://www.w3.org/2000/svg"><path d="m16 4c4.418278 0 8 3.581722 8 8 0 2.7888556-2.3905467 7.7182797-7.1716402 14.7882722-.0714659.1056794-.1624938.1967074-.2681733.2681733-.4574789.309371-1.0791336.1893058-1.3885046-.2681732-4.7811308-7.0699836-7.1716819-11.9994141-7.1716819-14.7882723 0-4.418278 3.581722-8 8-8zm3.131728 5.47487373-4.2426407 4.24264067c-.1952621.1952622-.5118446.1952622-.7071068 0l-1.4142135-1.4142135c-.1952622-.1952622-.5118447-.1952622-.7071068 0l-.7071068.7071067c-.1952622.1952622-.1952622.5118447 0 .7071068l1.7677669 1.767767c.7810486.7810486 2.0473786.7810486 2.8284272 0l4.596194-4.5961941c.1952622-.1952621.1952622-.5118446 0-.7071068l-.7071067-.70710677c-.1952622-.19526214-.5118447-.19526214-.7071068 0z" fill="#3d3d3d"/></svg>