<svg height="32" viewBox="0 0 32 32" width="32" xmlns="http://www.w3.org/2000/svg"><path d="m16 4c6.627417 0 12 5.372583 12 12s-5.372583 12-12 12-12-5.372583-12-12 5.372583-12 12-12zm0 2c-5.5228475 0-10 4.4771525-10 10s4.4771525 10 10 10 10-4.4771525 10-10-4.4771525-10-10-10zm1.8166183 4c.4049016 0 .8262213.0154171 1.2639592.0462514.2618658.0184358.464877.2362503.464877.4987642v.9474261c-.0002482.2760455-.2239546.4998629-.4999999.5002482l-.6863714.0003408c-.9302933 0-1.1102902.4211043-1.1102902 1.0383313v1.3622576h1.6464555c.2761424 0 .5.2238577.5.5l-.0011318.033623-.1568393 1.1666731c-.0335754.2479501-.245265.4329064-.495478.4329064h-1.4930064v4.9904027c0 .2666294-.2161458.4827752-.4827752.4827752h-1.3312057c-.2761424 0-.5-.2238576-.5-.5v-4.9737669h-1.4348121c-.2761424 0-.5-.2238576-.5-.5v-1.1332024c0-.2761424.2238576-.5.5-.5h1.4348121v-1.5731043c0-1.8257669 1.1709077-2.8199264 2.8818062-2.8199264z" fill="#3d3d3d" fill-rule="evenodd"/></svg>