<svg height="32" viewBox="0 0 32 32" width="32" xmlns="http://www.w3.org/2000/svg"><path d="m10.5 13c.2761424 0 .5.2238576.5.5v2.5c0 2.7614237 2.2385763 5 5 5s5-2.2385763 5-5v-2.5c0-.2761424.2238576-.5.5-.5h1c.2761424 0 .5.2238576.5.5v2.5c0 3.5261219-2.6071882 6.4433024-5.9989899 6.9289666l-.0010101 2.0710334h3.5c.2761424 0 .5.2238576.5.5v1c0 .2761424-.2238576.5-.5.5h-9c-.2761424 0-.5-.2238576-.5-.5v-1c0-.2761424.2238576-.5.5-.5h3.5v-2.07089c-3.3922984-.4852332-6-3.4026409-6-6.92911v-2.5c0-.2761424.22385763-.5.5-.5zm5.5-8c2.209139 0 4 1.790861 4 4v7c0 2.209139-1.790861 4-4 4s-4-1.790861-4-4v-7c0-2.209139 1.790861-4 4-4zm0 2c-1.1045695 0-2 .8954305-2 2v7c0 1.1045695.8954305 2 2 2s2-.8954305 2-2v-7c0-1.1045695-.8954305-2-2-2z" fill="#3d3d3d" fill-rule="evenodd"/></svg>