<svg height="32" viewBox="0 0 32 32" width="32" xmlns="http://www.w3.org/2000/svg"><path d="m23.6837722 8.9486833-5.9345678 17.8037036c-.0873239.2619717-.3704839.4035517-.6324556.3162278-.1354899-.0451633-.2451995-.1461107-.3014586-.277382l-3.403173-7.940737c-.0505746-.1180075-.1446054-.2120383-.2626129-.2626129l-7.94073698-3.403173c-.25381489-.1087778-.37139068-.4027173-.26261287-.6565322.05625913-.1312712.16596872-.2322187.30145863-.277382l17.80370362-5.93456783c.2619717-.08732389.5451316.0542561.6324555.31622776.0342112.10263341.0342112.21359436 0 .31622777zm-14.06086433 5.9518659 5.04975103 2.164179c.1180075.0505746.2120383.1446054.2626129.2626129l2.164179 5.049751 3.7382715-11.2148144z" fill="#3d3d3d"/></svg>