<svg height="32" viewBox="0 0 32 32" width="32" xmlns="http://www.w3.org/2000/svg"><path d="m16.9841145 6.32344196c.3164399.17885735.5781538.44057123.7570112.75701116l9.5722009 16.93543238c.5435114.9615971.204586 2.1817287-.7570112 2.7252402-.300232.1696963-.6392433.2588743-.9841145.2588743h-19.1444018c-1.1045695 0-2-.8954305-2-2 0-.3448712.08917796-.6838825.25887432-.9841145l9.57220088-16.93543238c.5435115-.96159716 1.7636431-1.3005226 2.7252402-.75701116zm-1.2301431 2.32198616c-.07911.04471434-.1445385.11014281-.1892528.1892528l-8.71525115 15.41929048c-.13587786.2403993-.0511465.5454322.18925279.68131.07505801.0424241.15981084.0647186.24602863.0647186h17.43050223c.2761424 0 .5-.2238576.5-.5 0-.0862178-.0222945-.1709706-.0647186-.2460286l-8.7152511-15.41929048c-.1358778-.24039929-.4409107-.32513066-.68131-.1892528zm.7460286 12.35457188c.2454599 0 .4496084.1768752.4919443.4101244l.0080557.0898756v1c0 .2454599-.1768752.4496084-.4101244.4919443l-.0898756.0080557h-1c-.2454599 0-.4496084-.1768752-.4919443-.4101244l-.0080557-.0898756v-1c0-.2454599.1768752-.4496084.4101244-.4919443l.0898756-.0080557zm.0033917-9c.2761423 0 .5.2238576.5.5v7c0 .2761424-.2238577.5-.5.5h-1.0010447c-.2761423 0-.5-.2238576-.5-.5v-7c0-.2761424.2238577-.5.5-.5z" fill="#3d3d3d" fill-rule="evenodd"/></svg>