<svg height="32" viewBox="0 0 32 32" width="32" xmlns="http://www.w3.org/2000/svg"><path d="m24 12.4c0-1.9343992-1.2336707-3.4-3-3.4-.7238572 0-1.9955342.68670561-3.6620705 2.1865883l-1.3379295 1.2041365-1.3379295-1.2041365c-1.6665363-1.49988269-2.9382133-2.1865883-3.6620705-2.1865883-1.76632933 0-3 1.4656008-3 3.4 0 2.303183 2.6192589 5.7592905 8 10.061558 5.3807411-4.3022675 8-7.758375 8-10.061558zm-8 12.6c-6.66666667-5.1-10-9.3-10-12.6 0-2.7 1.81818182-5.4 5-5.4 1.3333333 0 3 .9 5 2.7 2-1.8 3.6666667-2.7 5-2.7 3.1818182 0 5 2.7 5 5.4 0 3.3-3.3333333 7.5-10 12.6z" fill="#3d3d3d"/></svg>