<svg height="32" viewBox="0 0 32 32" width="32" xmlns="http://www.w3.org/2000/svg"><path d="m13.5 22c.2761424 0 .5.2238576.5.5v1c0 .2761424-.2238576.5-.5.5h-7c-.27614237 0-.5-.2238576-.5-.5v-1c0-.2761424.22385763-.5.5-.5zm5-7c.2761424 0 .5.2238576.5.5v1c0 .2761424-.2238576.5-.5.5h-12c-.27614237 0-.5-.2238576-.5-.5v-1c0-.2761424.22385763-.5.5-.5zm7-7c.2761424 0 .5.22385763.5.5v1c0 .27614237-.2238576.5-.5.5h-19c-.27614237 0-.5-.22385763-.5-.5v-1c0-.27614237.22385763-.5.5-.5z" fill="#3d3d3d" fill-rule="evenodd"/></svg>