<svg height="32" viewBox="0 0 32 32" width="32" xmlns="http://www.w3.org/2000/svg"><path d="m13.0598069 15.7656777c.2802711.1495512.6003324.2343223.9401931.2343223 1.1045695 0 2-.8954305 2-2 0-.3784583-.1051192-.7323647-.2877527-1.0341145l-.1094094-.1621958c-.1677521-.2193124-.1259541-.5330902.0933583-.7008422.0654011-.0500253.1417883-.0828616.2222104-.0961553l.0815934-.0066922c2.209139 0 4 1.790861 4 4s-1.790861 4-4 4c-2.1421954 0-3.8910789-1.6839685-3.9951047-3.8003597l-.0046529-.2256111c.0036106-.2760799.2303445-.49696.5064244-.4933495.1172778.0015338.2302828.044253.3192469.1206848.0809105.0695128.1588749.1242839.2338932.1643132zm2.9401931 6.2343223c3.4748089 0 6.7351345-1.8376352 9.0187028-4.9697756l.141765-.2006199c.0781436-.1133568.1671789-.246284.2671059-.3987816l.1036284-.158975c.1070716-.1653645.1070817-.3781825.0000259-.5435572l-.3682676-.5543827c-.0517624-.075127-.0987172-.1416191-.1408642-.1994761-2.2837311-3.1349754-5.5455658-4.9744319-9.0220962-4.9744319-3.4643303 0-6.71546903 1.8265688-8.99801734 4.9414753l-.14733585.2076748c-.08123742.1174728-.17382909.2553987-.277775.4137777l-.10768448.1652267c-.10723587.1654132-.10725762.3783992-.00005553.5438343l.2961564.4484278c.08753792.1293538.16389495.2385855.22907109.3276951 2.28292963 3.1212483 5.53745181 4.9518883 9.00564071 4.9518883zm0-14c4.34499 0 8.2323242 2.3554134 10.8265523 6.0619665.1285908.1837266.2787883.4160647.4505924.6970144l.132906.219826c.3772808.6306807.3782798 1.4174719.0026017 2.0491087-.1425901.2397401-.2664518.4384476-.3715852.5961223-2.5917599 3.887017-6.5746131 6.3759621-11.0410672 6.3759621-4.4348301 0-8.39288313-2.4538248-10.98580671-6.2936085l-.153732-.2354548c-.05482773-.0863912-.1132392-.1806886-.1752344-.2828923l-.09568232-.1592341c-.37659227-.632315-.37548492-1.4203685.00288287-2.0516226l.2341945-.383398c.14791797-.2370167.27941258-.4368694.39448382-.599558 2.5940518-3.6674904 6.46043064-5.9942317 10.77889424-5.9942317z" fill="#3d3d3d" fill-rule="evenodd"/></svg>