<svg height="32" viewBox="0 0 32 32" width="32" xmlns="http://www.w3.org/2000/svg"><path d="m16 3.99869629c3.3137085 0 6 2.6862915 6 6v1.00000001h3.5c.2761424 0 .5.2238576.5.5v14.5013037c0 1.1045695-.8954305 2-2 2h-16c-1.1045695 0-2-.8954305-2-2v-14.5013037c0-.2761424.22385763-.5.5-.5h3.5v-1.00000001c0-3.3137085 2.6862915-6 6-6zm8 9.00000001h-16v12.5c0 .2761424.22385763.5.5.5h15c.2761424 0 .5-.2238576.5-.5zm-8 2c1.1045695 0 2 .8954305 2 2 0 .7398375-.4017154 1.3858493-.9989225 1.7318118l-.0010775 4.7694919c0 .2761424-.2238576.5-.5.5h-1c-.2761424 0-.5-.2238576-.5-.5l-.0000725-4.76891c-.5977614-.3458198-.9999275-.9921413-.9999275-1.7323937 0-1.1045695.8954305-2 2-2zm0-9.00000001c-2.209139 0-4 1.790861-4 4v1.00000001h8v-1.00000001c0-2.209139-1.790861-4-4-4z" fill="#3d3d3d"/></svg>