<svg height="32" viewBox="0 0 32 32" width="32" xmlns="http://www.w3.org/2000/svg"><path d="m25.9506248 13h-2.0125186c-.492098-3.94631158-3.8584885-7-7.9381062-7s-7.44600816 3.05368842-7.93810625 7h1.43810625c.27614237 0 .5.2238576.5.5v7c0 .2761424-.22385763.5-.5.5h-3.5c-1.1045695 0-2-.8954305-2-2v-4c0-1.1045695.8954305-2 2-2h.04937524c.50172443-5.05332269 4.76527666-9 9.95062476-9s9.4489003 3.94667731 9.9506248 9h.0493752c1.1045695 0 2 .8954305 2 2v4c0 1.1045695-.8954305 2-2 2 0 3.0375661-2.4624339 5.5-5.5 5.5h-.7080218c-.3857784.8829524-1.2668187 1.5-2.2919782 1.5-1.3807119 0-2.5-1.1192881-2.5-2.5s1.1192881-2.5 2.5-2.5c1.0251595 0 1.9061998.6170476 2.2919782 1.5h.7080218c1.9329966 0 3.5-1.5670034 3.5-3.5h-1.5c-.2761424 0-.5-.2238576-.5-.5v-7c0-.2761424.2238576-.5.5-.5h1.4381062c-.492098-3.94631158-3.8584885-7-7.9381062-7s-7.44600816 3.05368842-7.93810625 7h-2.01251851c.50172443-5.05332269 4.76527666-9 9.95062476-9s9.4489003 3.94667731 9.9506248 9zm.0493752 2.5c0-.2761424-.2238576-.5-.5-.5h-1.5v4h1.5c.2761424 0 .5-.2238576.5-.5zm-8.5 10.5c.2761424 0 .5-.2238576.5-.5s-.2238576-.5-.5-.5-.5.2238576-.5.5.2238576.5.5.5zm-11.5-10.5v3c0 .2761424.22385763.5.5.5h1.5v-4h-1.5c-.27614237 0-.5.2238576-.5.5z" fill="#3d3d3d"/></svg>