<svg height="32" viewBox="0 0 32 32" width="32" xmlns="http://www.w3.org/2000/svg"><path d="m12.3729875 16.1028628.6521388.6521388c.1952621.1952621.1952621.5118446 0 .7071067l-1.5383897 1.5373079 12.0132634.0005838c.2761424 0 .5.2238576.5.5v1c0 .2761424-.2238576.5-.5.5l-12.0522634-.0005838 1.5773897 1.5773437c.1952621.1952622.1952621.5118447 0 .7071068l-.6521388.6521388c-.1952621.1952621-.5118446.1952621-.7071068 0l-2.50235771-2.5023578c-.78104858-.7810486-.78104858-2.0473785 0-2.8284271l2.50235771-2.5023578c.1952622-.1952621.5118447-.1952621.7071068 0zm7.8317615-7.99999998c.1735664-.17356635.4429908-.1928515.6378589-.05785545l.0692479.05785545 2.5023578 2.50235778c.7399407.7399407.778885 1.9154249.1168327 2.7012123l-.1168327.1272148-2.5023578 2.5023578c-.1735663.1735663-.4429907.1928515-.6378589.0578554l-.0692479-.0578554-.6521387-.6521388c-.1735664-.1735663-.1928515-.4429907-.0578555-.6378589l.0578555-.0692479 1.5773897-1.5773437-12.05226345.0005838c-.24545988 0-.44960837-.1768752-.49194433-.4101244l-.00805567-.0898756v-1c0-.2454599.17687516-.4496084.41012437-.4919443l.08987563-.0080557 12.01326345-.0005838-1.5383897-1.53730786c-.1735664-.17356635-.1928515-.44299076-.0578555-.6378589l.0578555-.06924788z" fill="#3d3d3d"/></svg>