<svg height="32" viewBox="0 0 32 32" width="32" xmlns="http://www.w3.org/2000/svg"><path d="m16 4c4.418278 0 8 3.581722 8 8 0 2.7888556-2.3905467 7.7182797-7.1716402 14.7882722-.0714659.1056794-.1624938.1967074-.2681733.2681733-.4574789.309371-1.0791336.1893058-1.3885046-.2681732-4.7811308-7.0699836-7.1716819-11.9994141-7.1716819-14.7882723 0-4.418278 3.581722-8 8-8zm2 5c-.5333333 0-1.2.35-2 1.05-.8-.7-1.4666667-1.05-2-1.05-1.2727273 0-2 1.05-2 2.1 0 1.2833333 1.3333333 2.9166667 4 4.9l.5510204-.4196429c2.2993197-1.7952381 3.4489796-3.2886904 3.4489796-4.4803571 0-1.05-.7272727-2.1-2-2.1z" fill="#3d3d3d"/></svg>