<svg height="32" viewBox="0 0 32 32" width="32" xmlns="http://www.w3.org/2000/svg"><path d="m16 6c4.8379226 0 8.8734344 3.43552894 9.7999676 8.0000191l1.7000324-.0000191c.2761424 0 .5.2238576.5.5v3c0 .2761424-.2238576.5-.5.5l-1.7002354.0009807c-.9269195 4.563992-4.9621953 7.9990193-9.7997646 7.9990193s-8.87284505-3.4350273-9.79976465-7.9990193l-1.70023535-.0009807c-.27614237 0-.5-.2238576-.5-.5v-3c0-.2761424.22385763-.5.5-.5l1.70003235.0000191c.92653329-4.56449016 4.96204505-8.0000191 9.79996765-8.0000191zm7.7478729 12.0003581h-15.49574575c.88821012 3.4502727 4.02032295 5.9996419 7.74787285 5.9996419s6.8596627-2.5493692 7.7478729-5.9996419zm-7.7478729-10.0003581c-3.7279108 0-6.86026919 2.5498628-7.74813077 6.000644h15.49626157c-.8878616-3.4507812-4.02022-6.000644-7.7481308-6.000644z" fill="#3d3d3d"/></svg>