<svg height="32" viewBox="0 0 32 32" width="32" xmlns="http://www.w3.org/2000/svg"><path d="m18.5 4c.2761424 0 .5.22385763.5.5v1.499l6.5.001c.2761424 0 .5.22385763.5.5v1c0 .27614237-.2238576.5-.5.5h-.6l-.9 18c0 1.1045695-.8954305 2-2 2h-12c-1.1045695 0-2-.8954305-2-2l-.9-18h-.6c-.27614237 0-.5-.22385763-.5-.5v-1c0-.27614237.22385763-.5.5-.5l6.5-.001v-1.499c0-.27614237.2238576-.5.5-.5zm4.5 4h-14l.97376306 17.527735c.0147199.2649583.23386334.472265.49923014.472265h11.0540136c.2653668 0 .4845102-.2073067.4992301-.472265zm-8.5 3c.2761424 0 .5.2238576.5.5v11c0 .2761424-.2238576.5-.5.5h-1c-.2761424 0-.5-.2238576-.5-.5v-11c0-.2761424.2238576-.5.5-.5zm4 0c.2761424 0 .5.2238576.5.5v11c0 .2761424-.2238576.5-.5.5h-1c-.2761424 0-.5-.2238576-.5-.5v-11c0-.2761424.2238576-.5.5-.5z" fill="#3d3d3d" fill-rule="evenodd"/></svg>