<svg height="32" viewBox="0 0 32 32" width="32" xmlns="http://www.w3.org/2000/svg"><g fill="none" fill-rule="evenodd"><path d="m9.10698806 17.0001685c.1458478.0002188.28432545.0641173.37914219.1749389.10018311.1170937.18651326.2084237.25899045.27399 1.022165.9246986 2.9922644 1.5509026 5.2548793 1.5509026 2.217457 0 4.1539581-.6014575 5.1925496-1.4958956.0899553-.0774698.1969763-.1878571.3210629-.3311619.0947532-.1095342.2323711-.1725424.3772016-.1727705l.1091859-.000172c1.1045695 0 2 .8954305 2 2 0 .2259522-.0374696.4431529-.1065342.6457275-.0182366.0534902-.0449771.1156497-.0802215.1864784l-.0592587.112737c-.0793354.1441658-.08266.3181367-.0088905.4652282l.0782944.1677867c.0103764.0245807.0194164.0474696.0271201.0686665.0967281.2661507.1494904.5536016.1494904.8533757 0 1.0282208-.6207383 1.9114604-1.507917 2.2954209l-.06791.0271651-.0815838.0286993c-.2040567.0677759-.3419215.2584351-.3423513.4734527l-.0002379.175262c0 1.3807119-1.1192881 2.5-2.5 2.5-.1566804 0-.351547-.0301312-.5845998-.0903936l-.1819707-.0507754c-.1848774-.0552317-.3850354.0008601-.5142873.1441226-.1392812.1543789-.2574697.27015-.3545654.3473132-.5117423.4066881-1.1597764.6497332-1.8645768.6497332-.6452373 0-1.2428977-.2037012-1.7321809-.5503032-.1062948-.075298-.2314322-.1869263-.3754121-.3348851l-.111534-.1177662c-.1296772-.1404325-.3280746-.1946386-.5111435-.1396547-.3165444.0950728-.5731209.1426092-.7697295.1426092-1.3807119 0-2.5-1.1192881-2.5-2.5v-.1780912c.00003359-.2166451-.13947803-.4086473-.34552611-.4755748l-.13679488-.0481325c-.01860724-.0072771-.03511853-.0141816-.04953386-.0207137-.86569258-.3922723-1.46814515-1.2645249-1.46814515-2.2774878 0-.2641621.04097101-.5187548.11690515-.7577704l.04904173-.1320685.09380808-.2046631c.07155447-.1449922.06858028-.3156356-.0079834-.4580462-.09002753-.1674537-.15016553-.3061741-.18041402-.4161612-.0465164-.1691392-.07135754-.3473139-.07135754-.5312906 0-1.1045695.8954305-2 2-2zm.35748877 2.9942738-.01068832.0224793-.37887155 1.2191832c-.04909689.078255-.07491696.16668-.07491696.2638952 0 .2310917.15892115.4311661.31290874.4700244l.14070933.0296376c.92183723-.0006856 1.66968983.7460553 1.67037553 1.6678925.0000832.1119414-.0110948.2236073-.0333652.3333111l-.0805914.3969915c-.0066153.0325871-.010037.0665454-.010037.1021429 0 .2761424.2238576.5.5.5.0765053 0 .1459279-.0158357.2084064-.0456512.8195231-.3910877 1.7918768-.179054 2.3756616.4984064l.1047739.1324444c.0650431.0896893.1447043.1684755.2350707.2324899.1673869.1185747.3643277.1823105.5760874.1823105.2308343 0 .4446872-.075986.6202411-.2155009.0479643-.0381179.0923661-.0805231.132559-.1265311l.0570518-.0716286c.5320758-.734337 1.4857525-1.0133776 2.3218161-.6992493l.155252.0658839c.0651021.030897.1359511.047026.21308.047026.2761424 0 .5-.2238576.5-.5l.0001513-.0238422-.0931185-.4819589c-.1756148-.9089411.4188635-1.7881474 1.3278045-1.9637623l.1582628-.0228101.1597161-.0076265.0495442-.0100812c.2282828-.0464511.3976396-.2514442.3976396-.4899188 0-.0969525-.0256607-.1848021-.073932-.2615947l-.2951666-.9615818c-.0765017-.249157-.3404897-.3891417-.5896525-.3126588l-.0637099.0247327c-1.3876072.6579635-3.1330732 1.0111026-4.977539 1.0111026-1.9367598 0-3.7643644-.3893642-5.18311921-1.1121564-.12675008-.0678773-.28452671-.0201514-.35240396.1065987zm6.75817307 1.5895326c.2297643-.1531763.540199-.0910893.6933752.138675.1531763.2297643.0910893.540199-.138675.6933752-.578522.3856814-1.1734026.5839749-1.7773501.5839749s-1.1988281-.1982935-1.7773501-.5839749c-.2297643-.1531762-.2918513-.4636109-.138675-.6933752.1531762-.2297643.4636109-.2918513.6933752-.138675.421478.2809853.8265974.4160251 1.2226499.4160251s.8011719-.1350398 1.2226499-.4160251zm-4.2226499-6.5839749c.5522847 0 1 .4477153 1 1s-.4477153 1-1 1-1-.4477153-1-1 .4477153-1 1-1zm6 0c.5522847 0 1 .4477153 1 1s-.4477153 1-1 1-1-.4477153-1-1 .4477153-1 1-1zm3-11c1.6411829 0 2.5606954.67050228 3.5291228 2.16169073l.1324338.20844488.5133213.83319201.1571724.24197218-1.6641006 1.1094004-.1789796-.27537194-.6029701-.97332826-.2804272.1412136-.1414216-.27902505-.0815643-.14861876-.1255783-.00985037-.3200155-.00796069-.522701.00048626c-.2095087.01260243-.272961.08316439-.3417791.33248253-.0547881.19848937-.04672.40802352.0214428.60025455l.048087.11303546.5360209 1.06985368c.7708358.27774964 1.3219363 1.01558099 1.3219363 1.88212879v1c0 1.1045695-.8954305 2-2 2h-12c-1.1045695 0-2-.8954305-2-2v-1c0-.8270857.50204981-1.53691138 1.2180244-1.84135199 1.08744632-3.24831978 2.7619144-5.04429024 5.0578473-5.1533662l.2241283-.00528181zm-.5 7h-11c-.27614237 0-.5.2238576-.5.5s.22385763.5.5.5h11c.2761424 0 .5-.2238576.5-.5s-.2238576-.5-.5-.5zm-.9949146-5.0006344-6.0050854.0006344c-1.2271134 0-2.267913.93980239-3.0958991 2.99918375l8.9778991.00081625-.0288073-.05754656c-.2983676-.59672076-.3883897-1.27384563-.2596238-1.9242218l.0510395-.21565438c.0835943-.30285015.2050853-.57164993.360477-.80321166z" fill="#3d3d3d"/><circle cx="24" cy="7" fill="#d43030" r="2"/></g></svg>