<svg height="32" viewBox="0 0 32 32" width="32" xmlns="http://www.w3.org/2000/svg"><path d="m26 8c1.1045695 0 2 .8954305 2 2v12c0 1.1045695-.8954305 2-2 2h-20c-1.1045695 0-2-.8954305-2-2v-4c1.1045695 0 2-.8954305 2-2 0-1.0543618-.81587779-1.9181651-1.85073766-1.9945143l-.14926234-.0054857v-4c0-1.1045695.8954305-2 2-2zm-.5 2h-19c-.24545989 0-.44960837.1768752-.49194433.4101244l-.00805567.0898756v2.0351288c1.19560274.6916188 2 1.9843065 2 3.4648712 0 1.4026403-.72195211 2.6366596-1.81453188 3.3507335l-.18546812.1141377v2.0351288c0 .2454599.17687516.4496084.41012437.4919443l.08987563.0080557h19c.2454599 0 .4496084-.1768752.4919443-.4101244l.0080557-.0898756v-11c0-.2761424-.2238576-.5-.5-.5zm-6 6c.8284271 0 1.5.6715729 1.5 1.5s-.6715729 1.5-1.5 1.5-1.5-.6715729-1.5-1.5.6715729-1.5 1.5-1.5zm-2-3 .8660254.5c.2391463.1380712.3210839.4438664.1830127.6830127l-2.5 4.330127c-.1380712.2391463-.4438664.3210839-.6830127.1830127l-.8660254-.5c-.2391463-.1380712-.3210839-.4438664-.1830127-.6830127l2.5-4.330127c.1380712-.2391463.4438664-.3210839.6830127-.1830127zm-4 0c.8284271 0 1.5.6715729 1.5 1.5s-.6715729 1.5-1.5 1.5-1.5-.6715729-1.5-1.5.6715729-1.5 1.5-1.5z" fill="#3d3d3d"/></svg>