<svg height="32" viewBox="0 0 32 32" width="32" xmlns="http://www.w3.org/2000/svg"><path d="m16 4c2.8186056 0 5.5237267.48588462 8.0361734 1.37846393l.4998969.183915c.0692503.02636019.1429241.05522773.2210215.0866026 1.024947.41176708 1.5220322 1.57645201 1.1102691 2.60140063-.0202925.05051165-.0426389.10017377-.0669831.1488623l-9.3531642 18.70632834c-.1234946.2469893-.4238311.3471014-.6708204.2236068-.0967637-.0483818-.1752249-.1268431-.2236068-.2236068l-9.35282106-18.70564811c-.49397784-.98795568-.09352968-2.18930015.89442599-2.68327799l.07205172-.03424698.37336713-.14875698c2.63113512-.99129988 5.48232692-1.53364274 8.46018982-1.53364274zm0 6c-1.7640614 0-3.4982519.2072972-5.1770472.6120763l-.2416183.0607881c-.0902371.0234446-.1901719.050071-.2998044.0798793-.2664794.0724398-.42376602.3471957-.35131317.6136715.00867301.0318986.02048793.0628586.03527133.0924254l1.30430124 2.6076552c.2367563-.0436723.480818-.0664958.7302105-.0664958 2.209139 0 4 1.790861 4 4 0 1.1641946-.4973555 2.2122256-1.2911821 2.9432085l1.2911821 2.5846555 1.3735073-2.7483916c-.2277599-.1832931-.3735073-.4643622-.3735073-.7794724 0-.5522847.4477153-1 1-1 .0858379 0 .1691498.0108152.2486473.0311572l1.0564123-2.1120566c-1.3217655-.3134911-2.3050596-1.5014655-2.3050596-2.9191006 0-1.6568542 1.3431458-3 3-3 .7291987 0 1.397633.2601635 1.9175453.6927329l.1171353-.2342541c.1235558-.2469919.0234326-.5473607-.2235833-.6708684-.0294982-.014749-.0603831-.0265437-.0922036-.0352117l-.4723793-.1234543c-1.7003511-.4158729-3.4580661-.6289444-5.2465144-.6289444zm-3.7548442 6.0148754 1.4899708 2.9804582c.1685055-.2931164.2648734-.632971.2648734-.9953336 0-1.0215731-.7659222-1.8642555-1.7548442-1.9851246zm7.7548442-3.0148754c-.5522847 0-1 .4477153-1 1s.4477153 1 1 1c.0997181 0 .1960272-.0145957.2869074-.0417672l.651039-1.3057954c-.1412155-.3809466-.5078759-.6524374-.9379464-.6524374zm-6-2c.5522847 0 1 .4477153 1 1s-.4477153 1-1 1-1-.4477153-1-1 .4477153-1 1-1zm2-5c-2.0804861 0-4.1194241.28833381-6.0749436.84890048l-.53122382.1596193c-.18437695.05796739-.47672958.15898875-.87705789.30306408-.25981474.0935216-.39463769.37994989-.30113035.63976976l.02324545.05429001.36096617.72193233c.10813548.21645328.35576358.32435646.58794606.25626393l.5585942-.15965997c.106363-.02934443.20087996-.05459848.28355088-.07576215 1.9086993-.48862494 3.9090372-.74841777 5.9700529-.74841777 1.9958238 0 3.9347476.24361775 5.7886568.70273856l.4423847.11667341c.1706738.04701189.3645597.10214454.5816578.16539794.2319374.06753235.4790064-.04038649.5870392-.25645245l.3625539-.72510919c.1234911-.24698238.0233818-.54731056-.2236006-.67080175l-.052339-.02253871-.5632668-.1990871c-2.2111055-.73244598-4.5398076-1.11082071-6.923086-1.11082071z" fill="#3d3d3d"/></svg>