<svg height="32" viewBox="0 0 32 32" width="32" xmlns="http://www.w3.org/2000/svg"><path d="m16 4c6.627417 0 12 5.372583 12 12s-5.372583 12-12 12-12-5.372583-12-12 5.372583-12 12-12zm0 2c-5.5228475 0-10 4.4771525-10 10s4.4771525 10 10 10 10-4.4771525 10-10-4.4771525-10-10-10zm0 13c.5643692 0 1 .4285714 1 1s-.4356308 1-1 1-1-.4285714-1-1 .4356308-1 1-1zm.0157895-9.01646248c.4210547 0 .8131561.05813978 1.1763158.17442098s.678946.2965144.9473684.540705c.2684224.2441905.4789466.5552382.6315789.9331521.1526324.377914.2289474.822683.2289474 1.3343204 0 .3604718-.0578942.6831474-.1736842.9680364-.1157901.284889-.2605255.5494248-.4342105.7936154-.1157901.1627937-.2362573.3217098-.3614033.4767504l-.1912283.2296545c-.1947378.2267483-.3736834.4622143-.5368421.7064049-.1631587.2441905-.2921048.5029124-.3868421.7761733-.0339189.0978358-.0455498.2882952-.0348927.5713781.010428.2759669-.2048664.5081056-.4808348.5184949l-1.0413687.0003539c-.2482425 0-.4588853-.18221-.4947088-.4278541-.0593036-.4066484-.0727371-.6768586-.0403003-.8106307.0789478-.3255874.1921045-.627914.3394737-.906989.1473692-.2790749.313157-.5348898.4973684-.7674522l.5289474-.6715207c.1684219-.2151203.3078942-.4244234.418421-.6279155.1105269-.2034922.1657895-.4157022.1657895-.6366365 0-.3604718-.0973674-.6337286-.2921053-.8197786-.1947378-.1860499-.4499984-.2790735-.7657894-.2790735-.2947383 0-.5552621.0755817-.781579.2267473-.0831433.0555345-.1867975.1387292-.3109625.2495841-.1984527.1772024-.5009134.1679513-.6881777-.0210361l-.589674-.5950997c-.172755-.1743635-.1908045-.4438663-.0549215-.6381085l.058673-.0694776c.3825583-.3779995.7056494-.642055.9692733-.7921666.5105288-.290703 1.0763126-.43605238 1.6973684-.43605238z" fill="#3d3d3d" fill-rule="evenodd"/></svg>