<svg height="32" viewBox="0 0 32 32" width="32" xmlns="http://www.w3.org/2000/svg"><path d="m16 4c6.627417 0 12 5.372583 12 12s-5.372583 12-12 12-12-5.372583-12-12 5.372583-12 12-12zm7.7436056 5.6720752-14.0715304 14.0715304c1.7237513 1.4102932 3.9270293 2.2563944 6.3279248 2.2563944 5.5228475 0 10-4.4771525 10-10 0-2.4008955-.8461012-4.6041735-2.2563944-6.3279248zm-7.7436056-3.6720752c-5.5228475 0-10 4.4771525-10 10 0 2.4008955.8461012 4.6041735 2.25639439 6.3279248l14.07153041-14.07153041c-1.7237513-1.41029319-3.9270293-2.25639439-6.3279248-2.25639439z" fill="#3d3d3d"/></svg>