<svg height="14" viewBox="0 0 14 14" width="14" xmlns="http://www.w3.org/2000/svg" xmlns:xlink="http://www.w3.org/1999/xlink"><mask id="a" fill="#fff"><path d="m13.8372093 5.72727273h-6.6744186v2.70454545h3.8418605c-.3581396 1.71818182-1.85581399 2.70454542-3.8418605 2.70454542-2.34418605 0-4.23255814-1.84545451-4.23255814-4.1363636s1.88837209-4.13636364 4.23255814-4.13636364c1.00930232 0 1.92093023.35 2.6372093.92272728l2.0837209-2.03636364c-1.2697674-1.08181818-2.89767439-1.75-4.7209302-1.75-3.97209303 0-7.1627907 3.11818182-7.1627907 7 0 3.8818182 3.19069767 7 7.1627907 7 3.5813953 0 6.8372093-2.5454545 6.8372093-7 0-.41363636-.0651163-.85909091-.1627907-1.27272727z" fill="#fff" fill-rule="evenodd"/></mask><mask id="b" fill="#fff"><path d="m13.8372093 5.72727273h-6.6744186v2.70454545h3.8418605c-.3581396 1.71818182-1.85581399 2.70454542-3.8418605 2.70454542-2.34418605 0-4.23255814-1.84545451-4.23255814-4.1363636s1.88837209-4.13636364 4.23255814-4.13636364c1.00930232 0 1.92093023.35 2.6372093.92272728l2.0837209-2.03636364c-1.2697674-1.08181818-2.89767439-1.75-4.7209302-1.75-3.97209303 0-7.1627907 3.11818182-7.1627907 7 0 3.8818182 3.19069767 7 7.1627907 7 3.5813953 0 6.8372093-2.5454545 6.8372093-7 0-.41363636-.0651163-.85909091-.1627907-1.27272727z" fill="#fff" fill-rule="evenodd"/></mask><mask id="c" fill="#fff"><path d="m13.8372093 5.72727273h-6.6744186v2.70454545h3.8418605c-.3581396 1.71818182-1.85581399 2.70454542-3.8418605 2.70454542-2.34418605 0-4.23255814-1.84545451-4.23255814-4.1363636s1.88837209-4.13636364 4.23255814-4.13636364c1.00930232 0 1.92093023.35 2.6372093.92272728l2.0837209-2.03636364c-1.2697674-1.08181818-2.89767439-1.75-4.7209302-1.75-3.97209303 0-7.1627907 3.11818182-7.1627907 7 0 3.8818182 3.19069767 7 7.1627907 7 3.5813953 0 6.8372093-2.5454545 6.8372093-7 0-.41363636-.0651163-.85909091-.1627907-1.27272727z" fill="#fff" fill-rule="evenodd"/></mask><mask id="d" fill="#fff"><path d="m13.8372093 5.72727273h-6.6744186v2.70454545h3.8418605c-.3581396 1.71818182-1.85581399 2.70454542-3.8418605 2.70454542-2.34418605 0-4.23255814-1.84545451-4.23255814-4.1363636s1.88837209-4.13636364 4.23255814-4.13636364c1.00930232 0 1.92093023.35 2.6372093.92272728l2.0837209-2.03636364c-1.2697674-1.08181818-2.89767439-1.75-4.7209302-1.75-3.97209303 0-7.1627907 3.11818182-7.1627907 7 0 3.8818182 3.19069767 7 7.1627907 7 3.5813953 0 6.8372093-2.5454545 6.8372093-7 0-.41363636-.0651163-.85909091-.1627907-1.27272727z" fill="#fff" fill-rule="evenodd"/></mask><g fill="none" fill-rule="nonzero"><path d="m-.65116279 11.1363636v-8.27272724l5.53488372 4.13636364z" fill="#fbbc05" mask="url(#a)"/><path d="m-.65116279 2.86363636 5.53488372 4.13636364 2.27906977-1.94090909 7.8139535-1.24090909v-4.45454546h-15.62790699z" fill="#ea4335" mask="url(#b)"/><path d="m-.65116279 11.1363636 9.76744186-7.31818178 2.57209303.31818182 3.2883721-4.77272728v15.27272724h-15.62790699z" fill="#34a853" mask="url(#c)"/><path d="m14.9767442 14.6363636-10.09302327-7.6363636-1.30232558-.95454545 11.39534885-3.18181819z" fill="#4285f4" mask="url(#d)"/></g></svg>