<svg height="32" viewBox="0 0 32 32" width="32" xmlns="http://www.w3.org/2000/svg"><path d="m16 28c-6.627417 0-12-5.372583-12-12s5.372583-12 12-12 12 5.372583 12 12-5.372583 12-12 12zm0-2c5.5228475 0 10-4.4771525 10-10s-4.4771525-10-10-10-10 4.4771525-10 10 4.4771525 10 10 10zm0-1.5c-2 0-4-.8333333-6-2.5 1.3685695-1.2449289 4.3125-1.3490309 4.3125-3.0959473 0 0-1.6875-1.6875-1.6875-4.7790527 0-1.8588867 1.5161133-3.375 3.375-3.375s3.375 1.5161133 3.375 3.375c0 3.0915527-1.6875 4.7790527-1.6875 4.7790527 0 1.7547159 2.9529047 1.83471 4.3125 3.0959473-2 1.6666667-4 2.5-6 2.5z" fill="#3d3d3d" fill-rule="evenodd"/></svg>