<svg height="32" viewBox="0 0 32 32" width="32" xmlns="http://www.w3.org/2000/svg"><path d="m24.690983 6h-10.381966c-.189386 0-.3625176.10700119-.4472136.2763932l-.7890417 1.57808331c-.0849281.16978931-.0500114.37158082.0789205.5030134l.0609372.05172213c.0813018.05720168.180419.09078796.2873806.09078796.15707 0 .2972241-.07242561.3888883-.18570288l.0158492-.02199972.0150892-.02588746c.0865682-.16388865.2567111-.26640994.4420581-.26640994h2.2863394c.1553009.00006607.2998584.07206328.3935607.19170618l.0497978.07730894c.0242511.04654817.050655.0823226.0792118.10732329.0879504.0769981.2031285.12366159.3292055.12366159.118393 0 .2271752-.04114886.3128249-.109925.0337247-.02708065.0647595-.06770588.0931045-.12187568.0862579-.16487337.2569411-.26819932.4430154-.26819932l2.3036594.00009685c.1858118 0 .3562923.10305944.4426429.26758786.0303891.05790202.0637391.10082733.10005.12877592.0843569.06492975.190021.10353937.3047029.10353937.1172793 0 .2251277-.04037832.3104016-.1079914.0229973-.01823431.0447631-.042677.0652975-.07332807l.0298781-.0506329c.0862868-.16478892.2569241-.26804763.442937-.26804763l2.2970587-.00007396c.155468 0 .3001637.07211799.3938846.19194567l.0497939.0774265c.0207899.03998231.0432926.0714082.0675084.09427767.0895529.08457426.2103414.13642412.3432402.13642412.0917218 0 .1776752-.02469737.2515729-.06780477l.0696462-.04901122c.1529865-.12838217.1979021-.34496238.1085777-.52359047l-.7916002-1.58320034c-.084696-.16939201-.2578276-.2763932-.4472136-.2763932zm2.3090176 4.0001826.0000093 14.4999024c0 .2761424-.2238576.5000254-.5.5000254h-3.1331431c-.2761962 0-.5000931-.2239112-.5000876-.5001104l.0031344-.0558904.0093615-.0551921c.0643866-.2825952.1030186-.5228056.1158959-.7206313l.004829-.1682862c0-.2761424.2238576-.5.5-.5h1.5v-12.5500091c-.6100231-.1238281-1.139388-.46977538-1.5-.94974717-.4561144.60708477-1.1822005.99975627-2 .99975627s-1.5438856-.3926715-2-.99975627c-.4561144.60708477-1.1822005.99975627-2 .99975627s-1.5438856-.3926715-2-.99975627c-.3606173.47997882-.8899924.82592917-1.5000268.94975267l-.0000579 3.1280268c0 .2760956-.2238197.4999153-.4999153.4999153-.0294751 0-.0588925-.0026067-.0879084-.0077898-.2618024-.0467658-.4778556-.0701487-.6481596-.0701487h-.263932c-.2761424 0-.5-.2238576-.5-.5v-3.4998169c-.4355061-.32712131-.7607031-.79316248-.909801-1.33236055-.0327708-.11851231-.0591611-.29358426-.0791711-.52521587-.0079173-.09187545.0097094-.18415443.0509502-.26663457l1.3852319-2.77041253c.3387866-.67756079 1.031309-1.10555958 1.7888478-1.10555958h10.5278742c.7575441 0 1.4500704.42800475 1.7888544 1.10557281l1.3836912 2.76738241c.0422008.08437514.0596586.17896987.0503674.2728514-.0280015.28293433-.0651135.4947282-.1113361.6353816-.1613912.4911062-.4708263.91502578-.8755083 1.21899438zm-12.0000006 15.9998174h-5c0 .8284271-.67157288 1.5-1.5 1.5s-1.5-.6715729-1.5-1.5h-1c-1.33333333-.5969537-2-1.2636203-2-2v-1.6754447c0-.2149642.03465576-.4285226.1026334-.6324555l1.44151844-4.3245553c.2722281-.8166843 1.03650578-1.3675445 1.8973666-1.3675445h6.32241356c.7575441 0 1.4500704.4280048 1.7888544 1.1055728l1.309017 2.618034c.084696.169392.2578276.2763932.4472136.2763932h1.690983c1.1045695 0 2 .8954305 2 2v1.527864c0 .3104902-.0722902.6167164-.2111456.8944272l-.6506578 1.3013156c-.084696.169392-.2578276.2763932-.4472136.2763932h-1.690983c0 .8284271-.6715729 1.5-1.5 1.5s-1.5-.6715729-1.5-1.5zm-9-3.5943058v1.0943058c0 .2761424.22385763.5.5.5h12c.161755 0 .309627-.0913899.381966-.236068l.0652476-.1304951c.0347139-.0694278.0527864-.1459843.0527864-.2236068v-.9098301c0-.2761424-.2238576-.5-.5-.5h-2.427051c-.189386 0-.3625176-.1070012-.4472136-.2763932l-1.7236068-3.4472136c-.084696-.169392-.2578275-.2763932-.4472136-.2763932h-5.65301695c-.2152152 0-.40628463.137715-.47434165.3418861l-1.30189805 3.9056942c-.01699441.0509832-.02565835.1043728-.02565835.1581139z" fill="#3d3d3d"/></svg>