<svg height="32" viewBox="0 0 32 32" width="32" xmlns="http://www.w3.org/2000/svg"><path d="m20 5c1.1045695 0 2 .82081129 2 1.83333333v1.83333334h4c1.1045695 0 2 .82081129 2 1.83333333v11c0 1.012522-.8954305 1.8333333-2 1.8333333h-3v1.8333334c0 1.012522-.8954305 1.8333333-2 1.8333333h-10c-1.1045695 0-2-.8208113-2-1.8333333v-1.8333334h-3c-1.1045695 0-2-.8208113-2-1.8333333v-11c0-1.01252204.8954305-1.83333333 2-1.83333333h4v-1.83333334c0-1.01252204.8954305-1.83333333 2-1.83333333zm1 15h-10v4.5c0 .2761424.2238576.5.5.5h9c.2761424 0 .5-.2238576.5-.5zm4.5-9h-19c-.27614237 0-.5.186548-.5.4166667v9.1666666c0 .2301187.22385763.4166667.5.4166667h2.5v-1.6666667h-.5c-.27614237 0-.5-.2238576-.5-.5v-.6666666c0-.2761424.22385763-.5.5-.5h15c.2761424 0 .5.2238576.5.5v.6665943c.0000723.2761823-.2238177.5000723-.5.5000723h-.5v1.6666667h2.5c.2761424 0 .5-.186548.5-.4166667v-9.1666666c0-.2301187-.2238576-.4166667-.5-.4166667zm-3 3c.2761424 0 .5.2238576.5.5v1c0 .2761424-.2238576.5-.5.5h-1c-.2761424 0-.5-.2238576-.5-.5v-1c0-.2761424.2238576-.5.5-.5zm-3-7h-7c-.2761424 0-.5.22385763-.5.5v1.5h8v-1.5c0-.27614237-.2238576-.5-.5-.5z" fill="#3d3d3d" fill-rule="evenodd"/></svg>