<svg height="32" viewBox="0 0 32 32" width="32" xmlns="http://www.w3.org/2000/svg"><path d="m5.67796784 6c.90521136 0 1.69756571.60799488 1.93185165 1.48236191l.4066499 1.51763809h18.74516671c.2761424 0 .5.22385763.5.5 0 .04369564-.0057278.08720277-.017037.12940952l-2.3815937 8.88822858c-.234286.874367-1.0266403 1.4823619-1.9318517 1.4823619h-11.9672432l.2995709 1.1187271c.4982157.1596076.9284003.4712355 1.2359717.8803016h9.0010938c.4561477-.6066709 1.1819804-.9990287 1.9994531-.9990287 1.3807119 0 2.5 1.1192881 2.5 2.5s-1.1192881 2.5-2.5 2.5c-1.2093254 0-2.2180997-.8586618-2.4499027-1.9995655h-8.1001946c-.231803 1.1409037-1.2405773 1.9995655-2.4499027 1.9995655-1.38071187 0-2.5-1.1192881-2.5-2.5 0-.9254954.50290304-1.7335314 1.25034501-2.1657441l-3.47307775-12.96366542c-.05857148-.21859176-.25666007-.37059048-.48296291-.37059048h-.79430435c-.27614237 0-.5-.22385763-.5-.5v-1c0-.27614237.22385763-.5.5-.5zm19.12883026 5h-16.25443032l1.87564432 7h12.1194781c.2263029 0 .4243915-.1519987.482963-.3705905z" fill="#3d3d3d" fill-rule="evenodd"/></svg>