<svg height="32" viewBox="0 0 32 32" width="32" xmlns="http://www.w3.org/2000/svg"><path d="m16 4c3.3133738 0 5.9994573 2.68574884 6 5.99899587l1.2054497.00100413c1.6029666 0 2.929656 1.2317604 3.0296463 2.8128651l.7588895 12c.1045767 1.6536277-1.167066 3.0779409-2.8402935 3.1812926l-.0946303.0043814-16.02350385.0014609c-1.67649231 0-3.03555785-1.3431458-3.03555785-3 0-.0624239.00197146-.1248325.00591151-.1871349l.75888946-12c.09999031-1.5811047 1.4266797-2.8128651 3.02964634-2.8128651l1.20455269-.001.0051385-.22393826c.1182897-3.20948685 2.7574646-5.77506174 5.9958615-5.77506174zm7.2245404 8h-14.44911523c-.53573534 0-.9791347.4105868-1.01255295.9376217l-.76237817 12.031174-.00049405.0312043c0 .5522847.45421996 1 1.01452867 1l16.03419283-.0019474c.5592175-.0344506.9842195-.5092217.9492684-1.0604309l-.7608965-12c-.0334183-.5270349-.4768177-.9376217-1.012553-.9376217zm-7.2245403-6c-2.2088044 0-3.9994574 1.79031836-4 3.999h7.9989999l-.0038953-.19864034c-.1040258-2.11639119-1.8529093-3.80035966-3.9951046-3.80035966z" fill="#3d3d3d"/></svg>