<svg height="32" viewBox="0 0 32 32" width="32" xmlns="http://www.w3.org/2000/svg"><path d="m20.351704 10.2333248 1.4142136 1.4142136c.1952621.1952621.1952621.5118446 0 .7071068l-7.436236 7.4362359c-.038646.0386461-.0833668.0706945-.1323828.0948701l-2.6755864 1.3196477c-.2476574.1221491-.5474448.0204045-.669594-.2272529-.0668142-.1354659-.0688087-.2938756-.0054264-.4309808l1.2659552-2.7384436c.0247076-.0534462.0586613-.1021081.1002964-.1437432l7.4316536-7.4316536c.1952622-.1952621.5118447-.1952621.7071068 0zm.6977909-4.2333248-2 2h-10.5494949c-.27614237 0-.5.22385763-.5.5v15c0 .2761424.22385763.5.5.5h15c.2761424 0 .5-.2238576.5-.5v-10.5510101l2-2v13.0510101c0 1.1045695-.8954305 2-2 2h-16c-1.1045695 0-2-.8954305-2-2v-16c0-1.1045695.8954305-2 2-2zm3.1823593.35393219 1.4142136 1.41421356c.1736146.17351807.1929052.44293711.0579097.63780465l-.057964.06924781-1.7587213 1.75818089c-.1953252.1951566-.5118658.1951323-.707161-.0000543l-1.4142136-1.41421355c-.1953165-.19520783-.1953165-.51179032-.0000543-.70705246l1.7588299-1.75818092c.1953252-.19515661.5118658-.19513229.707161.00005432z" fill="#3d3d3d" fill-rule="evenodd"/></svg>