<svg height="32" viewBox="0 0 32 32" width="32" xmlns="http://www.w3.org/2000/svg"><path d="m16 14c2.7614237 0 5-2.2385763 5-5 0-2.76142375-2.2385763-5-5-5s-5 2.23857625-5 5c0 2.7614237 2.2385763 5 5 5zm0 2c4.418278 0 8 3.581722 8 8v3.5c0 .2761424-.2238576.5-.5.5h-1c-.2761424 0-.5-.2238576-.5-.5v-3.5c0-3.3137085-2.6862915-6-6-6s-6 2.6862915-6 6v3.5c0 .2761424-.22385763.5-.5.5h-1c-.27614237 0-.5-.2238576-.5-.5v-3.5c0-4.418278 3.581722-8 8-8zm0-10c1.6568542 0 3 1.34314575 3 3 0 1.6568542-1.3431458 3-3 3s-3-1.3431458-3-3c0-1.65685425 1.3431458-3 3-3z" fill="#3d3d3d" fill-rule="evenodd"/></svg>