<svg height="32" viewBox="0 0 32 32" width="32" xmlns="http://www.w3.org/2000/svg"><path d="m8 8v-1.5c0-.27614237.22385763-.5.5-.5h3c.2761424 0 .5.22385763.5.5v1.5h11.6363636 2.3636364c1.1045695 0 2 .8954305 2 2v12c0 1.1045695-.8954305 2-2 2h-20c-1.1045695 0-2-.8954305-2-2v-12c0-1.1045695.8954305-2 2-2zm-2 2.5v11c0 .2761424.22385763.5.5.5h19c.2761424 0 .5-.2238576.5-.5v-11c0-.2761424-.2238576-.5-.5-.5h-19c-.27614237 0-.5.2238576-.5.5zm2.5 1.5h2c.2761424 0 .5.2238576.5.5v1c0 .2761424-.2238576.5-.5.5h-2c-.27614237 0-.5-.2238576-.5-.5v-1c0-.2761424.22385763-.5.5-.5zm11.5 6c1.1045695 0 2-.8954305 2-2s-.8954305-2-2-2-2 .8954305-2 2 .8954305 2 2 2zm0 2c-2.209139 0-4-1.790861-4-4s1.790861-4 4-4 4 1.790861 4 4-1.790861 4-4 4z" fill="#3d3d3d"/></svg>