<svg height="32" viewBox="0 0 32 32" width="32" xmlns="http://www.w3.org/2000/svg"><path d="m23.7429453 9.67126824-14.07167706 14.07167706c1.72387056 1.4106894 3.92746156 2.2570547 6.32873176 2.2570547 5.5228475 0 10-4.4771525 10-10 0-2.4012702-.8463653-4.6048612-2.2570547-6.32873176zm-1.4142135-1.41421357c-1.7238706-1.41068938-3.9274616-2.25705467-6.3287318-2.25705467-5.5228475 0-10 4.4771525-10 10 0 2.4012702.84636529 4.6048612 2.25705467 6.3287318zm-6.3287318 19.74294533c-6.627417 0-12-5.372583-12-12s5.372583-12 12-12 12 5.372583 12 12-5.372583 12-12 12z" fill="#3d3d3d"/></svg>