<svg height="32" viewBox="0 0 32 32" width="32" xmlns="http://www.w3.org/2000/svg"><path d="m11.5 6c.2761424 0 .5.22385763.5.5l-.001 1.5h14.001c1.1045695 0 2 .8954305 2 2v12c0 1.1045695-.8954305 2-2 2h-20c-1.1045695 0-2-.8954305-2-2v-12c0-1.1045695.8954305-2 2-2h1.999l.001-1.5c0-.27614237.22385763-.5.5-.5zm14 4h-19c-.27614237 0-.5.2238576-.5.5v11c0 .2761424.22385763.5.5.5h19c.2761424 0 .5-.2238576.5-.5v-11c0-.2761424-.2238576-.5-.5-.5zm-5.5 2c2.209139 0 4 1.790861 4 4s-1.790861 4-4 4-4-1.790861-4-4 1.790861-4 4-4zm0 2c-1.1045695 0-2 .8954305-2 2s.8954305 2 2 2 2-.8954305 2-2-.8954305-2-2-2zm-9.5-2c.2761424 0 .5.2238576.5.5v1c0 .2761424-.2238576.5-.5.5h-2c-.27614237 0-.5-.2238576-.5-.5v-1c0-.2761424.22385763-.5.5-.5z" fill="#3d3d3d"/></svg>