<svg height="32" viewBox="0 0 32 32" width="32" xmlns="http://www.w3.org/2000/svg"><path d="m16 4c6.627417 0 12 5.372583 12 12s-5.372583 12-12 12-12-5.372583-12-12 5.372583-12 12-12zm0 2c-5.5228475 0-10 4.4771525-10 10s4.4771525 10 10 10 10-4.4771525 10-10-4.4771525-10-10-10zm-3.3845797 13c.1725475 0 .3261392.1006091.3973354.2523148l.0284381.0798824c.2373365.9464634 1.471713 1.6678028 2.9588062 1.6678028 1.431647 0 2.629071-.668552 2.9281393-1.5629008l.0365411-.1292524c.0417694-.1802447.2023417-.3078468.3873628-.3078468h1.312249c.1758444 0 .3183944.1425199.3183944.3183643l-.0018844.0345895c-.2233574 2.0438262-2.3680472 3.6470462-4.9808022 3.6470462-2.4203883 0-4.4390976-1.3758334-4.9008021-3.2032393l-.0409376-.1842116c-.0536899-.2794973.1293632-.5495989.4088605-.6032889.0320388-.0061544.0645896-.0092602.0972142-.0092602zm-1.1154203-6c.8284271 0 1.5.6715729 1.5 1.5s-.6715729 1.5-1.5 1.5-1.5-.6715729-1.5-1.5.6715729-1.5 1.5-1.5zm9 0c.8284271 0 1.5.6715729 1.5 1.5s-.6715729 1.5-1.5 1.5-1.5-.6715729-1.5-1.5.6715729-1.5 1.5-1.5z" fill="#3d3d3d"/></svg>