<svg height="32" viewBox="0 0 32 32" width="32" xmlns="http://www.w3.org/2000/svg"><path d="m16 4c1.0375794 0 2.0014585.42619388 2.6961388 1.14400323.9526132-.31092451 2.0077252-.23530992 2.9270247.25417387.9129395.48609742 1.5627424 1.31154608 1.8408974 2.26786232.9725619.16534437 1.8596204.70879787 2.4473107 1.54928043.6026874.86193055.8038923 1.91234635.6024536 2.90424385.7938346.6028463 1.331858 1.5071219 1.4579883 2.5358072.1268204 1.034314-.1808209 2.0472098-.8120657 2.8258542.4301288.9112168.4864747 1.9742235.1116119 2.9521401-.3689095.9623862-1.1034971 1.7068666-2.0129228 2.1013335-.040631.9926456-.4714323 1.9478218-1.2377466 2.6387793-.7758819.6995841-1.7848754 1.0283443-2.7870313.9549442-.5007397.8629283-1.3319978 1.5084454-2.3372697 1.7594383-1.0082653.2517404-2.0481444.070781-2.8963893-.4592271-.8482449.5300081-1.888124.7109675-2.8963893.4592271-1.0052719-.2509929-1.83653-.89651-2.3372697-1.7594383-1.00215592.0734001-2.01114938-.2553601-2.78703127-.9549442-.76631434-.6909575-1.19711568-1.6461337-1.23774664-2.6387793-.90942567-.3944669-1.64401324-1.1389473-2.01292278-2.1013335-.37486278-.9779166-.31851687-2.0409233.11161188-2.9521401-.63124478-.7786444-.93888607-1.7915402-.81206565-2.8258542.12613028-1.0286853.6641537-1.9329609 1.45798822-2.5358072-.20143862-.9918975-.0002338-2.0423133.6024536-2.90424385.58769034-.84048256 1.47474881-1.38393606 2.44731069-1.54928043.27815504-.95631624.92795791-1.7817649 1.84089745-2.26786232.9192995-.48948379 1.9744115-.56509838 2.9270247-.25417387.6946803-.71780935 1.6585594-1.14400323 2.6961388-1.14400323zm0 1.99992835c-.8646544 0-1.6678915.35516369-2.2467949.95334172-.7938489-.25910531-1.6731138-.19609278-2.439201.21181282-.7607873.4050836-1.3022927 1.0929616-1.53408987 1.88989655-.8104728.1377878-1.54969235.59066842-2.03943705 1.29107476-.50224233.7182797-.66991395 1.5936314-.50204749 2.4202176-.66153249.5023749-1.10988786 1.2559425-1.21499701 2.1131853-.10568429.8619335.1506849 1.7060184.67672518 2.3548925-.35844264.7593519-.40539784 1.6451961-.09301043 2.4601315.30742634.8019933.9195861 1.4223973 1.67744509 1.7511217.03385932.8272096.39286246 1.6231945 1.03146133 2.1989959.64657188.5829903 1.48740445.8569587 2.32253915.7957916.4172854.7191112 1.1100044 1.2570453 1.9477357 1.4662074.8402258.2097848 1.7067966.0589844 2.4136713-.3826916.7068747.441676 1.5734455.5924764 2.4136713.3826916.8377313-.2091621 1.5304503-.7470962 1.9477357-1.4662074.8351347.0611671 1.6759673-.2128013 2.3225392-.7957916.6385988-.5758014.997602-1.3717863 1.0314613-2.1989959.757859-.3287244 1.3700187-.9491284 1.6774451-1.7511217.3123874-.8149354.2654322-1.7007796-.0930105-2.4601315.5260403-.6488741.7824095-1.492959.6767252-2.3548925-.1051091-.8572428-.5534645-1.6108104-1.214997-2.1131853.1678665-.8265862.0001948-1.7019379-.5020475-2.4202176-.4897447-.70040634-1.2289642-1.15328696-2.039437-1.29107476-.2317972-.79693495-.7733026-1.48481295-1.5340899-1.88989655-.7660872-.4079056-1.6453521-.47091813-2.439201-.21181282-.5789034-.59817803-1.3821405-.95334172-2.2467949-.95334172zm-4.0000423 15.50007165.0000103-.9155568c.000006-.1675273.0839071-.3239201.2234813-.4165723.5310833-.3525439.9024343-.6722824 1.114053-.9592156.3602122-.4884104.5403155-1.0664572.5403155-1.7341576 0-.0865538-.0029525-.1700151-.0088576-.2503864-.0059051-.0803714-.0147627-.1638327-.0265729-.2503864h-1.2715262c-.2761424 0-.5-.2238576-.5-.5v-.6320658c0-.2612569.2011363-.4784722.4616224-.498525l.7430154-.057199h.1062916c-.0826717-.2472965-.1505795-.4945892-.2037255-.7418856-.0531461-.2472965-.0797187-.4945892-.0797187-.7418857 0-.5811466.0944804-1.1066437.2834442-1.5765069.1889637-.4698633.4517375-.8686228.7883292-1.1962906.3365916-.3276678.7351811-.5811428 1.1957802-.7604328.4605991-.1792899.9684316-.2689335 1.5235126-.2689335.6613731 0 1.2371134.1298287 1.7272381.38949.2536601.1343856.5790877.3879989.9762829.7608401.2013274.1889952.2113348.5054138.0223461.7067472l-.002984.0031514-.7179685.7516503c-.1890327.1979094-.5020544.2070569-.7023218.0205241-.1154949-.1075742-.2131026-.1844236-.2928229-.2305484-.2243944-.1298306-.4783106-.194745-.7617563-.194745-.4724093 0-.8473786.1421934-1.1249191.4265843s-.4163087.7233355-.4163087 1.316847c0 .2225668.0177151.4451302.0531458.667697s.0826709.4451303.1417221.6676971h2.1218589c.2761423 0 .5.2238576.5.5v.6877898c0 .2761424-.2238577.5-.5.5h-1.7852689c.0118102.0865537.0206678.170015.0265729.2503864.0059051.0803713.0088576.1700149.0088576.2689335 0 .4451336-.0620028.8284374-.1860102 1.1499227-.1240075.3214854-.2818839.8748052-.5653295 1.2086554v.0741885h4.088253c.2761424 0 .5.2238577.5.5v1.0741886c0 .2761424-.2238576.5-.5.5l-7.0000601.0000178c-.2761424 0-.5-.2238576-.5-.5v-.0000178z" fill="#3d3d3d"/></svg>