<svg height="32" viewBox="0 0 32 32" width="32" xmlns="http://www.w3.org/2000/svg"><path d="m18 4c3.3137085 0 6 2.6862915 6 6v1.001l3.5.0003037c.2761424 0 .5.2238576.5.5v14.5c0 1.0543618-.8158778 1.9181651-1.8507377 1.9945143l-.1492623.0054857h-16c-1.0543618 0-1.91816512-.8158778-1.99451426-1.8507376l-.00548574-.1492624v-3h2v2.5c0 .2761424.2238576.5.5.5h15c.2761424 0 .5-.2238576.5-.5v-12.5h-21c-.55228475 0-1-.4477152-1-1 0-.5522847.44771525-1 1-1l7-.0003037v-1.001c0-3.3137085 2.6862915-6 6-6zm0 11c1.1045695 0 2 .8954305 2 2 0 .7398375-.4017154 1.3858493-.9989225 1.7318119l-.0010775 4.2694918c0 .5522848-.4477153 1-1 1s-1-.4477152-1-1l-.0000725-4.26891c-.5977614-.3458198-.9999275-.9921413-.9999275-1.7323937 0-1.1045695.8954305-2 2-2zm-6 4.0013037v2h-2c-.55228475 0-1-.4477152-1-1 0-.5522847.44771525-1 1-1zm0-4v2h-5c-.55228475 0-1-.4477152-1-1 0-.5522847.44771525-1 1-1zm6-9.0013037c-2.209139 0-4 1.790861-4 4v1.001h8v-1.001c0-2.209139-1.790861-4-4-4z" fill="#3d3d3d" fill-rule="evenodd"/></svg>