<svg height="32" viewBox="0 0 32 32" width="32" xmlns="http://www.w3.org/2000/svg"><path d="m21.9737663 14.2702772 1.7260991-1.7260372.1470047.8313154c.1020866.6019205.1531299.9767354.1531299 1.1244446 0 .1371896-.005231.2733865-.0155397.4084663l.0155397.0915337-.0233712.0005819c-.2892518 3.0857932-3.2303545 5.5692014-6.9756891 5.9490342l-.0009397 5.0503839h2.5c.2761424 0 .5.2238576.5.5v1c0 .2761424-.2238576.5-.5.5h-7c-.2761424 0-.5-.2238576-.5-.5v-1c0-.2761424.2238576-.5.5-.5h2.5v-4.758l2.3622571-2.3598325c2.4717163-.4357703 4.3157377-2.0268805 4.5993645-3.8760621l.0286375-.249828c.006483-.0849497.0097409-.1703809.0097409-.2562774l-.0065879-.083532c-.0043821-.0383504-.0109405-.0871439-.0196458-.1461908zm3.5721752-8.52332553.7071068.70710678c.1952622.19526215.1952622.51184464 0 .70710679l-19.09188306 19.09188306c-.19526215.1952622-.51184464.1952622-.70710679 0l-.70710678-.7071068c-.19526214-.1952621-.19526214-.5118446 0-.7071067l19.09188313-19.09188313c.1952621-.19526214.5118446-.19526214.7071067 0zm-3.9534611-1.74695167c.2373005 0 .4419182.1667598.4897612.39918735l.2174935 1.05928765-1.6957312 1.69541997-.2350148-1.15389497h-8.7380146l-.9381623 4.6717052c-.4339136 2.2129472-.6745849 3.5456106-.6918172 3.8033385l.0014922.1547034.0121549.1841799c.0687694.7336444.3837361 1.432176.8882079 2.0410561l-1.41848447 1.4173737c-.82262701-.9363003-1.34716207-2.0573907-1.46099431-3.2717749l-.02337122-.0005819.01584508-.0875513-.01186409-.2054171-.00398099-.2070316c0-.5234664.6392526-3.8904183 1.91775781-10.10085569.04787806-.23238352.25246589-.39914431.48973029-.39914431z" fill="#3d3d3d"/></svg>