<svg height="32" viewBox="0 0 32 32" width="32" xmlns="http://www.w3.org/2000/svg"><path d="m15 16h-5c-1.1045695 0-2-.8954305-2-2v-8c0-1.1045695.8954305-2 2-2h12c1.1045695 0 2 .8954305 2 2v8c0 1.1045695-.8954305 2-2 2h-5v2h1c1.1045695 0 2 .8954305 2 2v6h1.5c.2761424 0 .5.2238576.5.5v1c0 .2761424-.2238576.5-.5.5h-11c-.2761424 0-.5-.2238576-.5-.5v-1c0-.2761424.2238576-.5.5-.5h1.5v-6c0-1.1045695.8954305-2 2-2h1zm2.5 4h-3c-.2761424 0-.5.2238576-.5.5v5.5h4v-5.5c0-.2761424-.2238576-.5-.5-.5zm4-14h-11c-.2761424 0-.5.22385763-.5.5v7c0 .2761424.2238576.5.5.5h11c.2761424 0 .5-.2238576.5-.5v-7c0-.27614237-.2238576-.5-.5-.5z" fill="#3d3d3d"/></svg>