<svg height="32" viewBox="0 0 32 32" width="32" xmlns="http://www.w3.org/2000/svg"><path d="m21.0318994 19.6176858 5.0998286 5.0998286c.1952621.1952622.1952621.5118447 0 .7071068l-.7071068.7071068c-.1952621.1952621-.5118446.1952621-.7071068 0l-5.0998286-5.0998286c-1.5396708 1.2316277-3.4926721 1.9681006-5.6176858 1.9681006-4.97056275 0-9-4.0294373-9-9 0-4.97056275 4.02943725-9 9-9 4.9705627 0 9 4.02943725 9 9 0 2.1250137-.7364729 4.078015-1.9681006 5.6176858zm-7.0318994 1.3823142c3.8659932 0 7-3.1340068 7-7s-3.1340068-7-7-7-7 3.1340068-7 7 3.1340068 7 7 7zm1-8h2.5c.2761424 0 .5.2238576.5.5v1c0 .2761424-.2238576.5-.5.5h-2.5v2.5c0 .2761424-.2238576.5-.5.5h-1c-.2761424 0-.5-.2238576-.5-.5v-2.5h-2.5c-.2761424 0-.5-.2238576-.5-.5v-1c0-.2761424.2238576-.5.5-.5h2.5v-2.5c0-.2761424.2238576-.5.5-.5h1c.2761424 0 .5.2238576.5.5z" fill="#3d3d3d"/></svg>