<svg height="32" viewBox="0 0 32 32" width="32" xmlns="http://www.w3.org/2000/svg"><path d="m22 12h-2-8-2-1.22457483c-.53573534 0-.9791347.4105868-1.01255295.9376217l-.76089651 12c-.00131682.0207675-.00197571.0415703-.00197571.0623783 0 .5522847.45421996 1 1.01452867 1h15.97090823c.0211103 0 .0422154-.0006495.0632846-.0019474.5592175-.0344506.9842195-.5092217.9492684-1.0604309l-.7608965-12c-.0334183-.5270349-.4768177-.9376217-1.012553-.9376217zm-12-2c0-3.3137085 2.6862915-6 6-6s6 2.6862915 6 6h1.2054497c1.6029666 0 2.929656 1.2317604 3.0296463 2.8128651l.7588895 12c.1045767 1.6536277-1.167066 3.0779409-2.8402935 3.1812926-.0630407.0038939-.1261891.0058423-.1893529.0058423h-15.92878125c-1.67649231 0-3.03555785-1.3431458-3.03555785-3 0-.0624239.00197146-.1248325.00591151-.1871349l.75888946-12c.09999031-1.5811047 1.4266797-2.8128651 3.02964634-2.8128651zm2 0h8c0-2.209139-1.790861-4-4-4s-4 1.790861-4 4z" fill="#3d3d3d"/></svg>