<svg height="32" viewBox="0 0 32 32" width="32" xmlns="http://www.w3.org/2000/svg"><path d="m9.25080041 21.3339927-3.47353315-12.96340222c-.05857148-.21859176-.25666007-.37059048-.48296291-.37059048h-.79430435c-.27614237 0-.5-.22385763-.5-.5v-1c0-.27614237.22385763-.5.5-.5h1.17796784c.90521136 0 1.69756571.60799488 1.93185165 1.48236191l.4066499 1.51763809h18.74516671c.2761424 0 .5.22385763.5.5 0 .04369564-.0057278.08720277-.017037.12940952l-2.3815937 8.88822858c-.234286.874367-1.0266403 1.4823619-1.9318517 1.4823619h-11.9672432l.29978 1.1187941c.4985212.1597541.9289151.471719 1.2364926.8812059h8.9996338c.4561032-.6072234 1.1822742-1 2.0001831-1 1.3807119 0 2.5 1.1192881 2.5 2.5s-1.1192881 2.5-2.5 2.5c-1.209479 0-2.2183558-.8588798-2.4499909-2h-8.1000182c-.2316351 1.1411202-1.2405119 2-2.4499909 2-1.38071187 0-2.5-1.1192881-2.5-2.5 0-.9256833.50310732-1.7338596 1.25080041-2.1660073zm-.69843263-10.3339927 1.87564432 7h12.1194781c.2263029 0 .4243915-.1519987.482963-.3705905l1.7763449-6.6294095zm1.94763222 13c.2761424 0 .5-.2238576.5-.5s-.2238576-.5-.5-.5-.5.2238576-.5.5.2238576.5.5.5zm13 0c.2761424 0 .5-.2238576.5-.5s-.2238576-.5-.5-.5-.5.2238576-.5.5.2238576.5.5.5z" fill="#3d3d3d" fill-rule="evenodd"/></svg>