<svg height="32" viewBox="0 0 32 32" width="32" xmlns="http://www.w3.org/2000/svg"><path d="m16 4c6.627417 0 12 5.372583 12 12s-5.372583 12-12 12-12-5.372583-12-12 5.372583-12 12-12zm0 2c-5.5228475 0-10 4.4771525-10 10s4.4771525 10 10 10 10-4.4771525 10-10-4.4771525-10-10-10zm0 13c2.4203883 0 4.4390976 1.3758334 4.9008021 3.2032393l.0409376.1842116c.0536899.2794973-.1293632.5495989-.4088605.6032889-.0320388.0061544-.0645896.0092602-.0972142.0092602h-1.0510853c-.1725475 0-.3261392-.1006091-.3973354-.2523148l-.0284381-.0798824c-.2373365-.9464634-1.471713-1.6678028-2.9588062-1.6678028-1.431647 0-2.629071.668552-2.9281393 1.5629008l-.0365411.1292524c-.0417694.1802447-.2023417.3078468-.3873628.3078468h-1.312249c-.1758444 0-.3183944-.1425199-.3183944-.3183643l.0018844-.0345895c.2233574-2.0438262 2.3680472-3.6470462 4.9808022-3.6470462zm-4.5-5c.8284271 0 1.5.6715729 1.5 1.5s-.6715729 1.5-1.5 1.5-1.5-.6715729-1.5-1.5.6715729-1.5 1.5-1.5zm9 0c.8284271 0 1.5.6715729 1.5 1.5s-.6715729 1.5-1.5 1.5-1.5-.6715729-1.5-1.5.6715729-1.5 1.5-1.5zm0-4c1.7059136 0 3.1267746 1.0461043 3.437069 2.4307295l.0318518.1677346c.0296252.1898374-.1002524.367747-.2900898.3973723l-.0536412.0041636h-1.3099892c-.1337622 0-.2560005-.0686794-.3263294-.1782904l-.0356451-.0704561c-.1658612-.4319427-.7536094-.7512535-1.4532261-.7512535-.7067519 0-1.2993418.3258571-1.4581688.7645042l-.0272787.0956445c-.0082699.0794747-.0752551.1398513-.1551589.1398513h-1.5768383c-.1265243 0-.2325148-.0879336-.2602157-.2060093l-.0066212-.0765735.0013116-.0152397c.1744262-1.5170404 1.6672293-2.7021775 3.48297-2.7021775zm-9 0c1.7059136 0 3.1267746 1.0461043 3.437069 2.4307295l.0318518.1677346c.0296252.1898374-.1002524.367747-.2900898.3973723l-.0536412.0041636h-1.3099892c-.1337622 0-.2560005-.0686794-.3263294-.1782904l-.0356451-.0704561c-.1658612-.4319427-.7536094-.7512535-1.4532261-.7512535-.7067519 0-1.2993418.3258571-1.4581688.7645042l-.0272787.0956445c-.0082699.0794747-.07525508.1398513-.15515892.1398513h-1.57683823c-.12652433 0-.23251486-.0879336-.26021574-.2060093l-.00662122-.0765735.00131165-.0152397c.17442616-1.5170404 1.6672293-2.7021775 3.48296996-2.7021775z" fill="#3d3d3d"/></svg>