<svg height="32" viewBox="0 0 32 32" width="32" xmlns="http://www.w3.org/2000/svg"><path d="m16 4c4.418278 0 8 3.581722 8 8 0 2.7888556-2.3905467 7.7182797-7.1716402 14.7882722-.0714659.1056794-.1624938.1967074-.2681733.2681733-.4574789.309371-1.0791336.1893058-1.3885046-.2681732l-.6762421-1.0097418c-2.6380068-3.9790091-4.4724761-7.2385205-5.50341338-9.7785305h2.53576058c1.0986411 1.2274987 2.6952134 2 4.472213 2 3.3137085 0 6-2.6862915 6-6s-2.6862915-6-6-6h-6.3c-.38659932 0-.7-.22385763-.7-.5v-1c0-.27614237.31340068-.5.7-.5zm.5 4c.2761424 0 .5.22385763.5.5v2.8786797c0 .1326082.0526784.2597852.1464466.3535533l1.6213204 1.6213204c.1952621.1952621.1952621.5118446 0 .7071068l-.7071068.7071068c-.1952622.1952621-.5118447.1952621-.7071068 0l-1.767767-1.767767c-.3750727-.3750728-.5857864-.8837806-.5857864-1.4142136v-3.0857864c0-.27614237.2238576-.5.5-.5zm-6.5 4c0 .7012708.1203084 1.3744421.3414114 2h-2.8414114c-.27614237 0-.5-.2238576-.5-.5v-1c0-.2761424.22385763-.5.5-.5zm1.527787-4c-.5165148.57709585-.9229712 1.25476038-1.1863756 2h-4.8414114c-.27614237 0-.5-.22385763-.5-.5v-1c0-.27614237.22385763-.5.5-.5z" fill="#3d3d3d"/></svg>