<svg height="32" viewBox="0 0 32 32" width="32" xmlns="http://www.w3.org/2000/svg"><path d="m16 4c6.627417 0 12 5.372583 12 12s-5.372583 12-12 12-12-5.372583-12-12 5.372583-12 12-12zm0 2c-5.5228475 0-10 4.4771525-10 10s4.4771525 10 10 10 10-4.4771525 10-10-4.4771525-10-10-10zm.5 6c.2761424 0 .5.2238576.5.5v2.5h2.5c.2761424 0 .5.2238576.5.5v1c0 .2761424-.2238576.5-.5.5h-2.501l.001 2.5c0 .2761424-.2238576.5-.5.5h-1c-.2761424 0-.5-.2238576-.5-.5l-.001-2.5h-2.499c-.2761424 0-.5-.2238576-.5-.5v-1c0-.2761424.2238576-.5.5-.5h2.5v-2.5c0-.2761424.2238576-.5.5-.5z" fill="#3d3d3d"/></svg>