<svg height="32" viewBox="0 0 32 32" width="32" xmlns="http://www.w3.org/2000/svg"><path d="m25.5 6c.2761424 0 .5.22385763.5.5v17.5c0 1.1045695-.8954305 2-2 2h-16c-1.1045695 0-2-.8954305-2-2v-17.5c0-.27614237.22385763-.5.5-.5zm-1.5 5.999h-16v11.501c0 .2761424.22385763.5.5.5h15c.2761424 0 .5-.2238576.5-.5zm-3.4030164 2.5280323.7071068.7071068c.1952621.1952621.1952621.5118446 0 .7071067l-5.2981034 5.2981034c-.7810486.7810486-2.0473785.7810486-2.8284271 0l-2.1213204-2.1213204c-.1122299-.1122299-.2296517-.2287322-.3522654-.349507-.1967256-.1937831-.1991174-.510353-.0053383-.7070826l.7100261-.7100463c.1943186-.1942288.508958-.1953277.704584-.0024157l2.1249742 2.122605c.1952621.1952622.5118446.1952622.7071067 0l4.94455-4.9445499c.1952621-.1952622.5118446-.1952622.7071068 0zm3.4030164-6.5270323h-16v1.999h16z" fill="#3d3d3d"/></svg>