<svg height="32" viewBox="0 0 32 32" width="32" xmlns="http://www.w3.org/2000/svg"><path d="m16 8c2.7959189 0 5.2089866 1.63918093 6.3306149 4.0089545 3.1599423.171608 5.6693851 2.7882709 5.6693851 5.9910455 0 3.3137085-2.6862915 6-6 6h-13c-2.76142375 0-5-2.2385763-5-5 0-2.6887547 2.12230671-4.8818181 4.78311038-4.9953805l.28770822-.0041282c.48501824-3.3925337 3.4025392-6.0004913 6.9291814-6.0004913zm0 2c-2.4952055 0-4.5999812 1.8400936-4.9493127 4.283546l-.1866964 1.3058762c-.0355862.2489132-.2504879.4326786-.5019079.4291881l-1.362083-.0186103c-1.65685425 0-3 1.3431458-3 3s1.34314575 3 3 3h13c2.209139 0 4-1.790861 4-4 0-2.1267678-1.6651691-3.8792548-3.7778399-3.9939882l-.8922084-.0484535c-.1832448-.0099515-.3463124-.1194872-.4248213-.2853607l-.3822556-.8076287c-.8213039-1.7352491-2.5695647-2.8645689-4.5228748-2.8645689zm.3535534 3.3535534 2.2196699 2.2196699c.0976311.0976311.0976311.2559223 0 .3535534-.0468841.0468841-.1104726.0732233-.1767767.0732233l-1.3968932-.0008932.0004466 3.5008932c0 .2761424-.2238576.5-.5.5h-1c-.2761424 0-.5-.2238576-.5-.5l-.0004466-3.5008932-1.396.0008932c-.1380712 0-.25-.1119288-.25-.25 0-.0663041.0263392-.1298926.0732233-.1767767l2.2196699-2.2196699c.1952622-.1952622.5118446-.1952622.7071068 0z" fill="#3d3d3d"/></svg>