<svg height="32" viewBox="0 0 32 32" width="32" xmlns="http://www.w3.org/2000/svg"><path d="m16 17.4142136-6.4246212 6.4246212c-.19526215.1952621-.51184464.1952621-.70710678 0l-.70710678-.7071068c-.19526215-.1952622-.19526215-.5118447 0-.7071068l6.42462116-6.4246212-6.42462116-6.4246212c-.19526215-.19526215-.19526215-.51184464 0-.70710678l.70710678-.70710678c.19526214-.19526215.51184463-.19526215.70710678 0l6.4246212 6.42462116 6.4246212-6.42462116c.1952621-.19526215.5118446-.19526215.7071068 0l.7071068.70710678c.1952621.19526214.1952621.51184463 0 .70710678l-6.4246212 6.4246212 6.4246212 6.4246212c.1952621.1952621.1952621.5118446 0 .7071068l-.7071068.7071068c-.1952622.1952621-.5118447.1952621-.7071068 0z" fill="#3d3d3d" fill-rule="evenodd"/></svg>