<svg height="32" viewBox="0 0 32 32" width="32" xmlns="http://www.w3.org/2000/svg"><path d="m6 15v3.5c0 1.9329966 1.98984556 3.5 4.4444444 3.5h11.1111112c2.4545988 0 4.4444444-1.5670034 4.4444444-3.5v-3.5zm13.7001622 10c.7600868 0 1.4349326.3926715 1.8588587.9997563.1075667.0587635.2463817.3386153.416445.8395554.0175773.0517759.0265444.106084.0265444.1607623 0 .2455027-.176906.4496869-.410196.4919689l-.0798143.0069571-1.0146606.0008896c-.1440716 0-.2782191-.0717074-.3653435-.1909738l-.0463351-.0770738c-.0269113-.0552892-.0563976-.0966095-.088459-.123961-.0792561-.067613-.1794936-.1079914-.2884964-.1079914-.1065887 0-.2047961.0386097-.2831999.1035394-.0224989.0186324-.0437747.0439211-.0638275.0758661l-.0291619.0529098c-.0668806.137107-.1880618.2315273-.3265393.2591921l-.084866.0083958-2.1410886.0000968c-.1441192 0-.2783043-.0717541-.3654244-.191085l-.0463273-.0771143c-.0263446-.0541698-.0551893-.094795-.0865339-.1218757-.0796054-.0687761-.1807108-.109925-.2907487-.109925-.1171797 0-.2242296.0466635-.3059733.1236616l-.0383116.0455814-.0353102.0617419c-.0666918.1377298-.1881062.2326709-.3269621.260538l-.0851082.0084771h-2.124991c-.1435559 0-.2772984-.0711953-.3644535-.1897701l-.0464083-.0766398c-.0091142-.0185542-.0186992-.0345166-.0287552-.0478872-.0851954-.1132773-.2154587-.1857029-.3614441-.1857029-.0994133 0-.1915357.0335863-.2671.090788-.0273282.0206873-.0530322.050325-.0771119.088913l-.0349014.0645947c-.0451485.0955799-.1190933.1737558-.2104874.224204l-.0716401.032476-1.1134643-.0007913-.0503055-.0025403-.0497937-.0075949c-.2401797-.0491407-.40452649-.2630812-.39925561-.4997884l.01011061-.089555.0156662-.0684179c.1385759-.5391981.4408237-1.0052393.8455958-1.3323606s1.2918499-.5736368 1.8588338-.4498133 1.0590007.4697738 1.394169.9497527c.4239261-.6070848 1.0987719-.9997563 1.8588588-.9997563.7600868 0 1.4349326.3926715 1.8588587.9997563.4239261-.6070848 1.0987719-.9997563 1.8588588-.9997563zm-2.2001622-15c1.3807119 0 2.5 1.1192881 2.5 2.5 0 .1713864-.017246.3387448-.0500973.5004345l7.5046428-.0004345c.3012462 0 .5454545.2052028.5454545.4583333v5.0416667c0 3.0375661-2.9304998 5.5-6.5454545 5.5h-10.909091c-3.61495468 0-6.5454545-2.4624339-6.5454545-5.5v-5.0416667c0-.2531305.24420832-.4583333.54545455-.4583333l10.50464275.0004345c-.0328513-.1616897-.0500973-.3290481-.0500973-.5004345 0-1.3807119 1.1192881-2.5 2.5-2.5zm0 2c-.2761424 0-.5.2238576-.5.5s.2238576.5.5.5.5-.2238576.5-.5-.2238576-.5-.5-.5zm7-5c1.3807119 0 2.5 1.11928813 2.5 2.5 0 1.3807119-1.1192881 2.5-2.5 2.5s-2.5-1.1192881-2.5-2.5c0-1.38071187 1.1192881-2.5 2.5-2.5zm-18.99983302-1.46410162c.44412886-.25641791 1.00319306-.13343296 1.30188845.26839242l.06413695.09763299 3.50000002 6.06217781-.054.0306552h-2.23700002l-2.94105081-5.09283301c-.27614237-.47829262-.11226722-1.08988303.36602541-1.36602541zm18.99983302 3.46410162c-.2761424 0-.5.22385763-.5.5s.2238576.5.5.5.5-.22385763.5-.5-.2238576-.5-.5-.5zm-5.5-3c.5522847 0 1-.44771525 1-1s-.4477153-1-1-1-1 .44771525-1 1 .4477153 1 1 1z" fill="#3d3d3d" fill-rule="evenodd"/></svg>