<svg height="32" viewBox="0 0 32 32" width="32" xmlns="http://www.w3.org/2000/svg"><path d="m17 6.5v17c0 .2761424.2238576.5.5.5h6c.2761424 0 .5-.2238576.5-.5v-17c0-.27614237-.2238576-.5-.5-.5h-6c-.2761424 0-.5.22385763-.5.5zm-2 17v-17c0-.27614237-.2238576-.5-.5-.5h-6c-.27614237 0-.5.22385763-.5.5v17c0 .2761424.22385763.5.5.5h6c.2761424 0 .5-.2238576.5-.5zm8.5 2.5h-15c-.27614237 0-.5.2238576-.5.5v1c0 .2761424-.22385763.5-.5.5h-1c-.27614237 0-.5-.2238576-.5-.5v-21.5c0-1.1045695.8954305-2 2-2h16c1.1045695 0 2 .8954305 2 2v21.5c0 .2761424-.2238576.5-.5.5h-1c-.2761424 0-.5-.2238576-.5-.5v-1c0-.2761424-.2238576-.5-.5-.5zm-13-18h2c.2761424 0 .5.22385763.5.5v1c0 .27614237-.2238576.5-.5.5h-2c-.2761424 0-.5-.22385763-.5-.5v-1c0-.27614237.2238576-.5.5-.5zm0 4h2c.2761424 0 .5.2238576.5.5v1c0 .2761424-.2238576.5-.5.5h-2c-.2761424 0-.5-.2238576-.5-.5v-1c0-.2761424.2238576-.5.5-.5zm9-4h2c.2761424 0 .5.22385763.5.5v1c0 .27614237-.2238576.5-.5.5h-2c-.2761424 0-.5-.22385763-.5-.5v-1c0-.27614237.2238576-.5.5-.5zm0 4h2c.2761424 0 .5.2238576.5.5v1c0 .2761424-.2238576.5-.5.5h-2c-.2761424 0-.5-.2238576-.5-.5v-1c0-.2761424.2238576-.5.5-.5zm-8.5 6c-.5522847 0-1-.4477153-1-1s.4477153-1 1-1 1 .4477153 1 1-.4477153 1-1 1zm9 0c-.5522847 0-1-.4477153-1-1s.4477153-1 1-1 1 .4477153 1 1-.4477153 1-1 1z" fill="#3d3d3d"/></svg>