<svg height="32" viewBox="0 0 32 32" width="32" xmlns="http://www.w3.org/2000/svg"><path d="m26 4c1.1045695 0 2 .8954305 2 2v15c0 1.1045695-.8954305 2-2 2h-11.076l-6.04701808 4.4818005c-.22185183.1644274-.53499303.1178758-.69942046-.1039761-.06203994-.0837066-.09638054-.1847033-.09822351-.288878l-.07233795-4.0889464h-2.007c-1.1045695 0-2-.8954305-2-2v-15c0-1.1045695.8954305-2 2-2zm-.5 2h-19c-.27614237 0-.5.22385763-.5.5v14c0 .2761424.22385763.5.5.5h2.9806256c.27272332 0 .49513927.2185482.49992307.4912296l.04645133 2.6477704 4.1040281-3.0407447c.0861234-.0638103.1904729-.0982553.2976595-.0982553h11.0713124c.2761424 0 .5-.2238576.5-.5v-14c0-.27614237-.2238576-.5-.5-.5zm-9.5 12c.5522847 0 1 .4477153 1 1s-.4477153 1-1 1-1-.4477153-1-1 .4477153-1 1-1zm0-11c2.209139 0 4 1.790861 4 4 0 1.4717405-.7948373 2.7578367-1.9786642 3.452441-.1577741.0925731-.3888848.1948209-.6933322.3067435-.1966639.0723248-.3273864.2595955-.3274516.4691368l-.0003962 1.2716787c-.0002418.2760815-.2240743.4998442-.5001558.5h-1c-.2761424 0-.5-.2238576-.5-.5v-2.5c0-.5128358.3860402-.9355072.8833789-.9932723l.2658834-.0122134c1.0348599-.0763492 1.8507377-.9401525 1.8507377-1.9945143 0-1.1045695-.8954305-2-2-2-.9023126 0-1.6650645.59753015-1.9141448 1.4184794l-.022804.0969234c-.0038238.0198576-.0076593.041567-.0115064.0651283-.0394497.2418675-.2484017.4194689-.4934653.4194689h-1.0697067c-.2534755.0000359-.458958-.2054466-.458958-.4589221l.0037856-.0588265c.2538992-1.96455568 1.933111-3.4822514 3.9667996-3.4822514z" fill="#3d3d3d"/></svg>