<svg height="32" viewBox="0 0 32 32" width="32" xmlns="http://www.w3.org/2000/svg"><path d="m16 22c-3.3137085 0-6-2.6862915-6-6s2.6862915-6 6-6 6 2.6862915 6 6-2.6862915 6-6 6zm0-2c2.209139 0 4-1.790861 4-4s-1.790861-4-4-4-4 1.790861-4 4 1.790861 4 4 4zm-.5-16h1c.2761424 0 .5.22385763.5.5v3c0 .27614237-.2238576.5-.5.5h-1c-.2761424 0-.5-.22385763-.5-.5v-3c0-.27614237.2238576-.5.5-.5zm0 20h1c.2761424 0 .5.2238576.5.5v3c0 .2761424-.2238576.5-.5.5h-1c-.2761424 0-.5-.2238576-.5-.5v-3c0-.2761424.2238576-.5.5-.5zm8.631728-16.83883476.7071068.70710678c.1952621.19526214.1952621.51184463 0 .70710678l-2.1213204 2.1213203c-.1952621.1952622-.5118446.1952622-.7071068 0l-.7071067-.70710674c-.1952622-.19526215-.1952622-.51184464 0-.70710678l2.1213203-2.12132034c.1952621-.19526215.5118446-.19526215.7071068 0zm-14.14213564 14.14213566.70710674.7071067c.1952622.1952622.1952622.5118447 0 .7071068l-2.1213203 2.1213204c-.19526215.1952621-.51184464.1952621-.70710678 0l-.70710678-.7071068c-.19526215-.1952622-.19526215-.5118447 0-.7071068l2.12132034-2.1213203c.19526214-.1952622.51184463-.1952622.70710678 0zm18.01040764-5.8033009v1c0 .2761424-.2238576.5-.5.5h-3c-.2761424 0-.5-.2238576-.5-.5v-1c0-.2761424.2238576-.5.5-.5h3c.2761424 0 .5.2238576.5.5zm-20 0v1c0 .2761424-.22385763.5-.5.5h-3c-.27614237 0-.5-.2238576-.5-.5v-1c0-.2761424.22385763-.5.5-.5h3c.27614237 0 .5.2238576.5.5zm16.8388348 8.631728-.7071068.7071068c-.1952622.1952621-.5118447.1952621-.7071068 0l-2.1213203-2.1213204c-.1952622-.1952621-.1952622-.5118446 0-.7071068l.7071067-.7071067c.1952622-.1952622.5118447-.1952622.7071068 0l2.1213204 2.1213203c.1952621.1952621.1952621.5118446 0 .7071068zm-14.1421357-14.14213564-.70710674.70710674c-.19526215.1952622-.51184464.1952622-.70710678 0l-2.12132034-2.1213203c-.19526215-.19526215-.19526215-.51184464 0-.70710678l.70710678-.70710678c.19526214-.19526215.51184463-.19526215.70710678 0l2.1213203 2.12132034c.1952622.19526214.1952622.51184463 0 .70710678z" fill="#3d3d3d" fill-rule="evenodd"/></svg>