<svg height="32" viewBox="0 0 32 32" width="32" xmlns="http://www.w3.org/2000/svg"><path d="m19 8c1.1045695 0 2 .8954305 2 2v13l-9.0500973.0004345c-.231803 1.1409037-1.2405773 1.9995655-2.4499027 1.9995655-1.20932545 0-2.21809967-.8586618-2.44990271-1.9995655l-1.05009729-.0004345c-1.1045695 0-2-.8954305-2-2v-11c0-1.1045695.8954305-2 2-2zm-.5 2h-12c-.27614237 0-.5.2238576-.5.5v10c0 .2761424.22385763.5000451.5.5000451h.99978306c.45610108-.607249 1.18228779-1.0000451 2.00021694-1.0000451.8179292 0 1.5441159.3927961 2.0002169 1.0000451h6.9997831c.2761424 0 .5-.2239027.5-.5000451v-10c0-.2761424-.2238576-.5-.5-.5zm5.6856058 1c.6927866 0 1.3362322.358526 1.7007568.9476567l1.8143942 2.9323543c.1956179.3161501.2992432.6805674.2992432 1.0523432v5.0676458c0 1.1045695-.8954305 2-2 2l-1.0500973.0004345c-.231803 1.1409037-1.2405773 1.9995655-2.4499027 1.9995655s-2.2180997-.8586618-2.4499027-1.9995655l-1.0500973-.0004345v-12zm-.1487192 2h-3.0368866v7.4997831c.4178676-.3138241.9372173-.4997831 1.5-.4997831.8179292 0 1.5441159.3927961 2.0002169 1.0000451h.9997831c.2761424 0 .5-.2239027.5-.5000451v-4.3245926c0-.0838447-.0210847-.1663432-.0613144-.2399062l-1.4631135-2.6754074c-.0876982-.1603624-.2559095-.2600938-.4386855-.2600938zm-14.5368866 10c.27614237 0 .5-.2238576.5-.5s-.22385763-.5-.5-.5-.5.2238576-.5.5.22385763.5.5.5zm13 0c.2761424 0 .5-.2238576.5-.5s-.2238576-.5-.5-.5-.5.2238576-.5.5.2238576.5.5.5z" fill="#3d3d3d"/></svg>