<svg height="32" viewBox="0 0 32 32" width="32" xmlns="http://www.w3.org/2000/svg"><path d="m13.4977443 4c.2761424 0 .5.22385763.5.5l-.0007443 3.5h9.0417503c.6075674 0 1.1821933.27617944 1.5617376.7506099l2.4 3c.5843499.7304373.5843499 1.7683429 0 2.4987802l-2.4 3c-.3795443.4744305-.9541702.7506099-1.5617376.7506099h-9.0417503l.0007443 9.5c0 .2761424-.2238576.5-.5.5h-1c-.2761423 0-.5-.2238576-.5-.5v-8.5h1.9988722l-.0006165-1h-7.996c-1.1045695 0-2-.8954305-2-2v-6c0-1.1045695.8954305-2 2-2h7.996l.0006165-1h-1.9988722v-2.5c0-.27614237.2238577-.5.5-.5zm.4982557 6h-7.496c-.27614237 0-.5.2238576-.5.5v5c0 .2761424.22385763.5.5.5h7.496zm8.8024379 0h-8.8014379v6h8.8014379c.1518918 0 .2955483-.0690449.3904344-.1876525l2-2.5c.1460874-.1826093.1460874-.4420857 0-.624695l-2-2.5c-.0948861-.1186076-.2385426-.1876525-.3904344-.1876525z" fill="#3d3d3d" fill-rule="evenodd"/></svg>