<svg height="32" viewBox="0 0 32 32" width="32" xmlns="http://www.w3.org/2000/svg"><path d="m25.5 10h-19c-.27614237 0-.5.2238576-.5.5v11c0 .2761424.22385763.5.5.5h2.5v-2h-.5c-.27614237 0-.5-.2238576-.5-.5v-1c0-.2761424.22385763-.5.5-.5h15c.2761424 0 .5.2238576.5.5v1c0 .2761424-.2238576.5-.5.5h-.5v2h2.5c.2761424 0 .5-.2238576.5-.5v-11c0-.2761424-.2238576-.5-.5-.5zm-15.5-2v-2c0-1.1045695.8954305-2 2-2h8c1.1045695 0 2 .8954305 2 2v2h4c1.1045695 0 2 .8954305 2 2v12c0 1.1045695-.8954305 2-2 2h-3v2c0 1.1045695-.8954305 2-2 2h-10c-1.1045695 0-2-.8954305-2-2v-2h-3c-1.1045695 0-2-.8954305-2-2v-12c0-1.1045695.8954305-2 2-2zm2 0h8v-1.5c0-.27614237-.2238576-.5-.5-.5h-7c-.2761424 0-.5.22385763-.5.5zm-1 12v5.5c0 .2761424.2238576.5.5.5h9c.2761424 0 .5-.2238576.5-.5v-5.5zm9.5-7h2c.2761424 0 .5.2238576.5.5v1c0 .2761424-.2238576.5-.5.5h-2c-.2761424 0-.5-.2238576-.5-.5v-1c0-.2761424.2238576-.5.5-.5zm-6 9h3c.2761424 0 .5.2238576.5.5v1c0 .2761424-.2238576.5-.5.5h-3c-.2761424 0-.5-.2238576-.5-.5v-1c0-.2761424.2238576-.5.5-.5z" fill="#3d3d3d" fill-rule="evenodd"/></svg>