<svg height="32" viewBox="0 0 32 32" width="32" xmlns="http://www.w3.org/2000/svg"><path d="m16 4c6.627417 0 12 5.372583 12 12s-5.372583 12-12 12-12-5.372583-12-12 5.372583-12 12-12zm0 2c-5.5228475 0-10 4.4771525-10 10s4.4771525 10 10 10 10-4.4771525 10-10-4.4771525-10-10-10zm.8894125 4c.6613731 0 1.2371134.1298287 1.7272381.38949.2536601.1343856.5790877.3879989.9762829.7608401.1789576.1679957.2067489.4366717.0779826.6357063l-.0586205.0741923-.7179521.7516659c-.1890491.1978938-.5020708.2070413-.7023382.0205085-.1154949-.1075742-.2131026-.1844236-.2928229-.2305484-.2243944-.1298306-.4783106-.194745-.7617563-.194745-.4724093 0-.8473786.1421934-1.1249191.4265843s-.4163087.7233355-.4163087 1.316847c0 .2225668.0177151.4451302.0531458.667697s.0826709.4451303.1417221.6676971h2.1218589c.2761423 0 .5.2238576.5.5v.6877898c0 .2761424-.2238577.5-.5.5h-1.7852689c.0118102.0865537.0206678.170015.0265729.2503864.0059051.0803713.0088576.1700149.0088576.2689335 0 .4451336-.0620028.8284374-.1860102 1.1499227l-.1853191.5055585c-.0970748.2498903-.2180415.5123253-.3800104.7030969v.0741885h4.088253c.2761424 0 .5.2238577.5.5v1.0741886c0 .2761424-.2238576.5-.5.5h-7.0000601c-.2761424 0-.5-.2238576-.5-.5v-.9155568c0-.1675324.083898-.3239314.2234787-.4165829.5311059-.3525398.9024672-.6722747 1.1140837-.959205.3602122-.4884104.5403155-1.0664572.5403155-1.7341576 0-.0865538-.0029525-.1700151-.0088576-.2503864-.0059051-.0803714-.0147627-.1638327-.0265729-.2503864h-1.2715262c-.2761424 0-.5-.2238576-.5-.5v-.6320658c0-.2612569.2011363-.4784722.4616224-.498525l.7430154-.057199h.1062916c-.0826717-.2472965-.1505795-.4945892-.2037255-.7418856-.0531461-.2472965-.0797187-.4945892-.0797187-.7418857 0-.5811466.0944804-1.1066437.2834442-1.5765069.1889637-.4698633.4517375-.8686228.7883292-1.1962906.3365916-.3276678.7351811-.5811428 1.1957802-.7604328.4605991-.1792899.9684316-.2689335 1.5235126-.2689335z" fill="#3d3d3d" fill-rule="evenodd"/></svg>