<svg height="32" viewBox="0 0 32 32" width="32" xmlns="http://www.w3.org/2000/svg"><g fill="#3d3d3d" fill-rule="evenodd"><path d="m13 20.128v-9.128h3.136c.5040025 0 .9753311.0489995 1.414.147s.8213317.2613322 1.148.49.5856657.5319981.777.91.287.8423306.287 1.393c0 .5320027-.0956657.993998-.287 1.386s-.4503317.7139987-.777.966-.7046645.4386661-1.134.56-.8866642.182-1.372.182h-1.134v3.094zm2.058-4.732h1.008c1.1200056 0 1.68-.4853285 1.68-1.456 0-.4760024-.1493318-.811999-.448-1.008s-.7279972-.294-1.288-.294h-.952z" fill-rule="nonzero"/><path d="m16 24c4.418278 0 8-3.581722 8-8s-3.581722-8-8-8-8 3.581722-8 8 3.581722 8 8 8zm0 2c-5.5228475 0-10-4.4771525-10-10s4.4771525-10 10-10 10 4.4771525 10 10-4.4771525 10-10 10z"/></g></svg>