<svg height="32" viewBox="0 0 32 32" width="32" xmlns="http://www.w3.org/2000/svg"><path d="m16.2326706 21.3627707 4.7522756 2.4984192-.9076039-5.2917368c-.0278189-.162197.0259553-.3276971.1437984-.4425657l3.8446717-3.7476287-5.3132057-.772054c-.1628551-.0236642-.3036379-.1259489-.3764689-.2735207l-2.3761378-4.81458108-2.3761378 4.81458108c-.072831.1475718-.2136138.2498565-.3764689.2735207l-5.31320573.772054 3.84467173 3.7476287c.1178431.1148686.1716173.2803687.1437984.4425657l-.9076039 5.2917368 4.7522756-2.4984192c.145662-.0765791.3196792-.0765791.4653412 0zm-.2326706 2.1372293-6.7444722 3.5457789c-.2444223.1285004-.54673587.0345271-.67523628-.2098952-.05116953-.0973302-.06882687-.2088143-.05023845-.3171931l1.28807957-7.5100801-5.45639263-5.3186683c-.19774179-.1927507-.20178794-.5093073-.00903733-.7070491.0767543-.0787418.17732551-.1299854.28614402-.1457976l7.5405492-1.095706 3.3722361-6.83289662c.1222111-.24762683.422024-.34929633.6696509-.22708519.0986063.04866512.17842.12847888.2270851.22708519l3.3722361 6.83289662 7.5405492 1.095706c.2732724.0397088.4626132.2934302.4229043.5667026-.0158122.1088185-.0670558.2093898-.1457976.2861441l-5.4563926 5.3186683 1.2880795 7.5100801c.0466805.2721683-.1361134.5306462-.4082816.5773267-.1083788.0185884-.2198629.0009311-.3171931-.0502384z" fill="#3d3d3d"/></svg>