<svg height="32" viewBox="0 0 32 32" width="32" xmlns="http://www.w3.org/2000/svg"><path d="m16 26c5.5228475 0 10-4.4771525 10-10s-4.4771525-10-10-10-10 4.4771525-10 10 4.4771525 10 10 10zm0 2c-6.627417 0-12-5.372583-12-12s5.372583-12 12-12 12 5.372583 12 12-5.372583 12-12 12zm-1.0651879-6.5v-4.9737669h-1.4348121c-.2761424 0-.5-.2238576-.5-.5v-1.1332024c0-.2761424.2238576-.5.5-.5h1.4348121v-1.5731043c0-1.8257669 1.1709077-2.8199264 2.8818062-2.8199264.4049016 0 .8262213.0154171 1.2639592.0462514l.0000007-.00001c.2618651.0184458.4648763.2362603.4648763.4987742l-.0002482.9474261c0 .2760455-.2237064.4998629-.4997518.5l-.6863713.000589c-.9302933 0-1.1102902.4211043-1.1102902 1.0383313v1.3622576h1.6464555c.2761424 0 .5.2238577.5.5 0 .0224407-.0015107.0448559-.004522.0670937l-.1534491 1.1332024c-.0335754.2479501-.245265.4329064-.495478.4329064h-1.4930064v4.9904027c0 .2666294-.2161458.4827752-.4827752.4827752h-1.3312057c-.2761424 0-.5-.2238576-.5-.5z" fill="#3d3d3d" fill-rule="evenodd"/></svg>