<svg height="32" viewBox="0 0 32 32" width="32" xmlns="http://www.w3.org/2000/svg"><path d="m5 16c0-1.1045584.8954215-1.9999799 1.99997989-1.9999799l2.99998677-.0000201c1.47894464-.8998895 2.44495174-1.9990641 3.09006744-3.4146832.1974424-.4332604.5204993-1.40243108.9398234-2.82785243.4347201-1.73888036 1.4533041-2.75746437 2.9701425-2.75746437 1.9300555 0 3 1.28393342 3 3v3.5c0 .2761424.2238576.5.5.5h2.5c2.0153709 0 3.75 1.5089696 3.75 3.5 0 .2386689-.0526201.5731544-.1578603 1.0034566-.0265678.1086295-.0159564.2230297.0301385.3249193l.0000598-.0000271c.0972643.214996.1651648.3849896.2037015.5099807.114351.3708903.1739605.7618052.1739605 1.1616705 0 .4823359-.0854766.9510183-.2486198 1.3868992-.0433222.1157468-.1166851.2736721-.2200888.4737758-.0441403.0854189-.0627141.1817538-.0534957.2774605l-.0000298.0000029c.0148227.153892.0222341.2745125.0222341.3618616 0 .7331888-.211904 1.4348438-.5944304 2.0158869-.0631925.0959871-.1617481.2222016-.2956668.3786434-.0705151.0823745-.1123348.1854432-.1191527.2936627l-.0000867-.0000055c-.0128014.2031938-.0289425.3596669-.0484235.4694194-.2817204 1.5871645-1.5643335 2.8423931-3.1922399 2.8423931h-4.75c-1.7617266 0-3.1331744-.3709422-4.9207244-1.1448055-1.6868822-.7302825-2.0021427-.8429641-2.5378376-.854737l-.041438-.0004575h-3c-1.10455855 0-1.99998017-.8954216-1.99998017-1.9999802h-.00001983zm17.25 9c.658444 0 1.2221531-.6312752 1.2478205-1.4437317-.0347145-.1199299-.0511644-.1855149-.0661231-.2914531l-.0437967-.3101703c-.0267865-.1897032.0571804-.3780328.2161921-.4848976l.2599889-.1747272c.3882112-.2608998.6359183-.7479889.6359183-1.2950201 0-.1418979-.0222969-.2935526-.0665883-.4565952l-.0655727-.2413815c-.0412767-.1519448-.0085706-.3144566.0882707-.4386047l.1538433-.1972232c.2513537-.3222291.390047-.7271513.390047-1.1661954 0-.4215779-.1318124-.815458-.3711391-1.1354787l-.182317-.243789c-.1119833-.1497408-.1310585-.3494511-.0494462-.517683l.1328709-.273894c.1490111-.307165.2200314-.5707917.2200314-.8291553 0-.8196946-.7820419-1.5-1.75-1.5h-3c-1.1045695 0-2-.8954305-2-2v-4c0-.68393342-.2633888-1-1-1-.4831616 0-.7979109.31474932-1.0404934 1.28168606-.4563765 1.55455446-.7999863 2.58538384-1.0495407 3.13299704-.8498891 1.8649665-2.1679779 3.3191399-4.1379621 4.4521685l-.2315037.1331484h-3.0405001c-.27617543 0-.50005985.2238844-.50005985.5000598h.00005985v5.9999402c0 .2761604.22387221.5000326.50003258.5000326l2.49996742-.0000326c.0427643.0001582.0427643.0001582.0853811.0009404.9159599.0201299 1.2917136.1544332 3.2884683 1.0188651 1.5589416.6748946 2.6876967.9801945 4.1261506.9801945z" fill="#3d3d3d"/></svg>