<svg height="32" viewBox="0 0 32 32" width="32" xmlns="http://www.w3.org/2000/svg"><path d="m19 6h6.5c.2761459.00000797.5.22386203.5.5l-.0000868 1.0000868c0 .27609444-.2238188.4999132-.4999132.4999132h-.6l-.9 18c0 1.1045695-.8954305 2-2 2h-12c-1.1045695 0-2-.8954305-2-2l-.9-18h-.60001117v-.00001117c-.2761362 0-.49998883-.22385262-.49998883-.49998883l.0000868-1.0000868c0-.27609444.22381877-.4999132.4999132-.4999132h6.5v-1.5c0-.27614237.2238576-.5.5-.5h5c.2761424 0 .5.22385763.5.5zm4 2h-14l.97376306 17.527735c.0147199.2649583.23386334.472265.49923014.472265h11.0540136c.2653668 0 .4845102-.2073067.4992301-.472265zm-9.5 3h1c.2761424 0 .5.2238576.5.5v11c0 .2761424-.2238576.5-.5.5h-1c-.2761424 0-.5-.2238576-.5-.5v-11c0-.2761424.2238576-.5.5-.5zm4 0h1c.2761424 0 .5.2238576.5.5v11c0 .2761424-.2238576.5-.5.5h-1c-.2761424 0-.5-.2238576-.5-.5v-11c0-.2761424.2238576-.5.5-.5z" fill="#3d3d3d" fill-rule="evenodd"/></svg>