<svg height="32" viewBox="0 0 32 32" width="32" xmlns="http://www.w3.org/2000/svg"><path d="m14 20c1.3062521 0 2.4175144.8348501 2.8293257 2.0000889l8.6706743-.0000889c.2761424 0 .5.2238576.5.5v1c0 .2761424-.2238576.5-.5.5l-8.6710242.0009007c-.4120906 1.1647219-1.5230936 1.9990993-2.8289758 1.9990993s-2.4168852-.8343774-2.8289758-1.9990993l-4.6710242-.0009007c-.27614237 0-.5-.2238576-.5-.5v-1c0-.2761424.22385763-.5.5-.5l4.6706743.0000889c.4118113-1.1652388 1.5230736-2.0000889 2.8293257-2.0000889zm0 2c-.5522847 0-1 .4477153-1 1 0 .5128358.3860402.9355072.8833789.9932723l.1166211.0067277c.5522847 0 1-.4477153 1-1 0-.5128358-.3860402-.9355072-.8833789-.9932723zm7-9c1.3062521 0 2.4175144.8348501 2.8293257 2.0000889l1.6706743-.0000889c.2761424 0 .5.2238576.5.5v1c0 .2761424-.2238576.5-.5.5l-1.6710242.0009007c-.4120906 1.1647219-1.5230936 1.9990993-2.8289758 1.9990993s-2.4168852-.8343774-2.8289758-1.9990993l-11.6710242-.0009007c-.27614237 0-.5-.2238576-.5-.5v-1c0-.2761424.22385763-.5.5-.5l11.6706743.0000889c.4118113-1.1652388 1.5230736-2.0000889 2.8293257-2.0000889zm0 2c-.5522847 0-1 .4477153-1 1 0 .5128358.3860402.9355072.8833789.9932723l.1166211.0067277c.5522847 0 1-.4477153 1-1 0-.5128358-.3860402-.9355072-.8833789-.9932723zm-10-9c1.3062521 0 2.4175144.8348501 2.8293257 2.00008893l11.6706743-.00008893c.2761424 0 .5.22385763.5.5v1c0 .27614237-.2238576.5-.5.5l-11.6710242.0009007c-.4120906 1.1647219-1.5230936 1.9990993-2.8289758 1.9990993-1.30588222 0-2.41688515-.8343774-2.82897577-1.9990993l-1.67102423-.0009007c-.27614237 0-.5-.22385763-.5-.5v-1c0-.27614237.22385763-.5.5-.5l1.67067428.00008893c.4118113-1.16523883 1.52307366-2.00008893 2.82932572-2.00008893zm0 2c-.5522847 0-1 .44771525-1 1 0 .51283584.3860402.93550716.8833789.99327227l.1166211.00672773c.5522847 0 1-.44771525 1-1 0-.51283584-.3860402-.93550716-.8833789-.99327227z" fill="#3d3d3d" fill-rule="evenodd"/></svg>