<svg height="32" viewBox="0 0 32 32" width="32" xmlns="http://www.w3.org/2000/svg"><path d="m25 23c0 1.1045695-.8954305 2-2 2s-2-.8954305-2-2h-9c0 1.1045695-.8954305 2-2 2s-2-.8954305-2-2c0-.0874657.00561464-.1736201.01650316-.2581224-.60689058-.3433993-1.01650316-.9948034-1.01650316-1.7418776v-.5c0-.2761424.22385763-.5.5-.5h1c.27614237 0 .5.2238576.5.5s.22385763.5.5.5h8c.2761424 0 .5-.2238576.5-.5v-10c0-.2761424-.2238576-.5-.5-.5h-12.5c-.55228475 0-1-.44771525-1-1s.44771525-1 1-1h13c1.1045695 0 2 .8954305 2 2v2h4c.6295146 0 1.2222912.2963883 1.6.8l2 2.6666667c.2596443.3461923.4.7672595.4 1.2v4.3333333c0 1.1045695-.8954305 2-2 2zm-5-9v7h5.5c.2761424 0 .5-.2238576.5-.5v-3.6666667c0-.1081851-.0350889-.2134519-.1-.3l-1.75-2.3333333c-.0944272-.1259029-.2426213-.2-.4-.2zm-13 2h3v2h-3c-.55228475 0-1-.4477153-1-1s.44771525-1 1-1zm-1-4h4v2h-4c-.55228475 0-1-.4477153-1-1s.44771525-1 1-1z" fill="#3d3d3d"/></svg>