<svg height="32" viewBox="0 0 32 32" width="32" xmlns="http://www.w3.org/2000/svg"><path d="m22 12c0-3.3137085-2.6862915-6-6-6s-6 2.6862915-6 6c0 2.7364392 1.9999998 6.8789346 5.9999993 12.4274862 4.0000005-5.5485583 6.0000007-9.6910537 6.0000007-12.4274862zm2 0c0 2.7888556-2.3905467 7.7182797-7.1716402 14.7882722-.0714659.1056794-.1624938.1967074-.2681733.2681733-.4574789.309371-1.0791336.1893058-1.3885046-.2681732-4.7811308-7.0699836-7.1716819-11.9994141-7.1716819-14.7882723 0-4.418278 3.581722-8 8-8s8 3.581722 8 8zm-8 1c-1.1045695 0-2-.8954305-2-2s.8954305-2 2-2 2 .8954305 2 2-.8954305 2-2 2z" fill="#3d3d3d"/></svg>