<svg height="32" viewBox="0 0 32 32" width="32" xmlns="http://www.w3.org/2000/svg"><path d="m20.351704 10.2333248 1.4142136 1.4142136c.1952621.1952621.1952621.5118446 0 .7071068l-7.436236 7.4362359c-.038646.0386461-.0833668.0706945-.1323828.0948701l-2.6755864 1.3196477c-.2476574.1221491-.5474448.0204045-.669594-.2272529-.0668142-.1354659-.0688087-.2938756-.0054264-.4309808l1.2659552-2.7384436c.0247076-.0534462.0586613-.1021081.1002964-.1437432l7.4316536-7.4316536c.1952622-.1952621.5118447-.1952621.7071068 0zm1.4142679-2.12126601 1.7587756-1.75812659c.1952709-.19521094.5118115-.19518662.7070524.00005431l1.4143222 1.41410493c.1952622.19526214.1952622.51184463 0 .70710678l-.0000543.00005431-1.7588299 1.75807227c-.1952709.1952109-.5118115.1951866-.7070524-.0000543l-1.4143222-1.41410493c-.1952622-.19526215-.1952622-.51184464 0-.70710678l.0000543-.00005432zm-.716477-2.11205879-2 2h-10.5494949c-.27614237 0-.5.22385763-.5.5v15c0 .2761424.22385763.5.5.5h15c.2761424 0 .5-.2238576.5-.5v-10.5510101l2-2v13.0510101c0 1.1045695-.8954305 2-2 2h-16c-1.1045695 0-2-.8954305-2-2v-16c0-1.1045695.8954305-2 2-2z" fill="#3d3d3d" fill-rule="evenodd"/></svg>