<svg height="32" viewBox="0 0 32 32" width="32" xmlns="http://www.w3.org/2000/svg"><path d="m20 8c1.1045695 0 2 .8954305 2 2v16c0 1.1045695-.8954305 2-2 2h-12c-1.1045695 0-2-.8954305-2-2v-16c0-1.1045695.8954305-2 2-2zm-.5 2h-11c-.27614237 0-.5.2238576-.5.5v15c0 .2761424.22385763.5.5.5h11c.2761424 0 .5-.2238576.5-.5v-15c0-.2761424-.2238576-.5-.5-.5zm-2 12c.2761424 0 .5.2238576.5.5v1c0 .2761424-.2238576.5-.5.5h-7c-.2761424 0-.5-.2238576-.5-.5v-1c0-.2761424.2238576-.5.5-.5zm6.5-18c1.0543618 0 1.9181651.81587779 1.9945143 1.85073766l.0054857.14926234v16c0 1.0543618-.8158778 1.9181651-1.8507377 1.9945143l-.1541451.0054857.0047296-17.49796138c-.000927-.24726658-.1785696-.45094883-.4119766-.49242891l-.0899053-.00772013-11.4979649.04327644h-2v-.04516602c0-1.0543618.8158778-1.91816512 1.8507377-1.99451426l.1492623-.00548574zm-6.5 14c.2761424 0 .5.2238576.5.5v1c0 .2761424-.2238576.5-.5.5h-7c-.2761424 0-.5-.2238576-.5-.5v-1c0-.2761424.2238576-.5.5-.5zm-5.655902-6c.2494444 0 .4665915.0432762.6514477.12983.1848561.0865537.3530059.2102001.5044543.3709428l-.5345212.4945904c-.0757242-.0865537-.1559015-.1514681-.2405345-.194745-.0846329-.0432768-.1804003-.064915-.2873051-.064915-.1781746 0-.3195986.0473978-.4242762.1421948s-.1570156.2411118-.1570156.438949c0 .0741889.0066815.1483767.0200446.2225657.0133631.0741889.0311803.1483767.0534521.2225657h.9888641v.5625966h-.8619153l.0100222.0834621c.0022272.0267904.0033408.0566716.0033408.0896445 0 .1483779-.0233851.2761458-.0701559.3833076s-.1236075.2163827-.2305122.3276661v.0247296h1.7305122v.7666151h-3v-.5625966c.2004464-.0824321.3685962-.2050481.5044543-.3678516.1358582-.1628035.2037862-.3554858.2037862-.5780526l-.0033407-.0834621c-.0022272-.0267905-.0055679-.0546109-.0100223-.0834621h-.6681514v-.5316847l.4543429-.0309119h.0400891c-.0311805-.0824322-.0567927-.1648631-.0768374-.2472952-.0200446-.0824322-.0300668-.1648631-.0300668-.2472953 0-.1937155.0356344-.3688812.1069042-.5255023.0712699-.1566211.170378-.2895409.2973274-.3987635s.277282-.1937143.4510023-.2534776c.1737202-.0597633.365255-.0896445.5746102-.0896445z" fill="#3d3d3d"/></svg>