<svg height="32" viewBox="0 0 32 32" width="32" xmlns="http://www.w3.org/2000/svg"><path d="m14 5c4.9705627 0 9 4.02943725 9 9 0 2.124779-.7363102 4.0775836-1.9676926 5.6171757l5.0994206 5.1003387c.1952621.1952622.1952621.5118447 0 .7071068l-.7071068.7071068c-.1952621.1952621-.5118446.1952621-.7071068 0l-5.1003387-5.0994206c-1.5395921 1.2313824-3.4923967 1.9676926-5.6171757 1.9676926-4.97056275 0-9-4.0294373-9-9 0-4.97056275 4.02943725-9 9-9zm0 2c-3.8659932 0-7 3.1340068-7 7s3.1340068 7 7 7 7-3.1340068 7-7-3.1340068-7-7-7z" fill="#3d3d3d"/></svg>