<svg height="32" viewBox="0 0 32 32" width="32" xmlns="http://www.w3.org/2000/svg"><path d="m13.5 16c-.8284271 0-1.5-.6715729-1.5-1.5s.6715729-1.5 1.5-1.5 1.5.6715729 1.5 1.5-.6715729 1.5-1.5 1.5zm6 3c-.8284271 0-1.5-.6715729-1.5-1.5s.6715729-1.5 1.5-1.5 1.5.6715729 1.5 1.5-.6715729 1.5-1.5 1.5zm-2-6 .8660254.5c.2391463.1380712.3210839.4438664.1830127.6830127l-2.5 4.330127c-.1380712.2391463-.4438664.3210839-.6830127.1830127l-.8660254-.5c-.2391463-.1380712-.3210839-.4438664-.1830127-.6830127l2.5-4.330127c.1380712-.2391463.4438664-.3210839.6830127-.1830127zm-11.5-5h20c1.1045695 0 2 .8954305 2 2v12c0 1.1045695-.8954305 2-2 2h-20c-1.1045695 0-2-.8954305-2-2v-4c1.1045695 0 2-.8954305 2-2s-.8954305-2-2-2v-4c0-1.1045695.8954305-2 2-2zm0 11.4648712v2.0351288c0 .2761424.22385763.5.5.5h19c.2761424 0 .5-.2238576.5-.5v-11c0-.2761424-.2238576-.5-.5-.5h-19c-.27614237 0-.5.2238576-.5.5v2.0351288c1.19560274.6916188 2 1.9843065 2 3.4648712s-.80439726 2.7732524-2 3.4648712z" fill="#3d3d3d"/></svg>