<svg height="32" viewBox="0 0 32 32" width="32" xmlns="http://www.w3.org/2000/svg"><path d="m5 16v7c0 1.1045695.8954305 2 2 2l3.041438.0004575.1418294.0061009c.4625213.0312637.8624789.184743 2.3960082.8486361 1.78755.7738633 3.1589978 1.1448055 4.9207244 1.1448055h4.75c1.6279064 0 2.9105195-1.2552286 3.1922399-2.8423931.0146107-.0823144.0273428-.1909091.0381962-.3257842l.010314-.1436297c.0068179-.1082195.0486376-.2112882.1191527-.2936627l.1743557-.2119922c.0492778-.0631073.0897149-.1186576.1213111-.1666512.3825264-.5810431.5944304-1.2826981.5944304-2.0158869l-.0055585-.1559772-.0166458-.2058873c-.0092184-.0957067.0093554-.1920416.0534957-.2774605.1034037-.2001037.1767666-.358029.2200888-.4737758.1631432-.4358809.2486198-.9045633.2486198-1.3868992 0-.3998653-.0596095-.7907802-.1739605-1.1616705-.0308294-.0999929-.0804515-.2287873-.1488666-.3863834l-.0548947-.1235702c-.0460949-.1018896-.0567063-.2162898-.0301385-.3249193.1052402-.4303022.1578603-.7647877.1578603-1.0034566 0-1.9910304-1.7346291-3.5-3.75-3.5h-2.5c-.2761424 0-.5-.2238576-.5-.5v-3.5c0-1.71606658-1.0699445-3-3-3-1.5168384 0-2.5354224 1.01858401-2.9701425 2.75746437l-.2398076.79986545c-.3037147.99178776-.5420619 1.68137868-.7000158 2.02798698-.6451157 1.4156191-1.6111228 2.5147937-3.09006744 3.4146832h-2.99996666c-1.1045695 0-2 .8954305-2 2z" fill="#3d3d3d"/></svg>