<svg height="32" viewBox="0 0 32 32" width="32" xmlns="http://www.w3.org/2000/svg"><g fill="#3d3d3d"><path d="m16.4858936 5.99944648 7.5141064.00043716c1.1045695.00006427 1.9998837.89554686 1.9998837 2.00011636l-.0004372 7.5150393c-.0000309.5303927-.2107422 1.039053-.5857865 1.4140972l-8.6560482 8.6560482c-.7811319.7808585-2.0473564.7809197-2.8285638.0001368l-7.51529943-7.5138464c-.74014182-.7397397-.77920653-1.9152132-.11723061-2.7010643l.11709388-.1272261 8.65795176-8.65795178c.3751013-.37510127.8838567-.58578644 1.41433-.58578644zm7.0141064 1.99955352h-6.8078932c-.1326083 0-.2597852.05267842-.3535534.14644661l-8.15800001 8.15799999c-.17360817.1735245-.19289796.4429443-.05790243.6378119l.05794947.0692478 6.80879917 6.8069874c.1953168.1951707.511863.1951496.7071538-.0000471l8.1560275-8.1560275c.0937519-.0937519.146429-.2209017.1464467-.3534869l.0009059-6.8089322c0-.24545988-.1767497-.4496319-.4099925-.49199889z"/><circle cx="22" cy="10" r="1"/><path d="m12.5 19.625v-.6866676c0-.1256493.062923-.2429485.1676078-.3124372.3983264-.2644048.6768453-.504206.8355565-.7194037.2701571-.3663079.4052336-.7998429.4052336-1.3006182 0-.0649154-.0022144-.1275113-.0066432-.1877898l-.0199295-.1877898h-.9536375c-.2071052 0-.3749972-.1678933-.3749972-.375v-.4740494c0-.1959426.1508511-.3588541.3462142-.3738938l.5572574-.0428992h.0797181c-.0620033-.1854723-.1129338-.3709419-.152793-.5564142-.0398593-.1854723-.0597886-.3709419-.0597886-.5564142 0-.43586.0708598-.8299828.2125816-1.1823802.1417217-.3523975.3388006-.6514671.5912424-.897218.2524419-.2457508.5513817-.4358571.8968284-.5703245.3454468-.1344675.7263183-.2017002 1.1426259-.2017002.4960261 0 .9278281.0973715 1.2954188.2921175.1902437.1007892.4343126.2909992.7322068.57063.1342171.1259969.1550605.3275038.0584865.4767798l-.0439651.0556442-.5384601.5637495c-.1417857.1484203-.3765502.1552809-.5267496.0153813-.0866206-.0806806-.1598258-.1383177-.2196155-.1729113-.1682946-.0973729-.3587303-.1460587-.5713129-.1460587-.3543044 0-.6355293.106645-.8436831.3199382s-.3122291.5425016-.3122291.9876352c0 .1669251.0132862.3338477.039859.5007728s.0620027.3338477.1062908.5007728h1.5913822c.2071052 0 .3749971.1678932.3749971.375v.5158424c0 .2071067-.1678919.375-.3749971.375h-1.3389416c.0088576.0649153.0155007.1275113.0199295.1877898s.0066432.1275112.0066432.2017001c0 .3338502-.0465018.621328-.1395067.8624421l-.1389882.3791688c-.0728055.1874177-.1635299.384244-.2850057.5273227v.0556414h3.0661667c.2071052 0 .3749972.1678932.3749972.375v.8056414c0 .2071068-.167892.375-.3749972.375h-5.2500056c-.2071052 0-.3749972-.1678932-.3749972-.375z"/></g></svg>