<svg height="32" viewBox="0 0 32 32" width="32" xmlns="http://www.w3.org/2000/svg"><path d="m21 14c-2.7614237 0-5-2.2385763-5-5 0-2.76142375 2.2385763-5 5-5s5 2.23857625 5 5c0 2.7614237-2.2385763 5-5 5zm1-6v-1.5c0-.27614237-.2238576-.5-.5-.5h-1c-.2761424 0-.5.22385763-.5.5v1.5h-1.5c-.2761424 0-.5.22385763-.5.5v1c0 .27614237.2238576.5.5.5h1.5v1.5c0 .2761424.2238576.5.5.5h1c.2761424 0 .5-.2238576.5-.5v-1.5h1.5c.2761424 0 .5-.22385763.5-.5v-1c0-.27614237-.2238576-.5-.5-.5zm2 7.3263688c.7496048-.3560983 1.4258795-.8415018 2-1.4273861v12.1010173c0 1.1045695-.8954305 2-2 2h-16c-1.1045695 0-2-.8954305-2-2v-20c0-1.1045695.8954305-2 2-2h8.1010173c-.5858843.5741205-1.0712878 1.25039523-1.4273861 2h-6.1736312c-.27614237 0-.5.22385763-.5.5v19c0 .2761424.22385763.5.5.5h15c.2761424 0 .5-.2238576.5-.5zm1.8989827-11.3263688h.1010173v.10101726c-.03333-.03401294-.0670043-.06768725-.1010173-.10101726zm-8.5065693 11c1.0535428.6348198 2.2879185 1 3.6075866 1v.5c0 .2761424-.2238576.5-.5.5h-5c-.2761424 0-.5-.2238576-.5-.5v-1c0-.2761424.2238576-.5.5-.5zm-5.8924134 0h1c.2761424 0 .5.2238576.5.5v1c0 .2761424-.2238576.5-.5.5h-1c-.2761424 0-.5-.2238576-.5-.5v-1c0-.2761424.2238576-.5.5-.5zm0 5h1c.2761424 0 .5.2238576.5.5v1c0 .2761424-.2238576.5-.5.5h-1c-.2761424 0-.5-.2238576-.5-.5v-1c0-.2761424.2238576-.5.5-.5zm4 0h5c.2761424 0 .5.2238576.5.5v1c0 .2761424-.2238576.5-.5.5h-5c-.2761424 0-.5-.2238576-.5-.5v-1c0-.2761424.2238576-.5.5-.5zm-4-10h1c.2761424 0 .5.2238576.5.5v1c0 .2761424-.2238576.5-.5.5h-1c-.2761424 0-.5-.2238576-.5-.5v-1c0-.2761424.2238576-.5.5-.5z" fill="#3d3d3d" fill-rule="evenodd"/></svg>