<svg height="32" viewBox="0 0 32 32" width="32" xmlns="http://www.w3.org/2000/svg"><path d="m24 4c1.1045695 0 2 .8954305 2 2v20c0 1.1045695-.8954305 2-2 2h-16c-1.1045695 0-2-.8954305-2-2v-20c0-1.1045695.8954305-2 2-2zm-.5 2h-15c-.27614237 0-.5.22385763-.5.5v19c0 .2761424.22385763.5.5.5h15c.2761424 0 .5-.2238576.5-.5v-19c0-.27614237-.2238576-.5-.5-.5zm-11 14c.2761424 0 .5.2238576.5.5v1c0 .2761424-.2238576.5-.5.5h-1c-.2761424 0-.5-.2238576-.5-.5v-1c0-.2761424.2238576-.5.5-.5zm8 0c.2761424 0 .5.2238576.5.5v1c0 .2761424-.2238576.5-.5.5h-5c-.2761424 0-.5-.2238576-.5-.5v-1c0-.2761424.2238576-.5.5-.5zm-8-5c.2761424 0 .5.2238576.5.5v1c0 .2761424-.2238576.5-.5.5h-1c-.2761424 0-.5-.2238576-.5-.5v-1c0-.2761424.2238576-.5.5-.5zm8 0c.2761424 0 .5.2238576.5.5v1c0 .2761424-.2238576.5-.5.5h-5c-.2761424 0-.5-.2238576-.5-.5v-1c0-.2761424.2238576-.5.5-.5zm-8-5c.2761424 0 .5.2238576.5.5v1c0 .2761424-.2238576.5-.5.5h-1c-.2761424 0-.5-.2238576-.5-.5v-1c0-.2761424.2238576-.5.5-.5zm8 0c.2761424 0 .5.2238576.5.5v1c0 .2761424-.2238576.5-.5.5h-5c-.2761424 0-.5-.2238576-.5-.5v-1c0-.2761424.2238576-.5.5-.5z" fill="#3d3d3d" fill-rule="evenodd"/></svg>