<svg height="32" viewBox="0 0 32 32" width="32" xmlns="http://www.w3.org/2000/svg"><path d="m19 12 8 8h-3.5l.7003981 1.3199325c.5865057 1.1211757 1.391296 2.7001333 1.7996019 3.6800675.1456602.3495845-.0748975.8005886-.3979492.9454346-.3230517.1448459-.8751221.1448459-1.1612549-.2463379l-2.4407959-4.6990967-3 3zm-13.5 8h11c.2761424 0 .5.2238576.5.5v1c0 .2761424-.2238576.5-.5.5h-11c-.27614237 0-.5-.2238576-.5-.5v-1c0-.2761424.22385763-.5.5-.5zm0-7h11c.2761424 0 .5.2238576.5.5v1c0 .2761424-.2238576.5-.5.5h-11c-.27614237 0-.5-.2238576-.5-.5v-1c0-.2761424.22385763-.5.5-.5zm0-7h19c.2761424 0 .5.22385763.5.5v1c0 .27614237-.2238576.5-.5.5h-19c-.27614237 0-.5-.22385763-.5-.5v-1c0-.27614237.22385763-.5.5-.5z" fill="#3d3d3d" fill-rule="evenodd"/></svg>