<svg height="32" viewBox="0 0 32 32" width="32" xmlns="http://www.w3.org/2000/svg"><path d="m6 16v-7.00001983c0-1.10455855.89544145-1.99998017 2-1.99998017h3l.041438-.00045754c.5356949-.01177289.8509554-.12445451 2.5378376-.85473693 1.78755-.77386335 3.1589978-1.14480553 4.9207244-1.14480553h4.75c1.6279064 0 2.9105195 1.25522863 3.1922399 2.84239311.019481.1097525.0356221.26622563.0484235.4694194l.0000867-.00000547c.0068179.10821947.0486376.21128813.1191527.2936627.1339187.1564418.2324743.28265626.2956668.37864335.3825264.58104312.5944304 1.28269811.5944304 2.01588691 0 .0873491-.0074114.2079696-.0222341.3618616l.0000298.0000029c-.0092184.0957067.0093554.1920416.0534957.2774605.1034037.2001037.1767666.358029.2200888.4737758.1631432.4358809.2486198.9045633.2486198 1.3868992 0 .3998653-.0596095.7907802-.1739605 1.1616705-.0385367.1249911-.1064372.2949847-.2037015.5099807l-.0000598-.0000271c-.0460949.1018896-.0567063.2162898-.0301385.3249193.1052402.4303022.1578603.7647877.1578603 1.0034566 0 1.9910304-1.7346291 3.5-3.75 3.5h-2.5c-.2761424 0-.5.2238576-.5.5v3.5c0 1.7160666-1.0699445 3-3 3-1.5168384 0-2.5354224-1.018584-2.9701425-2.7574644-.4193241-1.4254213-.742381-2.394592-.9398234-2.8278524-.6451157-1.4156191-1.6111228-2.5147937-3.0900674-3.4146832l-2.99998681-.0000201c-1.10455839 0-1.99997989-.8954215-1.99997989-1.9999799zm17.25-9h-4.75c-1.4384539 0-2.567209.30529989-4.1261506.98019447-1.9967547.86443192-2.3725084.99873527-3.2884683 1.01886518-.0426168.0007821-.0426168.0007821-.0853811.00094035l-2.49996742-.00003258c-.27616037 0-.50009243.22387221-.50009243.50003258v3 2.9999402c0 .2761754.22388442.5000598.50005985.5000598h3.0405001l.2315037.1331484c1.9699842 1.1330286 3.288073 2.587202 4.1379621 4.4521685.2495544.5476132.5931642 1.5784426 1.0495407 3.132997.2425825.9669368.5573318 1.2816861 1.0404934 1.2816861.7366112 0 1-.3160666 1-1v-4c0-1.1045695.8954305-2 2-2h3c.9679581 0 1.75-.6803054 1.75-1.5 0-.2583636-.0710203-.5219903-.2200314-.8291553l-.1328709-.273894c-.0816123-.1682319-.0625371-.3679422.0494462-.517683l.182317-.243789c.2393267-.3200207.3711391-.7139008.3711391-1.1354787 0-.4390441-.1386933-.8439663-.390047-1.1661954l-.1538433-.1972232c-.0968413-.1241481-.1295474-.2866599-.0882707-.4386047l.0655727-.2413815c.0442914-.1630426.0665883-.3146973.0665883-.4565952 0-.5470312-.2477071-1.03412028-.6359183-1.29502007l-.2599889-.1747272c-.1590117-.1068648-.2429786-.29519443-.2161921-.48489758l.0437967-.31017039c.0149587-.10593818.0314086-.17152319.0661231-.29145309-.0256674-.81245647-.5893765-1.44373167-1.2478205-1.44373167z" fill="#3d3d3d"/></svg>