<svg height="32" viewBox="0 0 32 32" width="32" xmlns="http://www.w3.org/2000/svg"><path d="m24 5c1.1045695 0 2 .8954305 2 2v19.5c0 .2761424-.2238576.5-.5.5h-19c-.27614237 0-.5-.2238576-.5-.5v-19.5c0-1.1045695.8954305-2 2-2zm-6 2h-9.5c-.27614237 0-.5.22385763-.5.5v17.5h10zm5.5 0h-3.5v18h4v-17.5c0-.27614237-.2238576-.5-.5-.5zm-12 12c.2761424 0 .5.2238576.5.5v1c0 .2761424-.2238576.5-.5.5h-1c-.2761424 0-.5-.2238576-.5-.5v-1c0-.2761424.2238576-.5.5-.5zm4 0c.2761424 0 .5.2238576.5.5v1c0 .2761424-.2238576.5-.5.5h-1c-.2761424 0-.5-.2238576-.5-.5v-1c0-.2761424.2238576-.5.5-.5zm-4-4c.2761424 0 .5.2238576.5.5v1c0 .2761424-.2238576.5-.5.5h-1c-.2761424 0-.5-.2238576-.5-.5v-1c0-.2761424.2238576-.5.5-.5zm4 0c.2761424 0 .5.2238576.5.5v1c0 .2761424-.2238576.5-.5.5h-1c-.2761424 0-.5-.2238576-.5-.5v-1c0-.2761424.2238576-.5.5-.5zm0-6c.2761424 0 .5.22385763.5.5v3c0 .2761424-.2238576.5-.5.5h-5c-.2761424 0-.5-.2238576-.5-.5v-3c0-.27614237.2238576-.5.5-.5z" fill="#3d3d3d"/></svg>