<svg height="32" viewBox="0 0 32 32" width="32" xmlns="http://www.w3.org/2000/svg"><path d="m16 6c5.5228475 0 10 4.4771525 10 10s-4.4771525 10-10 10c-2.684408 0-5.121771-1.0577251-6.9180539-2.7791402-.21004217-.1875953-.34573355-.4599481-.34573355-.7639934 0-.5522847.44771525-1 1-1 .30404525 0 .57639815.1356914.75980475.3498204 1.4343605 1.3591476 3.3717567 2.1933132 5.5039827 2.1933132 4.418278 0 8-3.581722 8-8s-3.581722-8-8-8c-2.5874132 0-4.8879329 1.22833651-6.35023544 3.1336856l1.85543924.0001979c.5522848 0 1 .4477152 1 1 0 .5522847-.4477152 1-1 1h-3.74264067c-.82842712 0-1.5-.6715729-1.5-1.5v-3.74264071c0-.55228475.44771525-1 1-1s1 .44771525 1 1l-.00126679 1.77484562c1.83390786-2.23800259 4.61953216-3.66608841 7.73870366-3.66608841z" fill="#3d3d3d" fill-rule="evenodd"/></svg>