<svg height="32" viewBox="0 0 32 32" width="32" xmlns="http://www.w3.org/2000/svg"><path d="m5 16c0-1.1045584.8954215-1.9999799 1.99997989-1.9999799l2.99998677-.0000201c1.47894464-.8998895 2.44495174-1.9990641 3.09006744-3.4146832.1974424-.4332604.5204993-1.40243108.9398234-2.82785243.4347201-1.73888036 1.4533041-2.75746437 2.9701425-2.75746437 1.9300555 0 3 1.28393342 3 3v3.5c0 .2761424.2238576.5.5.5h2.5c2.0153709 0 3.75 1.5089696 3.75 3.5 0 .2386689-.0526201.5731544-.1578603 1.0034566-.0265678.1086295-.0159564.2230297.0301385.3249193l.0000598-.0000271c.0972643.214996.1651648.3849896.2037015.5099807.114351.3708903.1739605.7618052.1739605 1.1616705 0 .4823359-.0854766.9510183-.2486198 1.3868992-.0433222.1157468-.1166851.2736721-.2200888.4737758-.0441403.0854189-.0627141.1817538-.0534957.2774605l-.0000298.0000029c.0148227.153892.0222341.2745125.0222341.3618616 0 .7331888-.211904 1.4348438-.5944304 2.0158869-.0631925.0959871-.1617481.2222016-.2956668.3786434-.0705151.0823745-.1123348.1854432-.1191527.2936627l-.0000867-.0000055c-.0128014.2031938-.0289425.3596669-.0484235.4694194-.2817204 1.5871645-1.5643335 2.8423931-3.1922399 2.8423931h-4.75c-1.7617266 0-3.1331744-.3709422-4.9207244-1.1448055-1.6868822-.7302825-2.0021427-.8429641-2.5378376-.854737l-.041438-.0004575h-3c-1.10455855 0-1.99998017-.8954216-1.99998017-1.9999802h-.00001983c0-1.5148922 0-2.6815655 0-3.5000198 0-.8184507 0-1.9851174 0-3.5z" fill="#3d3d3d"/></svg>