<svg height="30" viewBox="0 0 30 30" width="30" xmlns="http://www.w3.org/2000/svg" xmlns:xlink="http://www.w3.org/1999/xlink"><mask id="a" fill="#fff"><path d="m.5 13.5 5.5-5.5-5.5-5.5c-.5-.5-.5-1.5 0-2s1.5-.5 2 0l5.5 5.5 5.5-5.5c.5-.5 1.5-.5 2 0s.5 1.5 0 2l-5.5 5.5 5.5 5.5c.5.5.5 1.5 0 2-.498.498-1.5.5-2 0l-5.5-5.5-5.5 5.5c-.5.5-1.5.5-2 0s-.5-1.5 0-2z" fill="#fff" fill-rule="evenodd"/></mask><g fill="#000" fill-rule="nonzero" transform="translate(7 7)"><path d="m.5 13.5 5.5-5.5-5.5-5.5c-.5-.5-.5-1.5 0-2s1.5-.5 2 0l5.5 5.5 5.5-5.5c.5-.5 1.5-.5 2 0s.5 1.5 0 2l-5.5 5.5 5.5 5.5c.5.5.5 1.5 0 2-.498.498-1.5.5-2 0l-5.5-5.5-5.5 5.5c-.5.5-1.5.5-2 0s-.5-1.5 0-2z"/><g mask="url(#a)"><path d="m0 0h30v30h-30z" transform="translate(-7 -7)"/></g></g></svg>