<svg height="12" viewBox="0 0 93 12" width="93" xmlns="http://www.w3.org/2000/svg"><g fill="none" fill-rule="evenodd"><path d="m25.486 2.824-.182 2.31h3.57c.3173349 0 .5576659.06766599.721.203.1633342.13533401.245.32899874.245.581 0 .6066697-.3593297.91-1.078.91h-3.584l-.196 2.478h3.85c.3080015 0 .5459992.0699993.714.21s.252.33599874.252.588c0 .5973363-.368663.896-1.106.896h-4.956c-.3266683 0-.5716658-.0886658-.735-.266-.1633341-.1773342-.2310001-.4293317-.203-.756l.616-7.826c.0280001-.3266683.1376657-.57866578.329-.756s.4503317-.266.777-.266h4.956c.3173349 0 .5576659.0699993.721.21.1633342.1400007.245.33133212.245.574 0 .6066697-.3639964.91-1.092.91zm13.376-1.414c.2053344-.24266788.4526652-.364.742-.364.2520013 0 .4713324.0933324.658.28s.28.41066536.28.672c0 .24266788-.0933324.47599888-.28.7l-2.912 3.318 2.562 3.416c.1400007.17733422.21.37333226.21.588 0 .2800014-.1119989.5296656-.336.749s-.4759986.329-.756.329c-.270668 0-.4993324-.1213321-.686-.364l-2.38-3.262-2.772 3.262c-.2053344.2426679-.4526652.364-.742.364-.2520013 0-.4713324-.0933324-.658-.28s-.28-.4106654-.28-.672c0-.25200126.097999-.48999888.294-.714l3.01-3.472-2.366-3.262c-.1306673-.16800084-.196-.35933226-.196-.574 0-.2800014.1119989-.52966557.336-.749s.4759986-.329.756-.329.5086658.12133212.686.364l2.184 3.038zm8.7-.28c1.0453386 0 1.8573304.25899741 2.436.777s.868 1.2203289.868 2.107c0 1.05467194-.3103302 1.86433051-.931 2.429s-1.5096609.847-2.667.847h-2.394l-.21 2.716c-.0280001.3266683-.1469989.587999-.357.784-.210001.196001-.4829983.294-.819.294s-.5949991-.097999-.777-.294-.2590001-.4619983-.231-.798l.616-7.84c.0280001-.3266683.1376657-.57866578.329-.756s.4503317-.266.777-.266zm-.49 4.508c1.1666725 0 1.75-.49932834 1.75-1.498 0-.45733562-.1259987-.79566557-.378-1.015s-.6393307-.329-1.162-.329h-2.058l-.224 2.842zm13.628 4.06c.074667.16800084.112.3173327.112.448 0 .270668-.1143322.5016657-.343.693s-.4876652.287-.777.287c-.196001 0-.3756658-.0513328-.539-.154-.1633341-.1026672-.2963328-.2566656-.399-.462l-1.302-2.66c-.1213339-.24266788-.2706658-.41766613-.448-.525s-.4059986-.161-.686-.161h-1.12l-.21 2.842c-.0280001.3266683-.1446656.587999-.35.784s-.4713317.294-.798.294c-.3360017 0-.5949991-.097999-.777-.294s-.2590001-.4619983-.231-.798l.616-7.84c.0280001-.3266683.1376657-.57866578.329-.756s.4503317-.266.777-.266h3.556c1.0266718 0 1.8246638.25199748 2.394.756s.854 1.19466228.854 2.072c0 .86800434-.2123312 1.55399748-.637 2.058s-1.0756623.83066592-1.953.98c.2426679.06533366.4479992.17966585.616.343s.3266659.39433184.476.693zm-3.066-4.186c.5506694 0 .9683319-.12133212 1.253-.364s.427-.597331.427-1.064c0-.43866886-.1213321-.76299895-.364-.973s-.6159975-.315-1.12-.315h-2.31l-.196 2.716zm8.7-2.688-.182 2.31h3.57c.3173349 0 .5576659.06766599.721.203.1633342.13533401.245.32899874.245.581 0 .6066697-.3593297.91-1.078.91h-3.584l-.196 2.478h3.85c.3080015 0 .5459992.0699993.714.21s.252.33599874.252.588c0 .5973363-.368663.896-1.106.896h-4.956c-.3266683 0-.5716658-.0886658-.735-.266-.1633341-.1773342-.2310001-.4293317-.203-.756l.616-7.826c.0280001-.3266683.1376657-.57866578.329-.756s.4503317-.266.777-.266h4.956c.3173349 0 .5576659.0699993.721.21.1633342.1400007.245.33133212.245.574 0 .6066697-.3639964.91-1.092.91zm10.03 8.302c-.737337 0-1.4093303-.0769992-2.016-.231s-1.105998-.3569987-1.498-.609c-.1586675-.1120006-.2799996-.2449992-.364-.399-.0840004-.15400077-.126-.31033254-.126-.469 0-.2333345.0699993-.43399916.21-.602s.3219989-.252.546-.252c.1866676 0 .3733324.05599944.56.168.3266683.20533436.7303309.37333268 1.211.504s1.0009972.196 1.561.196c.6066697 0 1.0709984-.0933324 1.393-.28s.483-.45266494.483-.798c0-.2333345-.0863325-.43166585-.259-.595s-.394332-.29633282-.665-.399-.639331-.2239993-1.106-.364c-.6906701-.20533436-1.2529978-.40366571-1.687-.595s-.8073318-.47833142-1.12-.861-.469-.8773303-.469-1.484.1679983-1.14099769.504-1.603.8119969-.81899874 1.428-1.071 1.3346626-.378 2.156-.378c.6906701 0 1.3346637.08399916 1.932.252s1.0733316.39666522 1.428.686c.2333345.17733422.35.41999846.35.728 0 .2333345-.0746659.43866578-.224.616s-.3406655.266-.574.266c-.196001 0-.391999-.06533268-.588-.196-.2893348-.1866676-.6439979-.34299937-1.064-.469s-.8539978-.189-1.302-.189c-.5880029 0-1.047665.10266564-1.379.308s-.497.48999818-.497.854c0 .25200126.0909991.46199916.273.63s.4106653.30566613.686.413.6556642.2309993 1.141.371c.6720034.19600098 1.2226645.38966571 1.652.581s.7956652.46899818 1.099.833c.3033349.36400182.455.83999706.455 1.428 0 .95200476-.361663 1.69166403-1.085 2.219-.7233369.527336-1.7383268.791-3.045.791zm10.114 0c-.737337 0-1.4093303-.0769992-2.016-.231s-1.105998-.3569987-1.498-.609c-.1586675-.1120006-.2799996-.2449992-.364-.399-.0840004-.15400077-.126-.31033254-.126-.469 0-.2333345.0699993-.43399916.21-.602s.3219989-.252.546-.252c.1866676 0 .3733324.05599944.56.168.3266683.20533436.7303309.37333268 1.211.504s1.0009972.196 1.561.196c.6066697 0 1.0709984-.0933324 1.393-.28s.483-.45266494.483-.798c0-.2333345-.0863325-.43166585-.259-.595s-.394332-.29633282-.665-.399-.639331-.2239993-1.106-.364c-.6906701-.20533436-1.2529978-.40366571-1.687-.595s-.8073318-.47833142-1.12-.861-.469-.8773303-.469-1.484.1679983-1.14099769.504-1.603.8119969-.81899874 1.428-1.071 1.3346626-.378 2.156-.378c.6906701 0 1.3346637.08399916 1.932.252s1.0733316.39666522 1.428.686c.2333345.17733422.35.41999846.35.728 0 .2333345-.0746659.43866578-.224.616s-.3406655.266-.574.266c-.196001 0-.391999-.06533268-.588-.196-.2893348-.1866676-.6439979-.34299937-1.064-.469s-.8539978-.189-1.302-.189c-.5880029 0-1.047665.10266564-1.379.308s-.497.48999818-.497.854c0 .25200126.0909991.46199916.273.63s.4106653.30566613.686.413.6556642.2309993 1.141.371c.6720034.19600098 1.2226645.38966571 1.652.581s.7956652.46899818 1.099.833c.3033349.36400182.455.83999706.455 1.428 0 .95200476-.361663 1.69166403-1.085 2.219-.7233369.527336-1.7383268.791-3.045.791z" fill="#3d3d3d" fill-rule="nonzero"/><path d="m14.4 12h-11.29655172c-.6627417 0-1.2-.5372583-1.2-1.2s.5372583-1.2 1.2-1.2h3.78620689c.6627417 0 1.2-.5372583 1.2-1.2s-.5372583-1.2-1.2-1.2h-5.68965517c-.6627417 0-1.2-.5372583-1.2-1.2s.5372583-1.2 1.2-1.2h4.73793103c.6627417 0 1.2-.5372583 1.2-1.2s-.5372583-1.2-1.2-1.2h-1.40689655c-.6627417 0-1.2-.5372583-1.2-1.2s.5372583-1.2 1.2-1.2h9.86896552c3.3137085 0 6 2.6862915 6 6s-2.6862915 6-6 6zm0-1.2c2.6509668 0 4.8-2.1490332 4.8-4.8s-2.1490332-4.8-4.8-4.8-4.8 2.1490332-4.8 4.8 2.1490332 4.8 4.8 4.8zm.6583212-4.99745339 1.3274652 1.34159027c.2294696.23191128.2294696.6053308 0 .83724208-.2263552.22876383-.5953022.23071635-.824066.00436107l-.0043611-.00436107-1.410366-1.42537317c-.2223022-.22466759-.3469933-.52796601-.3469933-.84402579v-2.12619356c0-.32352092.2622655-.58578644.5857864-.58578644.323521 0 .5857865.26226552.5857865.58578644v2.00575373c0 .07901494.0311728.15483955.0867483.21100644z" fill="#68a51c"/></g></svg>