<svg height="12" viewBox="0 0 21 12" width="21" xmlns="http://www.w3.org/2000/svg"><path d="m14.4 12h-11.29655172c-.6627417 0-1.2-.5372583-1.2-1.2s.5372583-1.2 1.2-1.2h3.78620689c.6627417 0 1.2-.5372583 1.2-1.2s-.5372583-1.2-1.2-1.2h-5.68965517c-.6627417 0-1.2-.5372583-1.2-1.2s.5372583-1.2 1.2-1.2h4.73793103c.6627417 0 1.2-.5372583 1.2-1.2s-.5372583-1.2-1.2-1.2h-1.40689655c-.6627417 0-1.2-.5372583-1.2-1.2s.5372583-1.2 1.2-1.2h9.86896552c3.3137085 0 6 2.6862915 6 6s-2.6862915 6-6 6zm0-1.2c2.6509668 0 4.8-2.1490332 4.8-4.8s-2.1490332-4.8-4.8-4.8-4.8 2.1490332-4.8 4.8 2.1490332 4.8 4.8 4.8zm.6583212-4.99745339 1.3274652 1.34159027c.2294696.23191128.2294696.6053308 0 .83724208-.2263552.22876383-.5953022.23071635-.824066.00436107l-.0043611-.00436107-1.410366-1.42537317c-.2223022-.22466759-.3469933-.52796601-.3469933-.84402579v-2.12619356c0-.32352092.2622655-.58578644.5857864-.58578644.323521 0 .5857865.26226552.5857865.58578644v2.00575373c0 .07901494.0311728.15483955.0867483.21100644z" fill="#68a51c" fill-rule="evenodd"/></svg>