<svg height="1239" viewBox="0 0 816 1239" width="816" xmlns="http://www.w3.org/2000/svg" xmlns:xlink="http://www.w3.org/1999/xlink"><defs><rect id="a" height="40" rx="4" width="250"/><ellipse id="b" cx="20.054496" cy="20" rx="20.054496" ry="20"/><path id="c" d="m3.75 7.49877777v-.9375c0-3.10660172 2.51839828-5.625 5.625-5.625 3.1066017 0 5.625 2.51839828 5.625 5.625v.9375h3.25c.2761424 0 .5.22385763.5.5v13.43872223c0 1.1045695-.8954305 2-2 2h-14.75c-1.1045695 0-2-.8954305-2-2v-13.43872223c0-.27614237.22385763-.5.5-.5zm1.875 0h7.5v-.9375c0-2.07106781-1.6789322-3.75-3.75-3.75-2.07106781 0-3.75 1.67893219-3.75 3.75zm2.8125 7.24915843c-.56043878-.3241964-.9375-.9301437-.9375-1.6241584 0-1.0355339.83946609-1.875 1.875-1.875 1.0355339 0 1.875.8394661 1.875 1.875 0 .6940147-.3770612 1.299962-.9375 1.6241584v4.4395638c0 .2761424-.2238576.5-.5.5h-.875c-.27614237 0-.5-.2238576-.5-.5zm-6.5625-5.37415843v12.18750003h15v-12.18750003z"/><mask id="d" fill="#fff"><use fill="#fff" fill-rule="evenodd" xlink:href="#a"/></mask><mask id="e" fill="#fff"><use fill="#fff" fill-rule="evenodd" xlink:href="#b"/></mask><mask id="f" fill="#fff"><use fill="#fff" fill-rule="evenodd" xlink:href="#c"/></mask><mask id="g" fill="#fff"><rect fill="#fff" fill-rule="evenodd" height="40" rx="4" width="172"/></mask></defs><g fill="none" fill-rule="evenodd"><path d="m1.5.5h767v1238h-767z" stroke="#767676"/><g transform="translate(17 1017)"><path d="m4 .5c-1.93299662 0-3.5 1.56700338-3.5 3.5v137c0 1.932997 1.56700338 3.5 3.5 3.5h728c1.932997 0 3.5-1.567003 3.5-3.5v-137c0-1.93299662-1.567003-3.5-3.5-3.5z" fill="#fff" stroke="#ccc"/><path d="m.5 51.5h735v-47.5c0-1.93299662-1.567003-3.5-3.5-3.5h-728c-1.93299662 0-3.5 1.56700338-3.5 3.5z" fill="#f6f6f6" stroke="#ccc"/><text fill="#3d3d3d" font-family="SourceSansPro-Semibold, Source Sans Pro" font-size="18" font-weight="500" letter-spacing=".200000003"><tspan x="16" y="34">Payment card:</tspan></text><g transform="translate(141 16)"><rect fill="#224dba" height="20" rx="2" width="30"/><path d="m9.25022153 13.9454828h-1.81741846l-1.36284231-5.43040094c-.06468628-.24979845-.20203384-.47063475-.40406768-.57471743-.50419849-.26156432-1.05979156-.46972968-1.66589308-.57471744v-.20907043h2.92771847c.40406768 0 .70711844.31405819.7576269.67880011l.70711845 3.91712923 1.81653238-4.59592934h1.76691zm3.73585387 0h-1.7164016l1.4133508-6.78890624h1.7164015zm3.6339508-4.90817739c.0505084-.365647.3535592-.57471743.7071184-.57471743.5555931-.05249388 1.1608085.05249388 1.6658931.31315312l.3030507-1.46168291c-.5050846-.20907044-1.0606776-.31405819-1.5648761-.31405819-1.6658931 0-2.8780961.94036443-2.8780961 2.24547078 0 .99285832.8586438 1.51417682 1.4647453 1.82823502.6557239.3131531.9082662.5222235.8577577.8353766 0 .4697297-.5050846.6788001-1.0092831.6788001-.6061015 0-1.212203-.1565765-1.76691-.4181408l-.3030507 1.462588c.6061015.2606592 1.2618254.3656469 1.8679269.3656469 1.8679269.0515889 3.0287354-.8878705 3.0287354-2.2979646 0-1.77574111-2.3730115-1.87982379-2.3730115-2.66270659zm8.3799738 4.90817739-1.3628423-6.78890624h-1.4638592c-.3030508 0-.6061016.20907043-.7071185.52222355l-2.5236508 6.26668269h1.76691l.3526731-.9919533h2.1709777l.2020338.9919533zm-2.5741592-4.96067127.5041984 2.55862387h-1.4133507z" fill="#fff"/></g><text fill="#3d3d3d" font-family="SourceSansPro-Regular, Source Sans Pro" font-size="18" letter-spacing=".200000003"><tspan x="175" y="34">5792</tspan></text><text fill="#0073b1" font-family="SourceSansPro-Semibold, Source Sans Pro" font-size="18" font-weight="500" letter-spacing=".200000003" transform="translate(673 6)"><tspan x="4.06" y="18">Close</tspan></text><g transform="translate(470 88)"><use fill="#68a51c" xlink:href="#a"/><g fill="#68a51c" mask="url(#d)"><path d="m0 0h250v40h-250z"/></g><text style="font-family:SourceSansPro-Semibold, Source Sans Pro;font-size:18;font-weight:500;letter-spacing:.200000003;fill:#fff;mask:url(#d)"><tspan x="61.803734" y="26">Confirm Order </tspan><tspan font-family="ZapfDingbatsITC, Zapf Dingbats" font-weight="normal" x="179.101734" y="26">✝</tspan></text></g><g transform="translate(16 68)"><rect fill="#fff" fill-rule="evenodd" height="39" rx="4" stroke="#ccc" width="155" x=".5" y="20.5"/><g font-family="SourceSansPro-Regular, Source Sans Pro"><text fill="#767676" font-size="16" letter-spacing=".200000003"><tspan x="12" y="46">CVV</tspan></text><text fill="#3d3d3d" font-size="14" letter-spacing=".2"><tspan x="0" y="14">CVV Number</tspan></text></g></g><g transform="translate(180 88)"><rect fill="#fff" height="39" rx="4" stroke="#ccc" width="59" x=".5" y=".5"/><path d="m9 20.5h34c1.3807119 0 2.5 1.1192881 2.5 2.5v7c0 1.3807119-1.1192881 2.5-2.5 2.5h-34c-1.38071187 0-2.5-1.1192881-2.5-2.5v-7c0-1.3807119 1.11928813-2.5 2.5-2.5z" fill="#fff" stroke="#979797"/><path d="m0 6h60v8h-60z" fill="#ccc"/><rect fill="#d43030" fill-opacity=".4" height="15" rx="2" width="22" x="25" y="19"/><text fill="#191919" font-family="SourceSansPro-Regular, Source Sans Pro" font-size="8"><tspan x="30" y="29">123</tspan></text></g><text font-family="ZapfDingbatsITC, Zapf Dingbats" font-size="16" letter-spacing=".200000003"><tspan fill="#3d3d3d" x="0" y="166">✝</tspan> <tspan fill="#3d3d3d" font-family="SourceSansPro-Regular, Source Sans Pro" x="8.10625" y="166">By clicking 'Confirm order' you are confirming that you accept our </tspan><tspan fill="#0073b1" font-family="SourceSansPro-Semibold, Source Sans Pro" font-weight="500" text-decoration="underline" x="464.17025" y="166">Terms &amp; Conditions</tspan></text></g><g transform="translate(17 731)"><path d="m4 .5c-1.93299662 0-3.5 1.56700338-3.5 3.5v262c0 1.932997 1.56700338 3.5 3.5 3.5h728c1.932997 0 3.5-1.567003 3.5-3.5v-262c0-1.93299662-1.567003-3.5-3.5-3.5z" fill="#fff" stroke="#ccc"/><path d="m.5 51.5h735v-47.5c0-1.93299662-1.567003-3.5-3.5-3.5h-728c-1.93299662 0-3.5 1.56700338-3.5 3.5z" fill="#f6f6f6" stroke="#ccc"/><g letter-spacing=".200000003"><text fill="#0073b1" font-family="SourceSansPro-Semibold, Source Sans Pro" font-size="18" font-weight="500" transform="translate(420 6)"><tspan x="257.06" y="18">Close</tspan></text><text fill="#3d3d3d" font-family="SourceSansPro-Semibold, Source Sans Pro" font-size="18" font-weight="500"><tspan x="16" y="34">Amount to pay</tspan></text><text fill="#3d3d3d" font-family="SourceSansPro-Regular, Source Sans Pro" font-size="16"><tspan x="16" y="84">Shopping total:</tspan></text><text fill="#3d3d3d" font-family="SourceSansPro-Regular, Source Sans Pro" font-size="16"><tspan x="315.056" y="84">£57.94</tspan></text><text fill="#3d3d3d" font-family="SourceSansPro-Regular, Source Sans Pro" font-size="16"><tspan x="16" y="112">Pick, pack and deliver:</tspan></text><text fill="#3d3d3d" font-family="SourceSansPro-Regular, Source Sans Pro" font-size="16"><tspan x="16" y="168">eVouchers:</tspan></text><text fill="#3d3d3d" font-family="SourceSansPro-Semibold, Source Sans Pro" font-size="16" font-weight="500"><tspan x="16" y="249">Your total:</tspan></text><text fill="#3d3d3d" font-family="SourceSansPro-Regular, Source Sans Pro" font-size="16"><tspan x="323.208" y="112">£1.00</tspan></text><text fill="#3d3d3d" font-family="SourceSansPro-Regular, Source Sans Pro" font-size="16"><tspan x="16" y="140">Carrier bags:</tspan></text><text fill="#d43030" font-family="SourceSansPro-Regular, Source Sans Pro" font-size="16"><tspan x="16" y="196">Multibuy savings total:</tspan></text><text fill="#3d3d3d" font-family="SourceSansPro-Regular, Source Sans Pro" font-size="16"><tspan x="323.208" y="140">£0.00</tspan></text><text fill="#3d3d3d" font-family="SourceSansPro-Regular, Source Sans Pro" font-size="16"><tspan x="323.208" y="168">£0.00</tspan></text><text fill="#3d3d3d" font-family="SourceSansPro-Semibold, Source Sans Pro" font-size="16" font-weight="500"><tspan x="313.36" y="249">£57.52</tspan></text><text fill="#3d3d3d" font-family="SourceSansPro-Regular, Source Sans Pro" font-size="16"><tspan x="318.032" y="196">-£1.42</tspan></text></g><path d="m17 216h343v1h-343z" fill="#ccc" transform="matrix(1 0 0 -1 0 433)"/></g><g transform="translate(17 663)"><path d="m4 .5c-1.93299662 0-3.5 1.56700338-3.5 3.5v44c0 1.9329966 1.56700338 3.5 3.5 3.5h728c1.932997 0 3.5-1.5670034 3.5-3.5v-44c0-1.93299662-1.567003-3.5-3.5-3.5z" fill="#f6f6f6" stroke="#ccc"/><g font-family="SourceSansPro-Semibold, Source Sans Pro" font-size="18" font-weight="500" letter-spacing=".200000003"><text fill="#0073b1" transform="translate(420 6)"><tspan x="262.246" y="18">View</tspan></text><text fill="#3d3d3d"><tspan x="16" y="34">1 eVoucher available</tspan></text></g></g><g transform="translate(17 487)"><path d="m4 .5c-1.93299662 0-3.5 1.56700338-3.5 3.5v153c0 1.932997 1.56700338 3.5 3.5 3.5h728c1.932997 0 3.5-1.567003 3.5-3.5v-153c0-1.93299662-1.567003-3.5-3.5-3.5z" fill="#fff" stroke="#ccc"/><path d="m.5 51.5h735v-47.5c0-1.93299662-1.567003-3.5-3.5-3.5h-728c-1.93299662 0-3.5 1.56700338-3.5 3.5z" fill="#f6f6f6" stroke="#ccc"/><g letter-spacing=".200000003"><text fill="#0073b1" font-family="SourceSansPro-Semibold, Source Sans Pro" font-size="18" font-weight="500" transform="translate(420 6)"><tspan x="240.822" y="18">Change</tspan></text><text fill="#3d3d3d" font-family="SourceSansPro-Semibold, Source Sans Pro" font-size="18" font-weight="500"><tspan x="16" y="34">Other information</tspan></text><text fill="#3d3d3d" font-family="SourceSansPro-Regular, Source Sans Pro" font-size="16"><tspan x="16" y="84">Contact number:</tspan></text><text fill="#3d3d3d" font-family="SourceSansPro-Regular, Source Sans Pro" font-size="16"><tspan x="282" y="84">+1 415 678 1234</tspan></text><text fill="#3d3d3d" font-family="SourceSansPro-Regular, Source Sans Pro" font-size="16"><tspan x="16" y="112">Carrier bags:</tspan></text><text fill="#3d3d3d" font-family="SourceSansPro-Regular, Source Sans Pro" font-size="16"><tspan x="282" y="112">Yes (+40p)</tspan></text><text fill="#3d3d3d" font-family="SourceSansPro-Regular, Source Sans Pro" font-size="16"><tspan x="16" y="140">Delivery instructions:</tspan></text><text fill="#3d3d3d" font-family="SourceSansPro-Regular, Source Sans Pro" font-size="16"><tspan x="282" y="140">Please leave the shopping round the back by the bins.</tspan></text></g></g><g transform="translate(17 367)"><path d="m4 .5c-1.93299662 0-3.5 1.56700338-3.5 3.5v97c0 1.932997 1.56700338 3.5 3.5 3.5h728c1.932997 0 3.5-1.567003 3.5-3.5v-97c0-1.93299662-1.567003-3.5-3.5-3.5z" fill="#fff" stroke="#ccc"/><path d="m.5 51.5h735v-47.5c0-1.93299662-1.567003-3.5-3.5-3.5h-728c-1.93299662 0-3.5 1.56700338-3.5 3.5z" fill="#f6f6f6" stroke="#ccc"/><g letter-spacing=".200000003"><text fill="#0073b1" font-family="SourceSansPro-Semibold, Source Sans Pro" font-size="18" font-weight="500" transform="translate(420 6)"><tspan x="257.06" y="18">Close</tspan></text><text fill="#3d3d3d" font-family="SourceSansPro-Semibold, Source Sans Pro" font-size="18" font-weight="500"><tspan x="16" y="34">8 Items in your trolley</tspan></text><text font-family="SourceSansPro-Regular, Source Sans Pro" font-size="16"><tspan fill="#3d3d3d" x="16" y="84">You've chosen to accept substitutions on some items.</tspan> <tspan fill="#000" x="380.896" y="84"/> <tspan fill="#0073b1" font-family="SourceSansPro-Semibold, Source Sans Pro" font-weight="500" text-decoration="underline" x="384.296" y="84">Change options</tspan></text></g></g><g transform="translate(17 150)"><path d="m4 .5c-1.93299662 0-3.5 1.56700338-3.5 3.5v193c0 1.932997 1.56700338 3.5 3.5 3.5h728c1.932997 0 3.5-1.567003 3.5-3.5v-193c0-1.93299662-1.567003-3.5-3.5-3.5z" fill="#fff" stroke="#ccc"/><path d="m.5 51.5h735v-47.5c0-1.93299662-1.567003-3.5-3.5-3.5h-728c-1.93299662 0-3.5 1.56700338-3.5 3.5z" fill="#f6f6f6" stroke="#ccc"/><g letter-spacing=".200000003"><text fill="#0073b1" font-family="SourceSansPro-Semibold, Source Sans Pro" font-size="18" font-weight="500" transform="translate(420 6)"><tspan x="205.55" y="18">Change Slot</tspan></text><text fill="#3d3d3d" font-family="SourceSansPro-Semibold, Source Sans Pro" font-size="18" font-weight="500"><tspan x="16" y="34">Delivery Details</tspan></text><text fill="#3d3d3d" font-family="SourceSansPro-Regular, Source Sans Pro" font-size="16"><tspan x="73" y="84">100 My Street</tspan> <tspan x="73" y="104">Sutton-under-Whitestonecliff</tspan> <tspan x="73" y="124">SW105L</tspan> <tspan x="126.952" y="124">Q</tspan></text></g><g transform="translate(16 68)"><ellipse cx="20.054496" cy="20" fill="#eee" rx="20.054496" ry="20"/><path d="m24.1522368 27h-7.1897238c-.3575094-1.8538244-1.6810913-3-2.9066547-3-2.0808085 0-3.5281913 1.1461756-3.9036215 3h-1.09637849c-.55228475 0-1-.4477153-1-1v-14c0-.5522847.44771525-1 1-1h14.99999999c.5522848 0 1 .4477153 1 1v4h3.4196775c.3588568 0 .6902003.1922861.8682431.5038611l3.5803226 6.2655644c.0863415.1510977.1317568.322112.1317568.4961389v2.7344356c0 .5522847-.4477152 1-1 1h-1.0933453c-.3575094-1.8538244-1.6810913-3-2.9066547-3-2.0808085 0-3.5281913 1.1461756-3.9036215 3zm-10.0963785 3c-1.8807119 0-3-1.1192881-3-2 0-1.8807119 1.1192881-3 3-3 .8807119 0 2 1.1192881 2 3 0 .8807119-1.1192881 2-2 2zm14 0c-1.8807119 0-3-1.1192881-3-2 0-1.8807119 1.1192881-3 3-3 .8807119 0 2 1.1192881 2 3 0 .8807119-1.1192881 2-2 2zm-3-12h3l2 4h-5z" fill="#191919"/></g><text fill="#3d3d3d" font-family="SourceSansPro-Regular, Source Sans Pro" font-size="16" letter-spacing=".200000003"><tspan x="73" y="160">Thursday, 9 November 2017</tspan> <tspan x="73" y="180">9:30pm - 10:30p</tspan> <tspan x="182.032" y="180">m</tspan></text><g transform="translate(16 144)"><use fill="#78be20" xlink:href="#b"/><g fill="#eee" mask="url(#e)"><path d="m0 0h40v40h-40z"/></g><path d="m20.0544959 7c7.180875 0 13 5.819125 13 13s-5.819125 13-13 13c-7.1800625 0-12.99999999-5.819125-12.99999999-13s5.81993749-13 12.99999999-13zm1 13v-7c0-.5522847-.4477152-1-1-1-.5522847 0-1 .4477153-1 1v9h9c.5522848 0 1-.4477153 1-1s-.4477152-1-1-1z" fill="#191919"/></g></g><g transform="translate(17 96)"><g transform="translate(5.625 2.8125)"><use fill="#f5a623" fill-rule="nonzero" xlink:href="#c"/><g fill="#3d3d3d" mask="url(#f)"><path d="m0 0h30v30h-30z" transform="translate(-5.625 -2.8125)"/></g></g><text fill="#3d3d3d" font-family="SourceSansPro-Semibold, Source Sans Pro" font-size="22" font-weight="500" letter-spacing=".300000012"><tspan x="38" y="27">Checkout Summary</tspan></text></g><g transform="translate(1 16)"><path d="m0 56h768" stroke="#ccc" stroke-linecap="square"/><path d="m82.8753026.83365224h-9.3504543l-5.3316089 15.44279356c.238386-1.2826007.2804863-2.307823.2804863-2.7534647 0-6.46915375-3.7049159-12.68932886-12.4081923-12.68932886h-9.9952631l.0294338 15.36126146c-.8643316-4.3642022-4.8488225-5.5341371-9.8042626-7.04079119-1.852139-.57145485-2.8689246-1.47816809-2.4977678-2.32370945.317119-.73716671 1.4523686-.96879811 2.8304694-.7786175 2.1027359.3017508 3.781553 1.00577514 5.3983132 1.88509798l2.208989-5.47734772c-.4985512-.2456005-4.0774396-2.39510706-8.5627599-2.39510706-6.254899 0-10.2498695 3.05366336-10.2498695 7.55956522 0 4.01597912 2.4714323 6.35064472 7.016258 7.65926622 4.8872777 1.4185484 6.1267756 1.9890902 5.9800625 3.3961346-.1273032 1.212116-3.1565187 2.6889146-10.5685376-1.8742332l-2.2019723 4.5599523-6.7982843-20.53147166h-9.34671815l-8.83358683 25.52282256h7.36718481l1.42737974-4.1211807h8.64159293l1.4682359 4.1211807h7.734241l-.8771803-2.4967255c2.6153205 1.5127713 5.857589 2.8964426 9.7358268 2.8964426 5.9433387 0 9.1549888-3.246583 9.9211775-6.3591357v5.9594186h9.9672873c5.9405138 0 9.0486445-2.8351794 10.6724214-5.8682999l-2.0390388 5.8682999h7.3620818l1.473601-4.1211807h8.7760367l1.2937675 4.1211807h7.7438092zm-71.7646831 15.63693596 2.7468298-8.76861291 2.6027277 8.76861291zm42.3849557 3.3038844v-12.36270789h1.7570218c2.5046934 0 5.2385534 1.01443064 5.2385534 6.18135389 0 4.5767517-2.4149185 6.181354-5.2170477 6.181354zm21.8097345-3.3038844 2.6203849-8.66452942 2.7291727 8.66452942z" fill="#78be20" transform="translate(16.823009 6.823529)"/><g transform="translate(580)"><rect height="39" rx="4" stroke="#68a51c" width="171" x=".5" y=".5"/><text style="font-family:SourceSansPro-Semibold, Source Sans Pro;font-size:18;font-weight:500;letter-spacing:.200000003;fill:#68a51c;mask:url(#g)"><tspan x="42.196" y="26">Need help?</tspan></text></g></g><g transform="translate(1)"><path d="m0 0h16v1239h-16z" fill="#68a51c" fill-opacity=".2"/><path d="m94 0h16v1239h-16z" fill="#d43030" fill-opacity=".2"/><text fill="#767676" font-family="SourceSansPro-Semibold, Source Sans Pro" font-size="18" font-weight="500"><tspan x="796.266" y="365">16</tspan></text><text fill="#767676" font-family="SourceSansPro-Semibold, Source Sans Pro" font-size="18" font-weight="500"><tspan x="796.266" y="90">24</tspan></text><text fill="#767676" font-family="SourceSansPro-Semibold, Source Sans Pro" font-size="18" font-weight="500"><tspan x="796.266" y="144">24</tspan></text><text fill="#767676" font-family="SourceSansPro-Semibold, Source Sans Pro" font-size="18" font-weight="500"><tspan x="796.266" y="486">16</tspan></text><text fill="#767676" font-family="SourceSansPro-Semibold, Source Sans Pro" font-size="18" font-weight="500"><tspan x="805.383" y="587">8</tspan></text><text fill="#767676" font-family="SourceSansPro-Semibold, Source Sans Pro" font-size="18" font-weight="500"><tspan x="805.383" y="615">8</tspan></text><text fill="#767676" font-family="SourceSansPro-Semibold, Source Sans Pro" font-size="18" font-weight="500"><tspan x="796.266" y="677">16</tspan></text><text fill="#767676" font-family="SourceSansPro-Semibold, Source Sans Pro" font-size="18" font-weight="500"><tspan x="796.266" y="713">16</tspan></text><g fill-opacity=".2"><path d="m0 351h784v16h-784z" fill="#0073b1"/><path d="m0 72h784v24h-784z" fill="#0073b1"/><path d="m0 126h784v24h-784z" fill="#0073b1"/><path d="m0 472h784v16h-784z" fill="#0073b1"/><path d="m0 577h784v8h-784z" fill="#0073b1"/><path d="m0 605h784v8h-784z" fill="#0073b1"/><path d="m0 663h784v16h-784z" fill="#0073b1"/><path d="m0 699h784v16h-784z" fill="#0073b1"/><path d="m188 0h16v1239h-16z" fill="#d43030"/><path d="m282 0h16v1239h-16z" fill="#d43030"/><path d="m376 0h16v1239h-16z" fill="#d43030"/><path d="m470 0h16v1239h-16z" fill="#d43030"/><path d="m564 0h16v1239h-16z" fill="#d43030"/><path d="m658 0h16v1239h-16z" fill="#d43030"/><path d="m752 0h16v1239h-16z" fill="#68a51c"/></g></g></g></svg>