<svg height="134" viewBox="0 0 500 134" width="500" xmlns="http://www.w3.org/2000/svg"><g fill="none" fill-rule="evenodd" transform="translate(0 -6)"><path d="m5 32h1v81h-1z" fill="#767676" fill-rule="nonzero"/><path d="m86 32h1v81h-1z" fill="#767676" fill-rule="nonzero"/><path d="m46 73v40" stroke="#767676" stroke-linecap="square"/><path d="m127 73v40" stroke="#767676" stroke-linecap="square"/><path d="m167 32h1v81h-1z" fill="#767676" fill-rule="nonzero"/><path d="m208 73v40" stroke="#767676" stroke-linecap="square"/><path d="m248 32h1v81h-1z" fill="#767676" fill-rule="nonzero"/><path d="m289 73v40" stroke="#767676" stroke-linecap="square"/><path d="m329 32h1v81h-1z" fill="#767676" fill-rule="nonzero"/><path d="m370 73v40" stroke="#767676" stroke-linecap="square"/><path d="m410 32h1v81h-1z" fill="#767676" fill-rule="nonzero"/><path d="m451 73v40" stroke="#767676" stroke-linecap="square"/><g fill="#767676"><path d="m491 32h1v81h-1z" fill-rule="nonzero"/><text font-family="SourceSansPro-Semibold, Source Sans Pro" font-size="18" font-weight="500"><tspan x=".383" y="18">0</tspan></text><text font-family="SourceSansPro-Semibold, Source Sans Pro" font-size="18" font-weight="500"><tspan x="39.383" y="139">4</tspan></text><text font-family="SourceSansPro-Semibold, Source Sans Pro" font-size="18" font-weight="500"><tspan x="82.383" y="18">8</tspan></text><text font-family="SourceSansPro-Semibold, Source Sans Pro" font-size="18" font-weight="500"><tspan x="116.766" y="139">12</tspan></text><text font-family="SourceSansPro-Semibold, Source Sans Pro" font-size="18" font-weight="500"><tspan x="157.766" y="18">16</tspan></text><text font-family="SourceSansPro-Semibold, Source Sans Pro" font-size="18" font-weight="500"><tspan x="196.766" y="139">20</tspan></text><text font-family="SourceSansPro-Semibold, Source Sans Pro" font-size="18" font-weight="500"><tspan x="239.266" y="18">24</tspan></text><text font-family="SourceSansPro-Semibold, Source Sans Pro" font-size="18" font-weight="500"><tspan x="278.266" y="139">28</tspan></text><text font-family="SourceSansPro-Semibold, Source Sans Pro" font-size="18" font-weight="500"><tspan x="320.266" y="18">32</tspan></text><text font-family="SourceSansPro-Semibold, Source Sans Pro" font-size="18" font-weight="500"><tspan x="359.266" y="139">36</tspan></text><text font-family="SourceSansPro-Semibold, Source Sans Pro" font-size="18" font-weight="500"><tspan x="401.266" y="18">40</tspan></text><text font-family="SourceSansPro-Semibold, Source Sans Pro" font-size="18" font-weight="500"><tspan x="482.266" y="18">48</tspan></text><text font-family="SourceSansPro-Semibold, Source Sans Pro" font-size="18" font-weight="500"><tspan x="440.266" y="139">44</tspan></text></g></g></svg>