<svg height="32" viewBox="0 0 32 32" width="32" xmlns="http://www.w3.org/2000/svg"><path d="m11.4872346 19h12.0127654c.2761424 0 .5.2238576.5.5v1c0 .2761424-.2238576.5-.5.5h-12.0516337l1.57676 1.5767599c.1952621.1952622.1952621.5118447 0 .7071068l-.6521388.6521388c-.1952621.1952621-.5118446.1952621-.7071068 0l-2.50235771-2.5023578c-.78104858-.7810486-.78104858-2.0473785 0-2.8284271l2.50235771-2.5023578c.1952622-.1952621.5118447-.1952621.7071068 0l.6521388.6521388c.1952621.1952621.1952621.5118446 0 .7071067zm9.6032674-8-1.5378917-1.53789166c-.1952622-.19526215-.1952622-.51184464 0-.70710678l.6521387-.65213874c.1952622-.19526215.5118447-.19526215.7071068 0l2.5023578 2.50235778c.7810485.7810486.7810485 2.0473785 0 2.8284271l-2.5023578 2.5023578c-.1952621.1952621-.5118446.1952621-.7071068 0l-.6521387-.6521388c-.1952622-.1952621-.1952622-.5118446 0-.7071068l1.5767599-1.5767599h-12.05163365c-.27614237 0-.5-.2238576-.5-.5v-1c0-.2761424.22385763-.5.5-.5z" fill="#3d3d3d"/></svg>