<svg height="32" viewBox="0 0 32 32" width="32" xmlns="http://www.w3.org/2000/svg"><path d="m11.9999577 21.5.0000103-.9155568c.000006-.1675273.0839071-.3239201.2234813-.4165723.5310833-.3525439.9024343-.6722824 1.114053-.9592156.3602122-.4884104.5403155-1.0664572.5403155-1.7341576 0-.0865538-.0029525-.1700151-.0088576-.2503864-.0059051-.0803714-.0147627-.1638327-.0265729-.2503864h-1.2715262c-.2761424 0-.5-.2238576-.5-.5v-.6320658c0-.2612569.2011363-.4784722.4616224-.498525l.7430154-.057199h.1062916c-.0826717-.2472965-.1505795-.4945892-.2037255-.7418856-.0531461-.2472965-.0797187-.4945892-.0797187-.7418857 0-.5811466.0944804-1.1066437.2834442-1.5765069.1889637-.4698633.4517375-.8686228.7883292-1.1962906.3365916-.3276678.7351811-.5811428 1.1957802-.7604328.4605991-.1792899.9684316-.2689335 1.5235126-.2689335.6613731 0 1.2371134.1298287 1.7272381.38949.2536601.1343856.5790877.3879989.9762829.7608401.2013274.1889952.2113348.5054138.0223461.7067472l-.002984.0031514-.7179685.7516503c-.1890327.1979094-.5020544.2070569-.7023218.0205241-.1154949-.1075742-.2131026-.1844236-.2928229-.2305484-.2243944-.1298306-.4783106-.194745-.7617563-.194745-.4724093 0-.8473786.1421934-1.1249191.4265843s-.4163087.7233355-.4163087 1.316847c0 .2225668.0177151.4451302.0531458.667697s.0826709.4451303.1417221.6676971h2.1218589c.2761423 0 .5.2238576.5.5v.6877898c0 .2761424-.2238577.5-.5.5h-1.7852689c.0118102.0865537.0206678.170015.0265729.2503864.0059051.0803713.0088576.1700149.0088576.2689335 0 .4451336-.0620028.8284374-.1860102 1.1499227-.1240075.3214854-.2818839.8748052-.5653295 1.2086554v.0741885h4.088253c.2761424 0 .5.2238577.5.5v1.0741886c0 .2761424-.2238576.5-.5.5l-7.0000601.0000178c-.2761424 0-.5-.2238576-.5-.5v-.0000178zm4.0000423 4.5c5.5228475 0 10-4.4771525 10-10s-4.4771525-10-10-10-10 4.4771525-10 10 4.4771525 10 10 10zm0 2c-6.627417 0-12-5.372583-12-12s5.372583-12 12-12 12 5.372583 12 12-5.372583 12-12 12z" fill="#3d3d3d" fill-rule="evenodd"/></svg>