<svg height="32" viewBox="0 0 32 32" width="32" xmlns="http://www.w3.org/2000/svg"><path d="m9.64961271 11.1338835h1.85559109c.5522848 0 1 .4477152 1 1 0 .5522847-.4477152 1-1 1h-3.74264067c-.82842712 0-1.5-.6715729-1.5-1.5v-3.74264071c0-.55228475.44771525-1 1-1s1 .44771525 1 1v1.77330002c1.83392377-2.23711448 4.61898347-3.66454281 7.73743687-3.66454281 5.5228475 0 10 4.4771525 10 10s-4.4771525 10-10 10c-2.6844777 0-5.1218977-1.0577801-6.91819393-2.7792744l.00413397-.004134c-.21407534-.1834058-.34972749-.4557239-.34972749-.7597252 0-.5522847.44771525-1 1-1 .30400135 0 .57631935.1356522.75972515.3497275 1.4345049 1.3592684 3.371872 2.1934061 5.5040623 2.1934061 4.418278 0 8-3.581722 8-8s-3.581722-8-8-8c-2.5875027 0-4.8880922 1.22842155-6.35038729 3.1338835z" fill="#3d3d3d" fill-rule="evenodd"/></svg>