<svg height="32" viewBox="0 0 32 32" width="32" xmlns="http://www.w3.org/2000/svg"><path d="m21 12.9423077c-.2783203.4134615-.625.7644231-1.0205078 1.0480769v.2644231c0 2.6682692-2.0605469 5.7451923-5.8300781 5.7451923-1.1572266 0-2.2460938-.25-3.1494141-.8221154.1611328.0240385.3222656.0336539.4882812.0336539.9570313 0 1.850586-.4086539 2.5439454-.9567308-.8886719-.0096154-1.6552735-.6057692-1.9091797-1.4038462.1269531.0240385.2539062.0384616.3808593.0384616.1855469 0 .3710938-.0240385.5468751-.0721154-.9375-.1826923-1.6455079-1-1.6455079-1.9807692v-.0240385c.2783203.1490385.5908204.2403846.9277344.25-.5566406-.3653846-.9179687-.9807692-.9179687-1.6730769 0-.375.1074218-.6826923.2783203-.9807693 1.0205078 1.2211539 2.524414 1.9807693 4.2236328 2.0721154-.0341797-.1442307-.0439453-.3076923-.0439453-.4663461 0-1.1153846.9130859-2.0144231 2.0458984-2.0144231.5908203 0 1.1230469.25 1.5087891.6346154.4589844-.0913462.9033203-.2596154 1.2939453-.4903846-.1513672.4711538-.4736328.8701923-.9033203 1.1201923.4199219-.0480769.8105468-.1586539 1.1816406-.3221154zm-5 13.0576923c5.5228475 0 10-4.4771525 10-10s-4.4771525-10-10-10-10 4.4771525-10 10 4.4771525 10 10 10zm0 2c-6.627417 0-12-5.372583-12-12s5.372583-12 12-12 12 5.372583 12 12-5.372583 12-12 12z" fill="#3d3d3d" fill-rule="evenodd"/></svg>