<svg height="32" viewBox="0 0 32 32" width="32" xmlns="http://www.w3.org/2000/svg"><path d="m16 21c-.5643692 0-1-.4285714-1-1s.4356308-1 1-1 1 .4285714 1 1-.4356308 1-1 1zm-1.1360155-3.4208563c-.0593036-.4066484-.0727371-.6768586-.0403003-.8106307.0789478-.3255874.1921045-.627914.3394737-.906989.1473692-.2790749.313157-.5348898.4973684-.7674522.1842115-.2325625.3605255-.4564005.5289474-.6715207.1684219-.2151203.3078942-.4244234.418421-.6279155.1105269-.2034922.1657895-.4157022.1657895-.6366365 0-.3604718-.0973674-.6337286-.2921053-.8197786-.1947378-.1860499-.4499984-.2790735-.7657894-.2790735-.2947383 0-.5552621.0755817-.781579.2267473-.0831433.0555345-.1867975.1387292-.3109625.2495841l.0000116.000013c-.1984643.1771894-.500925.1679383-.6881893-.0210491l-.5896633-.5951103c-.1943601-.1961484-.1929103-.512718.003238-.707078l.0005028-.0004975c.3825583-.3779995.7056494-.642055.9692733-.7921666.5105288-.290703 1.0763126-.43605238 1.6973684-.43605238.4210547 0 .8131561.05813978 1.1763158.17442098s.678946.2965144.9473684.540705c.2684224.2441905.4789466.5552382.6315789.9331521.1526324.377914.2289474.822683.2289474 1.3343204 0 .3604718-.0578942.6831474-.1736842.9680364-.1157901.284889-.2605255.5494248-.4342105.7936154-.1736851.2441905-.3578938.4796565-.5526316.7064049-.1947378.2267483-.3736834.4622143-.5368421.7064049-.1631587.2441905-.2921048.5029124-.3868421.7761733-.0339189.0978358-.0455498.2882952-.0348927.5713781l.0000388-.0000014c.0103892.2759683-.2049052.508107-.4808736.5184963-.0062676.0002359-.0125392.0003539-.0188113.0003539l-1.0225574-.0000581c-.2482425 0-.4588853-.1821519-.4947088-.427796zm1.1360155 8.4208563c5.5228475 0 10-4.4771525 10-10s-4.4771525-10-10-10-10 4.4771525-10 10 4.4771525 10 10 10zm0 2c-6.627417 0-12-5.372583-12-12s5.372583-12 12-12 12 5.372583 12 12-5.372583 12-12 12z" fill="#3d3d3d" fill-rule="evenodd"/></svg>