<svg height="32" viewBox="0 0 32 32" width="32" xmlns="http://www.w3.org/2000/svg"><path d="m24.5831663 10.0432671-1.5780234.523434c-.7615152.2525963-1.5924792.1896368-2.3072427-.1748125l-1.6164414-.82420373c-.7010808-.35747257-1.2336271-.97610858-1.4828478-1.72256017l-.616039-1.8451247h-1.9260076l-.6162938 1.84535053c-.2492573.74634355-.7817649 1.36487986-1.4827647 1.72231113l-1.6164869.82422694c-.7147635.3644493-1.54572757.4274088-2.30724268.1748125l-1.58872072-.5269823-.855537 1.6813279 1.67855326 1.1172237c.83567326.5562136 1.33776602 1.4935401 1.33776602 2.4973943v1.3318938c0 .9985241-.49680971 1.9316026-1.32526023 2.4890253l-1.66574161 1.1207937.84091686 1.6793554 1.57802342-.523434c.76151511-.2525963 1.59247918-.1896368 2.30724268.1748125l1.6164414.8242037c.7010808.3574726 1.2336271.9761086 1.4828478 1.7225602l.6160389 1.8451247h1.9260077l.6162938-1.8453505c.2492572-.7463436.7817648-1.3648799 1.4827647-1.7223112l1.6164869-.8242269c.7147635-.3644493 1.5457275-.4274088 2.3072427-.1748125l1.5780234.523434.8409168-1.6793554-1.6657416-1.1207937c-.8284505-.5574227-1.3252602-1.4905012-1.3252602-2.4890253v-1.335117c0-.9985241.4968097-1.9316026 1.3252602-2.4890253l1.6657416-1.1207937zm.2916684 7.4539665 2.3954535 1.61178c.417262.2807547.5610956.8277219.3359165 1.2774165l-1.6222293 3.2396777c-.2224686.4442816-.737396.6578366-1.2089972.5014054l-2.3995036-.7959208c-.2538384-.0841988-.5308264-.0632123-.7690809.0582708l-1.6164869.8242269c-.2336666.1191438-.4111691.3253226-.4942549.5741038l-.8444722 2.5285783c-.1362815.4080636-.5182825.6832278-.9485017.6832278h-3.3667206c-.4302514 0-.8122734-.2752048-.9485294-.6833108l-.8441785-2.5284355c-.0830736-.2488172-.260589-.4550292-.4942826-.5741868l-1.6164414-.8242037c-.2382545-.1214831-.51524255-.1424696-.76908092-.0582708l-2.39950356.7959208c-.47160126.1564312-.98652862-.0571238-1.20899725-.5014054l-1.62222929-3.2396777c-.22517909-.4496946-.08134554-.9966618.33591654-1.2774165l2.39545345-1.61178c.27615017-.1858075.44175341-.4968337.44175341-.8296751v-1.3318938c0-.334618-.16736425-.6470602-.44592201-.8324647l-2.41923457-1.6102119c-.42230703-.2810822-.56723754-.8338452-.33717334-1.2859745l1.64899895-3.24066391c.22422297-.44064996.73681105-.65129641 1.20608547-.49563701l2.4048522.79769496c.25383837.08419877.53082642.06321227.76908092-.0582708l1.6164869-.82422698c.2336666-.11914376.4111691-.32532253.4942549-.57410371l.8444722-2.52857834c.1362815-.40806359.5182825-.68322781.9485016-.68322781h3.3667207c.4302514 0 .8122734.27520475.9485293.68331082l.8441786 2.52843552c.0830736.2488172.260589.4550292.4942826.57418672l1.6164414.82420378c.2382545.12148307.5152425.14246957.7690809.0582708l2.3995036-.79592081c.4716012-.15643121.9865286.05712374 1.2089972.50140538l1.6222293 3.23967769c.2251791.4496946.0813455.9966618-.3359165 1.2774165l-2.3954535 1.61178c-.2761502.1858075-.4417534.4968337-.4417534.8296751v1.335117c0 .3328414.1656032.6438676.4417534.8296751zm-8.8748347.5027664c1.1381595 0 2-.8686053 2-2 0-1.1416706-.8480984-2-2-2-1.1811448 0-2 .8188552-2 2 0 1.1709444.8325222 2 2 2zm0 2c-2.2618207 0-4-1.7142857-4-4s1.7142857-4 4-4 4 1.7832194 4 4-1.7381793 4-4 4z" fill="#3d3d3d"/></svg>