<svg height="32" viewBox="0 0 32 32" width="32" xmlns="http://www.w3.org/2000/svg"><path d="m6 6v19.5c0 .2761424.22385763.5.5.5h19c.2761424 0 .5-.2238576.5-.5v-19.5zm-1.5-2h23c.2761424 0 .5.22385763.5.5v21.5c0 1.1045695-.8954305 2-2 2h-20c-1.1045695 0-2-.8954305-2-2v-21.5c0-.27614237.22385763-.5.5-.5zm1.5 6h20v2h-20zm8.9453268 10.4715822 4.94455-4.9445499c.1952621-.1952622.5118446-.1952622.7071068 0l.7071068.7072295c.1952282.1952283.1952282.5117558 0 .706984l-5.2981034 5.2981034c-.7810486.7810486-2.0473785.7810486-2.8284271 0l-2.1213204-2.1213204c-.1122299-.1122299-.2296517-.2287322-.3522654-.349507-.1967256-.1937831-.1991174-.510353-.0053383-.7070826l.0026611-.0026813.7074099-.70732c.1942737-.1942738.5089131-.1953727.7045391-.0024607.1138465.1122671.2329155.2305464.3572072.3548381l1.767767 1.7677669c.1952621.1952622.5118446.1952622.7071067 0z" fill="#3d3d3d"/></svg>