<svg height="32" viewBox="0 0 32 32" width="32" xmlns="http://www.w3.org/2000/svg"><path d="m10 11.1707057c1.1651924.4118364 2 1.5230755 2 2.8292943s-.8348076 2.4174579-2 2.8292943v10.6707057c0 .2761424-.22385763.5-.5.5h-1c-.27614237 0-.5-.2238576-.5-.5v-10.6707057c-1.16519237-.4118364-2-1.5230755-2-2.8292943s.83480763-2.4174579 2-2.8292943v-6.6707057c0-.27614237.22385763-.5.5-.5h1c.27614237 0 .5.22385763.5.5zm7 7c1.1651924.4118364 2 1.5230755 2 2.8292943s-.8348076 2.4174579-2 2.8292943v3.6707057c0 .2761424-.2238576.5-.5.5h-1c-.2761424 0-.5-.2238576-.5-.5v-3.6707057c-1.1651924-.4118364-2-1.5230755-2-2.8292943s.8348076-2.4174579 2-2.8292943v-13.6707057c0-.27614237.2238576-.5.5-.5h1c.2761424 0 .5.22385763.5.5zm7-9.99999999c1.1651924.41183641 2 1.52307546 2 2.82929429 0 1.3062188-.8348076 2.4174579-2 2.8292943v13.6707057c0 .2761424-.2238576.5-.5.5h-1c-.2761424 0-.5-.2238576-.5-.5v-13.6707057c-1.1651924-.4118364-2-1.5230755-2-2.8292943 0-1.30621883.8348076-2.41745788 2-2.82929429v-3.67070571c0-.27614237.2238576-.5.5-.5h1c.2761424 0 .5.22385763.5.5zm-2 2.82929429c0 .5522847.4477153 1 1 1s1-.4477153 1-1-.4477153-1-1-1-1 .4477153-1 1zm-7 10c0 .5522847.4477153 1 1 1s1-.4477153 1-1-.4477153-1-1-1-1 .4477153-1 1zm-7-7c0 .5522847.44771525 1 1 1s1-.4477153 1-1-.44771525-1-1-1-1 .4477153-1 1z" fill="#3d3d3d" fill-rule="evenodd"/></svg>