<svg height="32" viewBox="0 0 32 32" width="32" xmlns="http://www.w3.org/2000/svg"><path d="m10 10.9986963v-1.00000001c0-3.3137085 2.6862915-6 6-6s6 2.6862915 6 6v1.00000001h3.5c.2761424 0 .5.2238576.5.5v14.5013037c0 1.1045695-.8954305 2-2 2h-16c-1.1045695 0-2-.8954305-2-2v-14.5013037c0-.2761424.22385763-.5.5-.5zm2 0h8v-1.00000001c0-2.209139-1.790861-4-4-4s-4 1.790861-4 4zm3 7.7324356c-.5978014-.3458094-1-.9921533-1-1.7324356 0-1.1045695.8954305-2 2-2s2 .8954305 2 2c0 .7402823-.4021986 1.3866262-1 1.7324356v4.7688681c0 .2761424-.2238576.5-.5.5h-1c-.2761424 0-.5-.2238576-.5-.5zm-7-5.7324356v12.5c0 .2761424.22385763.5.5.5h15c.2761424 0 .5-.2238576.5-.5v-12.5z" fill="#3d3d3d"/></svg>