<svg height="22" viewBox="0 0 32 22" width="32" xmlns="http://www.w3.org/2000/svg"><g fill="none" fill-rule="evenodd"><path d="m2 0h28c1.1045695 0 2 .8954305 2 2v18c0 1.1045695-.8954305 2-2 2h-28c-1.1045695 0-2-.8954305-2-2v-18c0-1.1045695.8954305-2 2-2z" fill="#224dba"/><path d="m10.2502215 14.9454828h-1.81741843l-1.36284231-5.43040094c-.06468628-.24979845-.20203384-.47063475-.40406768-.57471743-.50419849-.26156432-1.05979156-.46972968-1.66589308-.57471744v-.20907043h2.92771847c.40406768 0 .70711844.31405819.7576269.67880011l.70711845 3.91712923 1.81653238-4.59592934h1.76691zm3.7358539 0h-1.7164016l1.4133508-6.78890624h1.7164015zm3.6339508-4.9081774c.0505084-.36564699.3535592-.57471742.7071184-.57471742.5555931-.05249388 1.1608085.05249388 1.6658931.31315312l.3030507-1.46168291c-.5050846-.20907044-1.0606776-.31405819-1.5648761-.31405819-1.6658931 0-2.8780961.94036443-2.8780961 2.2454708 0 .9928583.8586438 1.5141768 1.4647453 1.828235.6557239.3131531.9082662.5222235.8577577.8353766 0 .4697297-.5050846.6788001-1.0092831.6788001-.6061015 0-1.212203-.1565765-1.76691-.4181408l-.3030507 1.462588c.6061015.2606592 1.2618254.3656469 1.8679269.3656469 1.8679269.0515889 3.0287354-.8878705 3.0287354-2.2979646 0-1.7757411-2.3730115-1.8798238-2.3730115-2.6627066zm8.3799738 4.9081774-1.3628423-6.78890624h-1.4638592c-.3030508 0-.6061016.20907043-.7071185.52222355l-2.5236508 6.26668269h1.76691l.3526731-.9919533h2.1709777l.2020338.9919533zm-2.5741592-4.96067127.5041984 2.55862387h-1.4133507z" fill="#fff"/></g></svg>