<svg height="32" viewBox="0 0 32 32" width="32" xmlns="http://www.w3.org/2000/svg"><g fill="none" fill-rule="evenodd"><path d="m2 5.5c-.82842712 0-1.5.67157288-1.5 1.5v18c0 .8284271.67157288 1.5 1.5 1.5h28c.8284271 0 1.5-.6715729 1.5-1.5v-18c0-.82842712-.6715729-1.5-1.5-1.5z" stroke="#ccc"/><path d="m15 8h12c1.1045695 0 2 .8954305 2 2v4c0 1.1045695-.8954305 2-2 2h-12c-1.1045695 0-2-.8954305-2-2v-4c0-1.1045695.8954305-2 2-2z" fill="#eeacac"/><path d="m15.474 14v-.408h.876v-2.82h-.696v-.318c.348-.06.6-.156.81-.282h.378v3.42h.792v.408zm2.748 0v-.294c1.152-1.146 1.8-1.836 1.8-2.454 0-.438-.24-.75-.726-.75-.318 0-.594.204-.816.462l-.282-.282c.318-.348.66-.582 1.158-.582.708 0 1.146.45 1.146 1.128 0 .72-.654 1.434-1.56 2.382.21-.018.444-.036.642-.036h1.11v.426zm4.158.072c-.612 0-1.002-.258-1.26-.54l.252-.324c.228.24.528.456.978.456.462 0 .792-.276.792-.702 0-.456-.312-.762-1.224-.762v-.378c.816 0 1.086-.312 1.086-.714 0-.372-.252-.606-.66-.606-.318 0-.588.162-.816.39l-.264-.312c.294-.276.648-.48 1.098-.48.666 0 1.146.354 1.146.972 0 .462-.282.756-.696.912v.024c.462.108.828.444.828.972 0 .678-.558 1.092-1.26 1.092zm2.19-1.524h1.2v-1.11c0-.204.018-.534.03-.738h-.024c-.096.186-.204.354-.312.54zm1.2 1.452v-1.056h-1.722v-.324l1.638-2.448h.552v2.376h.522v.396h-.522v1.056z" fill="#191919" fill-rule="nonzero"/><path d="m3.408 15v-.568c.512-.256.848-.744.848-1.328 0-.112-.016-.216-.032-.328h-.8v-.552l.536-.04h.096c-.088-.28-.168-.552-.168-.816 0-.96.656-1.552 1.6-1.552.584 0 .992.24 1.312.624l-.512.504c-.2-.232-.416-.376-.72-.376-.496 0-.792.312-.792.848 0 .264.064.512.136.768h1.232v.592h-1.096c.016.104.024.216.024.336 0 .472-.136.768-.424 1.072v.032h2.16v.784z" fill="#3d3d3d" fill-rule="nonzero"/><path d="m5 20h22c1.1045695 0 2 .8954305 2 2s-.8954305 2-2 2h-22c-1.1045695 0-2-.8954305-2-2s.8954305-2 2-2z" fill="#ccc"/></g></svg>