<svg height="22" viewBox="0 0 32 22" width="32" xmlns="http://www.w3.org/2000/svg"><g fill="none" fill-rule="evenodd"><path d="m2 0h28c1.1045695 0 2 .8954305 2 2v18c0 1.1045695-.8954305 2-2 2h-28c-1.1045695 0-2-.8954305-2-2v-18c0-1.1045695.8954305-2 2-2z" fill="#2183cb"/><path d="m17.0682147 17h-2.4290871c-3.6732537-.0521707-6.6355551-2.7128762-6.6355551-5.9474593-.11849206-3.23458308 2.7253173-5.94745924 6.339325-6.05180063h2.7253172c3.7917458-.05217069 6.8725393 2.66070546 6.9317853 5.99962993v.0521707c-.1184921 3.2867538-3.1400395 5.9474593-6.9317853 5.9474593zm-3.0682147-11c-2.7368421 0-5 2.26315789-5 5 0 2.7368421 2.2631579 5 5 5s5-2.2631579 5-5c0-2.73684211-2.2631579-5-5-5zm.8571429 1.57142857c1.7993327.48593926 2.9303418 2.37570304 2.4676563 4.26546683-.3084571 1.295838-1.2338282 2.2677165-2.4676563 2.591676zm-4.176611 2.53768283c.3143394-1.24184481 1.2573576-2.21372332 2.4623252-2.53768283v6.85714283c-1.8336464-.4859392-2.9338343-2.4296963-2.4623252-4.31946z" fill="#fff"/></g></svg>