<svg height="22" viewBox="0 0 32 22" width="32" xmlns="http://www.w3.org/2000/svg"><g fill="none" fill-rule="nonzero"><path d="m2 0h28c1.1045695 0 2 .8954305 2 2v18c0 1.1045695-.8954305 2-2 2h-28c-1.1045695 0-2-.8954305-2-2v-18c0-1.1045695.8954305-2 2-2z" fill="#d43030"/><g fill="#fff"><path d="m4.486 12 1.584-3.006-1.494-2.844h1.728l.396.954c.126.27.252.594.414.972h.036c.126-.378.252-.702.36-.972l.342-.954h1.656l-1.494 2.916 1.584 2.934h-1.728l-.468-1.044c-.144-.306-.27-.612-.414-.972h-.036c-.126.36-.252.666-.378.972l-.432 1.044zm6.05 0v-5.85h1.656l.882 2.394c.108.324.198.684.306 1.026h.036c.108-.342.198-.702.306-1.026l.846-2.394h1.656v5.85h-1.404v-1.728c0-.594.126-1.503.198-2.088h-.036l-.486 1.404-.72 1.935h-.828l-.72-1.935-.468-1.404h-.036c.072.585.198 1.494.198 2.088v1.728zm8.696-2.844-.099.405h1.08l-.099-.405c-.144-.558-.288-1.269-.432-1.854h-.036c-.126.594-.27 1.296-.414 1.854zm-2.25 2.844 1.782-5.85h1.872l1.782 5.85h-1.638l-.288-1.242h-1.638l-.288 1.242zm8.048.108c-.738 0-1.584-.27-2.214-.837l.882-1.062c.414.333.936.567 1.368.567.468 0 .666-.153.666-.414 0-.279-.297-.369-.792-.567l-.729-.306c-.63-.252-1.179-.783-1.179-1.629 0-.999.9-1.818 2.178-1.818.666 0 1.404.252 1.944.783l-.774.972c-.396-.279-.738-.423-1.17-.423-.378 0-.612.135-.612.396 0 .279.333.378.864.585l.711.279c.729.288 1.143.792 1.143 1.602 0 .99-.828 1.872-2.286 1.872z"/><path d="m6.034 18.084c-.595 0-1.225-.224-1.687-.658l.588-.707c.329.28.749.476 1.127.476.427 0 .637-.168.637-.441 0-.287-.259-.378-.658-.546l-.595-.252c-.469-.189-.917-.581-.917-1.246 0-.756.672-1.358 1.624-1.358.525 0 1.078.21 1.47.602l-.525.651c-.301-.231-.581-.364-.945-.364-.357 0-.581.154-.581.413 0 .28.301.378.693.539l.588.238c.553.224.903.595.903 1.239 0 .756-.63 1.414-1.722 1.414zm4.57-2.394-.112.42h.973l-.105-.42c-.126-.455-.252-.994-.371-1.47h-.028c-.112.483-.231 1.015-.357 1.47zm-1.652 2.31 1.428-4.564h1.239l1.428 4.564h-1.092l-.28-1.085h-1.393l-.28 1.085zm6.257 0-1.379-4.564h1.092l.546 2.128c.14.497.231.959.371 1.463h.028c.133-.504.231-.966.364-1.463l.539-2.128h1.05l-1.372 4.564zm4.101 0v-4.564h2.856v.868h-1.827v.917h1.554v.861h-1.554v1.05h1.897v.868zm4.836 0v-4.564h1.645c.966 0 1.757.336 1.757 1.421 0 .672-.322 1.099-.812 1.316l1.036 1.827h-1.155l-.875-1.645h-.567v1.645zm1.029-2.464h.532c.539 0 .833-.231.833-.679s-.294-.602-.833-.602h-.532z"/></g></g></svg>