<svg height="32" viewBox="0 0 32 32" width="32" xmlns="http://www.w3.org/2000/svg"><g fill="none" fill-rule="evenodd"><path d="m0 7c0-1.1045695.8954305-2 2-2h28c1.1045695 0 2 .8954305 2 2v18c0 1.1045695-.8954305 2-2 2h-28c-1.1045695 0-2-.8954305-2-2z" fill="#0073b1"/><path d="m16.5 21h-1c-.2761424 0-.5-.2238576-.5-.5v-3.5h-3.5c-.2761424 0-.5-.2238576-.5-.5v-1c0-.2761424.2238576-.5.5-.5h3.5v-3.5c0-.2761424.2238576-.5.5-.5h1c.2761424 0 .5.2238576.5.5v3.5h3.5c.2761424 0 .5.2238576.5.5v1c0 .2761424-.2238576.5-.5.5h-3.5v3.5c0 .2761424-.2238576.5-.5.5z" fill="#fff"/></g></svg>
