<svg height="22" viewBox="0 0 32 22" width="32" xmlns="http://www.w3.org/2000/svg"><g fill="none" fill-rule="nonzero"><path d="m2 0h28c1.1045695 0 2 .8954305 2 2v18c0 1.1045695-.8954305 2-2 2h-28c-1.1045695 0-2-.8954305-2-2v-18c0-1.1045695.8954305-2 2-2z" fill="#68a51c"/><path d="m26.5731117 7.23054716h-2.6813283l-1.5288876 4.62848384c.0683594-.3844186.080432-.6916962.080432-.825263 0-1.93892213-1.0624185-3.80322084-3.5581626-3.80322084h-2.8662331l.0084404 4.60404724c-.247855-1.3080302-1.3904442-1.6586808-2.811462-2.11025218-.5311178-.17127533-.8226904-.44303364-.7162577-.69645764.0909367-.22094217.4164799-.29036628.8116629-.23336572.6029788.09044016 1.084395.30144896 1.5480157.56499788l.6334478-1.64165994c-.1429641-.0736109-1.1692431-.7178568-2.4554497-.7178568-1.7936495 0-2.9392438.915238-2.9392438 2.26573809 0 1.20366141.7087058 1.90340281 2.0119761 2.29562031 1.4014716.4251645 1.756909.5961662 1.7148377 1.0178828-.0365054.363293-.9051607.8059162-3.0306249-.5617415l-.6314357 1.3667-1.94947015-6.15365254h-2.68025693l-2.53311182 7.64965044h2.11260763l.40931419-1.2351922h2.47805581l.42103009 1.2351922h2.21786438l-.2515395-.7483137c.7499671.4534049 1.6797172.8681161 2.7918374.8681161 1.7043067 0 2.6252767-.9730595 2.8449883-1.9059477v1.7861453h2.8582108c1.7034967 0 2.5947816-.8497544 3.0604145-1.7588354l-.584713 1.7588354h2.1111443l.4225685-1.2351922h2.5166088l.3709997 1.2351922h2.2206081zm-20.5731117 4.76945284 1.02693721-3 .97306279 3zm12 1v-4h.5023237c.7160794 0 1.4976763.3282228 1.4976763 2 0 1.480825-.6904131 2-1.4915279 2zm6-1 .9796642-3 1.0203358 3z" fill="#fff"/></g></svg>