<svg height="22" viewBox="0 0 32 22" width="32" xmlns="http://www.w3.org/2000/svg"><g fill="none" fill-rule="evenodd"><path d="m0 2c0-1.1045695.8954305-2 2-2h28c1.1045695 0 2 .8954305 2 2v18c0 1.1045695-.8954305 2-2 2h-28c-1.1045695 0-2-.8954305-2-2z" fill="#000052"/><circle cx="12" cy="11" fill="#06c" r="6"/><circle cx="21" cy="11" fill="#c00" r="6"/><path d="m16.5966985 7c.9853557 1.01655978 1.5966985 2.43314686 1.5966985 4 0 1.5668531-.6113428 2.9834402-1.5966985 4-.9853558-1.0165598-1.5966985-2.4331469-1.5966985-4 0-1.56685314.6113427-2.98344022 1.5966985-4z" fill="#c70b8c"/></g></svg>