<svg height="22" viewBox="0 0 32 22" width="32" xmlns="http://www.w3.org/2000/svg"><g fill="none" fill-rule="evenodd"><path d="m0 2c0-1.1045695.8954305-2 2-2h28c1.1045695 0 2 .8954305 2 2v18c0 1.1045695-.8954305 2-2 2h-28c-1.1045695 0-2-.8954305-2-2z" fill="#007ecd"/><path d="m10.7208319 14h-1.25228269l-.49780183-1.3628922h-2.27899899l-.47057829 1.3628922h-1.2211701l2.22066283-6h1.21728103zm-2.11954681-2.3738063-.78559351-2.22646655-.7700372 2.22646655zm2.71457561 2.3738063v-6h1.722861l1.0344944 4.0927694 1.0228272-4.0927694h1.7267501v6h-1.0694961v-4.72305593l-1.1317214 4.72305593h-1.1083869l-1.1278322-4.72305593v4.72305593zm6.6503212 0v-6h4.2274265v1.01500682h-3.0762597v1.33015008h2.8623605v1.010914h-2.8623605v1.633015h3.1851538v1.0109141zm4.7330065 0 1.9484274-3.1309686-1.7656408-2.8690314h1.3456205l1.1433886 1.92769441 1.1200541-1.92769441h1.3339533l-1.773419 2.9140518 1.9484275 3.0859482h-1.3884004l-1.26395-2.0750341-1.267839 2.0750341z" fill="#fff"/></g></svg>