<svg height="32" viewBox="0 0 32 32" width="32" xmlns="http://www.w3.org/2000/svg"><g fill="none" fill-rule="evenodd"><path d="m2 5h28c1.1045695 0 2 .8954305 2 2v18c0 1.1045695-.8954305 2-2 2h-28c-1.1045695 0-2-.8954305-2-2v-18c0-1.1045695.8954305-2 2-2z" fill="#2183cb"/><path d="m17.0682147 22h-2.4290871c-3.6732537-.0521707-6.6355551-2.7128762-6.6355551-5.9474593-.11849206-3.2345831 2.7253173-5.9474592 6.339325-6.0518006h2.7253172c3.7917458-.05217072 6.8725393 2.6607054 6.9317853 5.9996299v.0521707c-.1184921 3.2867538-3.1400395 5.9474593-6.9317853 5.9474593zm-3.0682147-11c-2.7368421 0-5 2.2631579-5 5s2.2631579 5 5 5 5-2.2631579 5-5-2.2631579-5-5-5zm.8571429 1.5714286c1.7993327.4859392 2.9303418 2.375703 2.4676563 4.2654668-.3084571 1.295838-1.2338282 2.2677165-2.4676563 2.591676zm-4.176611 2.5376828c.3143394-1.2418448 1.2573576-2.2137233 2.4623252-2.5376828v6.8571428c-1.8336464-.4859392-2.9338343-2.4296963-2.4623252-4.31946z" fill="#fff"/></g></svg>